<svg width="44" height="44" viewBox="0 0 44 44" fill="none" xmlns="http://www.w3.org/2000/svg">
<g clip-path="url(#clip0_359_6550)">
<path d="M20.2118 0.08128C9.56335 0.925887 0.964268 9.45239 0.0802495 20.1105C-1.00468 32.9003 8.92043 43.6389 21.3771 44.0008V38.9734C21.3771 35.8765 19.6894 33.0209 16.957 31.5731C13.3003 29.6425 10.8492 25.6206 11.2108 21.116C11.6127 15.8071 15.9524 11.5438 21.2967 11.1818C27.5652 10.7796 32.8291 15.7668 32.8291 21.9606C32.8291 26.1032 30.4985 29.6827 27.083 31.5328C24.3104 33.021 22.6629 35.957 22.6629 39.1343V44.0008C34.5168 43.6791 44.0401 33.946 44.0401 22.0008C43.9999 9.29152 33.1506 -0.964424 20.2118 0.08128Z" fill="url(#paint0_linear_359_6550)"/>
<path d="M27.8468 31.0897C27.5655 31.2506 27.3244 31.4115 27.0431 31.5723C24.2705 33.0604 22.623 35.9965 22.623 39.1738V44.0403C34.4769 43.7186 44.0002 33.9855 44.0002 22.0403C44.0002 18.9032 43.3171 15.8868 42.1116 13.1519C44.402 25.4992 35.602 31.0897 27.8468 31.0897Z" fill="url(#paint1_linear_359_6550)"/>
<path d="M16.1132 31.0896C16.3945 31.2505 16.6356 31.4114 16.9169 31.5723C19.6895 33.0604 21.337 35.9964 21.337 39.1737V44.0403C9.52329 43.6783 0 33.9452 0 22.0001C0 18.8629 0.683105 15.8465 1.88858 13.1116C-0.401827 25.4991 8.39817 31.0896 16.1132 31.0896Z" fill="url(#paint2_linear_359_6550)"/>
</g>
<defs>
<linearGradient id="paint0_linear_359_6550" x1="-0.000110826" y1="22.0061" x2="43.986" y2="22.0061" gradientUnits="userSpaceOnUse">
<stop stop-color="#4F5955"/>
<stop offset="0.500249" stop-color="#929A97"/>
<stop offset="1" stop-color="#4F5955"/>
</linearGradient>
<linearGradient id="paint1_linear_359_6550" x1="22.2197" y1="42.9771" x2="43.4047" y2="21.8114" gradientUnits="userSpaceOnUse">
<stop stop-color="#4F5955"/>
<stop offset="1" stop-color="#8599A6"/>
</linearGradient>
<linearGradient id="paint2_linear_359_6550" x1="10.6859" y1="45.7003" x2="10.6859" y2="25.9102" gradientUnits="userSpaceOnUse">
<stop stop-color="#4F5955"/>
<stop offset="1" stop-color="#8599A6"/>
</linearGradient>
<clipPath id="clip0_359_6550">
<rect width="44" height="44" fill="white"/>
</clipPath>
</defs>
</svg>
