<svg width="122" height="61" viewBox="0 0 122 61" fill="none" xmlns="http://www.w3.org/2000/svg">
<path d="M37.8636 18.5137C37.8641 18.5148 37.8643 18.516 37.8643 18.5172C37.8643 18.5184 37.8641 18.5196 37.8636 18.5208C39.6228 23.6531 40.2607 29.1092 39.7332 34.5141L39.6581 34.4442C33.9247 6.35775 9.43551 5.26554 8.41797 5.23113C30.2566 4.26343 37.6781 18.1634 37.8636 18.5137Z" fill="#EBEBEB"/>
<path d="M39.6622 34.446C30.8532 10.8508 8.42212 5.23291 8.42212 5.23291C9.44067 5.26733 33.9299 6.35953 39.6622 34.446Z" fill="#BBBBBB"/>
<path d="M41.3043 32.1897L41.3444 32.1289C59.9138 25.0139 57.9419 7.81912 57.8517 7.10549C57.8528 7.10294 57.8534 7.10017 57.8534 7.09738C57.8534 7.0946 57.8528 7.09184 57.8517 7.08929V7.0822L57.7514 7.01438C42.7309 9.97516 39.9429 20.6623 39.8748 20.9326C39.8748 20.9184 39.8748 20.9063 39.8748 20.8911C39.8998 20.6947 39.9259 20.5034 39.9539 20.3131C39.974 20.1846 39.9951 20.055 40.0151 19.9285C40.0442 19.7736 40.0722 19.6248 40.1033 19.4659L40.1605 19.1906C40.1815 19.0995 40.1996 19.0084 40.2206 18.9172C40.2417 18.8261 40.2637 18.732 40.2868 18.6409C40.3098 18.5498 40.3329 18.4577 40.356 18.3686C40.379 18.2795 40.4021 18.2026 40.4241 18.1176C40.4372 18.068 40.4502 18.0164 40.4642 17.9708C40.4903 17.8858 40.5143 17.8008 40.5394 17.7188C40.6066 17.5032 40.6737 17.2936 40.7469 17.0871C40.776 17.0011 40.8051 16.9181 40.8362 16.8351C40.8672 16.7521 40.8963 16.6691 40.9284 16.5871C40.9885 16.4231 41.0547 16.2601 41.1209 16.1002C41.155 16.0213 41.189 15.9423 41.2211 15.8603L41.2752 15.7429L41.3274 15.6255C41.4076 15.4483 41.4878 15.2762 41.572 15.1062L41.6823 14.8835C41.7284 14.7924 41.7825 14.7023 41.8246 14.6112C41.9249 14.4341 42.0181 14.259 42.1174 14.0859C42.1675 13.9998 42.2176 13.9158 42.2687 13.8288C42.2948 13.7842 42.3229 13.7366 42.3509 13.6941L42.367 13.6648C42.5464 13.3722 42.7359 13.0878 42.9274 12.8115C43.0156 12.6829 43.1058 12.5574 43.1981 12.4309C43.2702 12.3357 43.3414 12.2385 43.4156 12.1444C43.4387 12.112 43.4657 12.0766 43.4908 12.0432C43.581 11.9288 43.6712 11.8144 43.7635 11.702C43.8537 11.5897 43.9469 11.4804 44.0402 11.37L44.0622 11.3457C44.1625 11.2303 44.2627 11.119 44.363 11.0077C44.4432 10.9186 44.5254 10.8295 44.6076 10.7425C44.6412 10.7011 44.6774 10.6619 44.7159 10.625C44.793 10.544 44.8672 10.4651 44.9454 10.3861C44.9635 10.3659 44.9835 10.3467 45.0026 10.3295C45.1028 10.2282 45.2031 10.127 45.2963 10.0349C45.2963 10.0298 45.3063 10.0268 45.3083 10.0238C45.3915 9.94177 45.4778 9.86079 45.564 9.77981C45.6171 9.7292 45.6722 9.67858 45.7254 9.62999C45.8146 9.54395 45.9078 9.46198 46.0011 9.381C46.0943 9.30002 46.1946 9.20688 46.2938 9.12388C46.3931 9.04087 46.4943 8.95383 46.5945 8.87184C46.6336 8.83944 46.6758 8.80603 46.7169 8.77061C46.792 8.71088 46.8672 8.64915 46.9434 8.58639C47.3444 8.27057 47.7454 7.96994 48.1524 7.6855L48.379 7.53063C49.0276 7.08626 49.6823 6.68238 50.3429 6.31595C50.4231 6.26939 50.5023 6.22585 50.5845 6.18131C50.8542 6.03049 51.1259 5.88676 51.3955 5.7501L51.7123 5.58714C52.0345 5.42586 52.355 5.27334 52.6738 5.1296C52.774 5.08202 52.8743 5.04053 52.9745 4.99599C53.0487 4.96057 53.1239 4.92918 53.1991 4.89477C53.2933 4.85124 53.3855 4.81278 53.4788 4.7733C53.6281 4.70852 53.7795 4.64879 53.9219 4.58907C54.0412 4.53947 54.1605 4.49392 54.2778 4.44533C54.395 4.39675 54.5123 4.35322 54.6296 4.30767C54.7469 4.26212 54.8602 4.22062 54.9735 4.17811C55.0868 4.1356 55.2001 4.09409 55.3133 4.05461L55.6472 3.93617C55.6622 3.92909 55.6813 3.92605 55.6963 3.91897C56.0131 3.81066 56.3148 3.71653 56.6096 3.61531C56.7098 3.5819 56.8101 3.55154 56.9103 3.52117C57.1249 3.45335 57.3344 3.39261 57.5369 3.33693L57.7775 3.26709C58.1444 3.16587 58.4873 3.07578 58.7991 2.99683L58.9354 2.96544C59.0437 2.93811 59.1459 2.91483 59.2452 2.89155L59.4457 2.84398C59.6462 2.80011 59.8256 2.76165 59.984 2.72858C60.0382 2.71745 60.0843 2.70732 60.1364 2.69922C60.4261 2.64051 60.6296 2.60712 60.7379 2.58789C60.767 2.71341 60.8241 2.96949 60.8983 3.343C60.9093 3.39767 60.9214 3.45536 60.9304 3.51306C61.0206 3.97767 61.1309 4.59514 61.2241 5.32901C61.2482 5.51223 61.2722 5.70354 61.2963 5.90093C61.3073 6.00215 61.3184 6.10338 61.3304 6.2046C61.3514 6.40705 61.3725 6.61962 61.3935 6.83725C61.4737 7.70676 61.5309 8.67546 61.5439 9.71402C61.5439 9.84358 61.5439 9.97416 61.5439 10.1047C61.5439 10.371 61.5439 10.6372 61.5339 10.9084C61.5339 11.0441 61.5339 11.1797 61.5239 11.3184C61.5008 11.9561 61.4567 12.6131 61.3915 13.2811C61.3845 13.3824 61.3735 13.4836 61.3615 13.5777C61.326 13.9151 61.2839 14.2559 61.2351 14.6001C61.2221 14.6952 61.2061 14.7873 61.191 14.8825C61.1078 15.423 61.0066 15.9717 60.8903 16.5183C60.8231 16.8169 60.7519 17.1124 60.6748 17.41C60.6016 17.6884 60.5234 17.9688 60.4412 18.2482C60.359 18.5275 60.2687 18.8029 60.1735 19.0802C60.1474 19.1551 60.1224 19.231 60.0943 19.3039C59.4977 21.0168 58.6611 22.6346 57.6101 24.108C57.5098 24.2558 57.3966 24.4015 57.2833 24.5483C57.17 24.6951 57.0587 24.8388 56.9404 24.9815L56.763 25.1931C56.642 25.3362 56.5187 25.4772 56.393 25.6162C56.3309 25.6861 56.2667 25.7559 56.2026 25.8187C56.1384 25.8814 56.0883 25.9391 56.0301 26.0029L55.4878 26.5394C55.4266 26.5991 55.3635 26.6568 55.2993 26.7145C55.2352 26.7722 55.172 26.8319 55.1088 26.8876C55.0457 26.9433 54.9815 27.003 54.9153 27.0587C54.7148 27.2307 54.5144 27.3988 54.3139 27.5648C54.1134 27.7308 53.8908 27.8917 53.6712 28.0486C53.587 28.1094 53.5068 28.1681 53.4226 28.2268C53.3565 28.2713 53.2913 28.3169 53.2221 28.3614C53.1529 28.4059 53.0717 28.4626 52.9925 28.5142C52.9133 28.5659 52.8392 28.6155 52.76 28.6641C52.6046 28.7653 52.4432 28.8665 52.2828 28.9576C52.2026 29.0042 52.1244 29.0528 52.0412 29.0963C48.7255 30.8984 45.0626 31.9537 41.3043 32.1897Z" fill="#BBBBBB"/>
<path d="M8.38897 5.23396L8.27168 5.35949C8.94837 25.9079 21.3875 32.8771 23.4035 33.8741L23.4697 33.8843C23.4827 33.8864 23.4954 33.8898 23.5078 33.8944H23.4486C23.5729 33.9541 23.6491 33.9885 23.6732 33.9956C23.6521 33.9956 23.6351 33.9855 23.618 33.9814L23.3103 33.8873C21.7664 33.8772 11.8075 34.3408 5.06466 47.0362L5.09975 47.1486C5.10359 47.1523 5.10849 47.1548 5.11378 47.1557C9.46922 48.9636 14.262 49.4092 18.8712 48.4346C23.4803 47.46 27.6934 45.1101 30.9644 41.6896C18.5764 59.7438 0.311779 48.8086 0 48.6204C0.0521303 48.5262 0.141351 48.3379 0.283706 48.0768C0.304759 48.0312 0.328825 47.9867 0.355893 47.9371C0.435091 47.7903 0.525314 47.6334 0.624563 47.4523C0.658648 47.3925 0.693734 47.3338 0.724812 47.2711C0.776942 47.181 0.825065 47.0899 0.88722 46.9917C0.91128 46.9502 0.935341 46.9117 0.956393 46.8702C1.12582 46.5908 1.30827 46.2882 1.51579 45.9592C1.55689 45.8894 1.60602 45.8195 1.65013 45.7466C1.76441 45.5685 1.8817 45.3843 2.00902 45.199L2.18847 44.9338C2.36792 44.6797 2.54737 44.4186 2.74486 44.1422C2.75603 44.129 2.7664 44.1152 2.77594 44.1007L2.98646 43.8143C3.05864 43.7131 3.13183 43.623 3.20401 43.5217C3.27619 43.4205 3.35238 43.3264 3.42857 43.2282C3.50476 43.13 3.58396 43.0257 3.66316 42.9245C3.74236 42.8233 3.81854 42.7221 3.90175 42.6208C4.002 42.4994 4.10226 42.3739 4.20251 42.2473C4.26767 42.1674 4.33383 42.0904 4.40301 42.0135C4.45514 41.9508 4.50326 41.885 4.56241 41.8252C4.63158 41.7412 4.70075 41.6613 4.77594 41.5772C5.00384 41.3127 5.2421 41.0478 5.49072 40.7826C5.57393 40.6986 5.65714 40.6116 5.73935 40.5245C5.94687 40.3049 6.16441 40.0852 6.38497 39.8686C6.45013 39.8028 6.51629 39.74 6.58546 39.6773C7.12782 39.1509 7.70426 38.6347 8.31579 38.1397C8.38897 38.084 8.45815 38.0243 8.53033 37.9686C8.9203 37.6579 9.32431 37.3552 9.73934 37.0657C9.82255 37.01 9.90476 36.9574 9.98095 36.9017C10.0261 36.8734 10.0702 36.842 10.1123 36.8147C10.2226 36.7408 10.3298 36.6709 10.4401 36.6021C10.5504 36.5333 10.6576 36.4624 10.7679 36.3997C10.8782 36.3369 10.9784 36.2671 11.0857 36.2073C11.1479 36.1689 11.21 36.1304 11.2752 36.0919C11.3754 36.0322 11.4757 35.9765 11.5759 35.9178C11.5759 35.9178 11.583 35.9178 11.59 35.9107C11.7073 35.845 11.8316 35.7781 11.9559 35.7154C11.9782 35.7012 12.0013 35.6884 12.0251 35.6769C12.1253 35.6212 12.2256 35.5757 12.3258 35.5231C12.3709 35.4988 12.419 35.4745 12.4672 35.4532C12.5744 35.4006 12.6817 35.3449 12.792 35.2963C12.9263 35.2336 13.0576 35.1708 13.193 35.108C13.2039 35.1048 13.2144 35.1 13.2241 35.0939L13.6251 34.9269C13.7564 34.8712 13.8907 34.8155 14.0261 34.7629C14.0642 34.7487 14.1053 34.7315 14.1434 34.7214C14.2576 34.6758 14.3679 34.6374 14.4822 34.5959C14.6276 34.5432 14.7719 34.4946 14.9213 34.4461C15.2391 34.3448 15.5639 34.2436 15.8947 34.1565C15.9054 34.1559 15.9159 34.1535 15.9258 34.1495C15.9739 34.1353 16.0261 34.1211 16.0772 34.111L16.3639 34.0371C16.5574 33.9916 16.7509 33.9501 16.9474 33.9116C17.0476 33.8944 17.1479 33.8731 17.2481 33.8519L17.4897 33.8134C17.6762 33.782 17.8627 33.7537 18.0521 33.7294C18.0932 33.7223 18.1383 33.7193 18.1795 33.7152C18.2206 33.7112 18.2657 33.701 18.3068 33.698C18.393 33.6909 18.4762 33.6808 18.5624 33.6697C18.7355 33.6521 18.9083 33.6383 19.0807 33.6282C19.1669 33.6211 19.2531 33.614 19.3434 33.6109L19.606 33.6008C19.8236 33.5907 20.0451 33.5867 20.2657 33.5867C20.3519 33.5867 20.4381 33.5867 20.5283 33.5867C20.5764 33.5867 20.6286 33.5867 20.6767 33.5937C20.7629 33.5937 20.8491 33.5937 20.9363 33.6008C21.0236 33.6079 21.1188 33.6079 21.212 33.615C21.3053 33.6221 21.4025 33.6251 21.4957 33.6322L21.7714 33.6535L22.0481 33.6818C22.2035 33.696 22.3589 33.7162 22.5143 33.7304C22.6386 33.7517 22.7659 33.7689 22.8942 33.7861C22.9564 33.7962 23.0185 33.8033 23.0847 33.8175L22.8221 33.7334C22.6496 33.6778 22.4732 33.618 22.3008 33.5593C22.0902 33.4854 21.8827 33.4095 21.6762 33.3326L21.3003 33.1858L20.9343 33.039L20.5614 32.8822C20.4411 32.8265 20.3168 32.7738 20.1955 32.7222C20.0742 32.6706 19.9749 32.621 19.8606 32.5694C19.7955 32.538 19.7293 32.5066 19.6672 32.4752L19.3283 32.3112C19.0446 32.1685 18.7659 32.0218 18.4922 31.8719C18.382 31.8122 18.2717 31.7495 18.1614 31.6908C18.0511 31.632 17.9439 31.5652 17.8366 31.5025C17.6231 31.377 17.4085 31.2474 17.198 31.1158C17.0977 31.0483 16.9942 30.9808 16.8872 30.9133C16.8391 30.8789 16.787 30.8435 16.7358 30.8121C16.6847 30.7807 16.6356 30.7423 16.5845 30.7109C16.3559 30.5581 16.1353 30.4012 15.9148 30.2432C15.8145 30.1734 15.7213 30.1036 15.6281 30.0337C15.5108 29.9497 15.3935 29.8596 15.2792 29.7685C15.0516 29.5944 14.8311 29.4162 14.6125 29.2351C14.5023 29.145 14.395 29.0539 14.2877 28.9597C14.2286 28.9142 14.1704 28.8585 14.1183 28.813C14.1049 28.8034 14.0922 28.7929 14.0802 28.7816C13.7143 28.4607 13.3554 28.1257 13.0135 27.7876C12.8551 27.6347 12.6997 27.4768 12.5434 27.3169C12.4261 27.1914 12.3088 27.0699 12.1915 26.9434C12.1504 26.9019 12.1083 26.8563 12.0702 26.8108C11.9288 26.6579 11.7905 26.5071 11.6561 26.3472C11.5178 26.1906 11.3841 26.0337 11.2551 25.8765C11.2447 25.8645 11.2353 25.8517 11.2271 25.838C11.0857 25.674 10.9504 25.507 10.819 25.34C10.7118 25.2033 10.6085 25.0677 10.5053 24.9351C10.4561 24.8771 10.4099 24.8167 10.3669 24.7539C10.2667 24.6284 10.1734 24.5029 10.0842 24.3743C10.0601 24.3399 10.0391 24.3085 10.015 24.2731C9.89774 24.1121 9.78346 23.9522 9.67319 23.7882C9.6673 23.782 9.66255 23.7748 9.65915 23.767C9.5589 23.6303 9.46967 23.4916 9.37544 23.3489C9.31629 23.2619 9.25815 23.1748 9.20301 23.0837C9.10276 22.9369 9.00952 22.7871 8.91629 22.6343C8.82305 22.4814 8.71579 22.3205 8.62255 22.1606C8.52932 22.0006 8.43308 21.8427 8.33985 21.6828C8.30476 21.617 8.26667 21.5502 8.22857 21.4803L8.02005 21.123C7.66817 20.4853 7.34035 19.8395 7.03559 19.1947C6.97677 19.0759 6.92163 18.9575 6.87017 18.8394C6.39398 17.811 5.97895 16.7826 5.60902 15.7602C5.56391 15.6347 5.5188 15.5122 5.47469 15.3867C5.32631 14.9646 5.18797 14.5465 5.05664 14.1315C5.00451 13.9675 4.95639 13.8035 4.90526 13.6396C4.74987 13.1446 4.61153 12.6526 4.4802 12.1678C4.4391 12.0149 4.401 11.8641 4.3599 11.7082C4.33183 11.5959 4.30075 11.4845 4.27368 11.3701C4.2396 11.2274 4.20151 11.0837 4.17344 10.945C4.1183 10.7152 4.06617 10.4915 4.01805 10.2719C3.97294 10.0876 3.93484 9.90948 3.89774 9.72829C3.86065 9.5471 3.82155 9.37603 3.78747 9.19788C3.75338 9.01972 3.71529 8.84865 3.68722 8.6786C3.65915 8.50854 3.62206 8.33647 3.58697 8.16641C3.55188 7.99636 3.52481 7.82832 3.49674 7.66029C3.48972 7.63904 3.48972 7.6117 3.48271 7.58741C3.40351 7.11672 3.33133 6.66021 3.26917 6.21685C3.24812 6.064 3.22807 5.91318 3.20702 5.76033C3.1619 5.44249 3.12381 5.1287 3.08973 4.82908C3.07569 4.70761 3.06165 4.58513 3.04862 4.46974C2.98947 3.92212 2.94136 3.41296 2.90326 2.95139C2.90326 2.88559 2.89324 2.81877 2.88923 2.74893C2.87519 2.58899 2.86516 2.43513 2.85514 2.28836C2.85514 2.18713 2.84511 2.08592 2.8381 1.9847C2.82105 1.6952 2.80702 1.43 2.79699 1.19313C2.79699 1.11317 2.78997 1.04029 2.78997 0.970441C2.77594 0.545302 2.77293 0.244659 2.76892 0.0877629C2.94837 0.0735916 3.3213 0.0493076 3.86065 0.0280507C3.93985 0.0280507 4.02306 0.0209612 4.10226 0.0209612C4.77594 -0.00333242 5.66316 -0.0104181 6.70877 0.0209612C6.97143 0.0209612 7.24411 0.0351346 7.52782 0.0452569L7.95589 0.0665099C8.24561 0.0806812 8.54937 0.0978912 8.85814 0.119148C10.0942 0.203164 11.4647 0.338793 12.9163 0.558448C13.0994 0.582742 13.2825 0.610755 13.4657 0.642472C13.8356 0.702194 14.2075 0.767982 14.5845 0.837826C14.7739 0.873254 14.9644 0.90768 15.1539 0.946145C16.0411 1.12734 16.9534 1.33585 17.8717 1.58082C18.01 1.61523 18.1444 1.65066 18.2797 1.69216C18.7429 1.81768 19.212 1.95736 19.6832 2.10414C19.8105 2.14564 19.9388 2.18815 20.0662 2.23269C20.805 2.46955 21.5439 2.73882 22.2827 3.03439C22.6837 3.19837 23.0847 3.36944 23.4857 3.54051C23.8586 3.70753 24.2346 3.88162 24.6045 4.06281C24.9744 4.244 25.3403 4.43633 25.7073 4.63473C25.8075 4.68736 25.9078 4.74304 26.008 4.79871C28.2689 6.03581 30.3416 7.59512 32.1624 9.42866C32.3449 9.6139 32.5243 9.80219 32.7048 9.9935C32.8852 10.1848 33.0566 10.3842 33.2301 10.5826C33.3163 10.6838 33.4025 10.7851 33.4887 10.8863C33.6581 11.0887 33.8276 11.3013 33.99 11.5108C34.0732 11.6121 34.1554 11.7234 34.2386 11.8317C34.3218 11.94 34.381 12.02 34.4561 12.1172C34.6697 12.4107 34.8772 12.7063 35.0847 13.01C35.1539 13.1112 35.219 13.2124 35.2852 13.3197C35.3514 13.427 35.4206 13.5221 35.4857 13.6335C35.5509 13.7448 35.62 13.843 35.6862 13.9473C35.8797 14.2682 36.0692 14.5921 36.2526 14.9271C36.4361 15.2622 36.6155 15.6043 36.784 15.9525C36.8491 16.0851 36.9113 16.2147 36.9774 16.3463C37.0226 16.4475 37.0707 16.5558 37.1188 16.6601C37.1669 16.7643 37.2261 16.901 37.2812 17.0224C37.3363 17.1439 37.3815 17.2634 37.4366 17.3889C37.5368 17.6328 37.6371 17.8839 37.7373 18.1349C37.7825 18.2604 37.8306 18.3859 37.8757 18.5114C37.6932 18.1592 30.2677 4.26424 8.43609 5.23396C8.4268 5.2324 8.41731 5.2324 8.40802 5.23396H8.38897Z" fill="#BBBBBB"/>
<path d="M32.6186 42.052C32.6186 42.052 32.6186 42.06 32.6106 42.065L32.6186 42.052Z" fill="#BBBBBB"/>
<path d="M44.718 30.0489V44.2419H44.661L34.572 34.0009L34.61 43.7859H32.748V29.6309H32.843L42.913 39.9859L42.875 30.0489H44.718ZM55.8689 40.1759H50.5869L49.1239 43.7859H47.2999L53.3039 29.4789H53.4179L59.4219 43.7859H57.2939L55.8689 40.1759ZM55.2419 38.5799L53.2849 33.5639L51.2519 38.5799H55.2419ZM69.027 30.0489V31.8159H65.341V43.7859H63.498V31.8159H59.907V30.0489H69.027ZM73.6446 38.9219C73.6446 39.5299 73.7902 40.0809 74.0816 40.5749C74.3729 41.0562 74.7656 41.4426 75.2596 41.7339C75.7662 42.0126 76.3236 42.1519 76.9316 42.1519C77.5649 42.1519 78.1349 42.0126 78.6416 41.7339C79.1609 41.4552 79.5662 41.0689 79.8576 40.5749C80.1489 40.0809 80.2946 39.5299 80.2946 38.9219V30.0489H82.0996V38.9789C82.0996 39.9542 81.8716 40.8219 81.4156 41.5819C80.9596 42.3292 80.3389 42.9119 79.5536 43.3299C78.7682 43.7352 77.8942 43.9379 76.9316 43.9379C75.9816 43.9379 75.1139 43.7352 74.3286 43.3299C73.5432 42.9119 72.9226 42.3292 72.4666 41.5819C72.0232 40.8219 71.8016 39.9542 71.8016 38.9789V30.0489H73.6446V38.9219ZM93.4506 43.7859L90.2206 38.7129C90.1193 38.7256 89.9673 38.7319 89.7646 38.7319H87.7316V43.7859H85.8886V30.0489H89.5556C90.4929 30.0489 91.3289 30.2136 92.0636 30.5429C92.7983 30.8722 93.3746 31.3599 93.7926 32.0059C94.2106 32.6392 94.4196 33.4056 94.4196 34.3049C94.4196 35.1536 94.2296 35.9326 93.8496 36.6419C93.4823 37.3512 92.9123 37.8896 92.1396 38.2569L95.5976 43.7859H93.4506ZM89.7266 36.9459C90.7146 36.9459 91.4239 36.6862 91.8546 36.1669C92.2979 35.6476 92.5196 35.0522 92.5196 34.3809C92.5196 33.9756 92.4246 33.5766 92.2346 33.1839C92.0573 32.7912 91.7659 32.4682 91.3606 32.2149C90.9679 31.9489 90.4676 31.8159 89.8596 31.8159H87.7316V36.9459H89.7266ZM105.633 40.1759H100.351L98.8876 43.7859H97.0636L103.068 29.4789H103.182L109.186 43.7859H107.058L105.633 40.1759ZM105.006 38.5799L103.049 33.5639L101.016 38.5799H105.006ZM113.597 30.0489V41.9999H120.589V43.7859H111.754V30.0489H113.597Z" fill="#BBBBBB"/>
<path d="M43.8219 54.7423V56.0233H44.6129V56.5413H43.8219V58.9143H43.1639V56.5413H42.6319V56.0233H43.1639V54.7423H43.8219ZM48.3814 56.0163V58.9143H47.7304V58.4383C47.6277 58.5736 47.4784 58.6996 47.2824 58.8163C47.0864 58.9283 46.8647 58.9843 46.6174 58.9843C46.342 58.9843 46.0924 58.926 45.8684 58.8093C45.649 58.688 45.474 58.513 45.3434 58.2843C45.2174 58.0556 45.1544 57.7826 45.1544 57.4653C45.1544 57.148 45.2197 56.8726 45.3504 56.6393C45.4857 56.4013 45.6654 56.2193 45.8894 56.0933C46.118 55.9626 46.37 55.8973 46.6454 55.8973C46.8927 55.8973 47.1074 55.951 47.2894 56.0583C47.4714 56.1656 47.6184 56.3056 47.7304 56.4783L47.7794 56.0163H48.3814ZM46.7924 58.4453C47.0304 58.4453 47.2334 58.38 47.4014 58.2493C47.574 58.114 47.6837 57.932 47.7304 57.7033V57.1293C47.6744 56.924 47.5577 56.7583 47.3804 56.6323C47.203 56.5016 47 56.4363 46.7714 56.4363C46.5987 56.4363 46.4377 56.4783 46.2884 56.5623C46.1437 56.6463 46.027 56.7653 45.9384 56.9193C45.8544 57.0686 45.8124 57.239 45.8124 57.4303C45.8124 57.617 45.8567 57.7873 45.9454 57.9413C46.034 58.0953 46.153 58.219 46.3024 58.3123C46.4517 58.401 46.615 58.4453 46.7924 58.4453ZM50.5438 57.5213L50.1658 57.8293V58.9143H49.5148V53.4893H50.1658V57.1503L51.6638 55.9463L52.0628 56.2963L50.9918 57.1573L52.2028 58.9143H51.4398L50.5438 57.5213ZM54.2565 58.4243C54.4992 58.4243 54.7349 58.3403 54.9635 58.1723L55.2645 58.6553C55.1105 58.758 54.9425 58.8396 54.7605 58.9003C54.5832 58.9563 54.4105 58.9843 54.2425 58.9843C53.9205 58.9843 53.6382 58.919 53.3955 58.7883C53.1575 58.653 52.9732 58.4686 52.8425 58.2353C52.7119 58.002 52.6465 57.7383 52.6465 57.4443C52.6465 57.1596 52.7165 56.9006 52.8565 56.6673C53.0012 56.4293 53.1972 56.2426 53.4445 56.1073C53.6919 55.9673 53.9625 55.8973 54.2565 55.8973C54.6345 55.8973 54.9495 56.0093 55.2015 56.2333C55.4582 56.4526 55.6332 56.7606 55.7265 57.1573L53.4305 57.9623C53.5145 58.107 53.6265 58.2213 53.7665 58.3053C53.9112 58.3846 54.0745 58.4243 54.2565 58.4243ZM54.2075 56.4153C53.9415 56.4153 53.7222 56.5086 53.5495 56.6953C53.3769 56.882 53.2905 57.12 53.2905 57.4093C53.2905 57.4793 53.2929 57.533 53.2975 57.5703L54.9845 56.9473C54.9145 56.7886 54.8142 56.6603 54.6835 56.5623C54.5575 56.4643 54.3989 56.4153 54.2075 56.4153ZM61.1021 58.6413C60.9714 58.7486 60.8151 58.8326 60.6331 58.8933C60.4558 58.954 60.2738 58.9843 60.0871 58.9843C59.7744 58.9843 59.4968 58.9213 59.2541 58.7953C59.0161 58.6693 58.8294 58.492 58.6941 58.2633C58.5634 58.03 58.4981 57.7616 58.4981 57.4583C58.4981 57.1596 58.5681 56.896 58.7081 56.6673C58.8481 56.434 59.0348 56.2543 59.2681 56.1283C59.5014 56.0023 59.7534 55.9393 60.0241 55.9393C60.4674 55.9393 60.8338 56.0606 61.1231 56.3033L60.7941 56.7303C60.7008 56.6603 60.5934 56.602 60.4721 56.5553C60.3508 56.504 60.2201 56.4783 60.0801 56.4783C59.9074 56.4783 59.7488 56.5226 59.6041 56.6113C59.4641 56.6953 59.3521 56.812 59.2681 56.9613C59.1888 57.1106 59.1491 57.2763 59.1491 57.4583C59.1491 57.6403 59.1911 57.806 59.2751 57.9553C59.3638 58.1046 59.4828 58.2236 59.6321 58.3123C59.7814 58.401 59.9518 58.4453 60.1431 58.4453C60.3811 58.4453 60.5888 58.3753 60.7661 58.2353L61.1021 58.6413ZM64.9175 56.0163V58.9143H64.2665V58.4383C64.1638 58.5736 64.0145 58.6996 63.8185 58.8163C63.6225 58.9283 63.4008 58.9843 63.1535 58.9843C62.8782 58.9843 62.6285 58.926 62.4045 58.8093C62.1852 58.688 62.0102 58.513 61.8795 58.2843C61.7535 58.0556 61.6905 57.7826 61.6905 57.4653C61.6905 57.148 61.7558 56.8726 61.8865 56.6393C62.0218 56.4013 62.2015 56.2193 62.4255 56.0933C62.6542 55.9626 62.9062 55.8973 63.1815 55.8973C63.4288 55.8973 63.6435 55.951 63.8255 56.0583C64.0075 56.1656 64.1545 56.3056 64.2665 56.4783L64.3155 56.0163H64.9175ZM63.3285 58.4453C63.5665 58.4453 63.7695 58.38 63.9375 58.2493C64.1102 58.114 64.2198 57.932 64.2665 57.7033V57.1293C64.2105 56.924 64.0938 56.7583 63.9165 56.6323C63.7392 56.5016 63.5362 56.4363 63.3075 56.4363C63.1348 56.4363 62.9738 56.4783 62.8245 56.5623C62.6798 56.6463 62.5632 56.7653 62.4745 56.9193C62.3905 57.0686 62.3485 57.239 62.3485 57.4303C62.3485 57.617 62.3928 57.7873 62.4815 57.9413C62.5702 58.0953 62.6892 58.219 62.8385 58.3123C62.9878 58.401 63.1512 58.4453 63.3285 58.4453ZM66.6809 56.7023C66.7556 56.5436 66.8606 56.4036 66.9959 56.2823C67.1359 56.161 67.2829 56.0676 67.4369 56.0023C67.5909 55.937 67.7262 55.902 67.8429 55.8973L67.8149 56.5483C67.6049 56.539 67.4136 56.581 67.2409 56.6743C67.0729 56.7676 66.9399 56.8983 66.8419 57.0663C66.7486 57.2296 66.7019 57.4046 66.7019 57.5913V58.9143H66.0509V56.0163H66.6319L66.6809 56.7023ZM69.9177 58.4243C70.1603 58.4243 70.396 58.3403 70.6247 58.1723L70.9257 58.6553C70.7717 58.758 70.6037 58.8396 70.4217 58.9003C70.2443 58.9563 70.0717 58.9843 69.9037 58.9843C69.5817 58.9843 69.2993 58.919 69.0567 58.7883C68.8187 58.653 68.6343 58.4686 68.5037 58.2353C68.373 58.002 68.3077 57.7383 68.3077 57.4443C68.3077 57.1596 68.3777 56.9006 68.5177 56.6673C68.6623 56.4293 68.8583 56.2426 69.1057 56.1073C69.353 55.9673 69.6237 55.8973 69.9177 55.8973C70.2957 55.8973 70.6107 56.0093 70.8627 56.2333C71.1193 56.4526 71.2943 56.7606 71.3877 57.1573L69.0917 57.9623C69.1757 58.107 69.2877 58.2213 69.4277 58.3053C69.5723 58.3846 69.7357 58.4243 69.9177 58.4243ZM69.8687 56.4153C69.6027 56.4153 69.3833 56.5086 69.2107 56.6953C69.038 56.882 68.9517 57.12 68.9517 57.4093C68.9517 57.4793 68.954 57.533 68.9587 57.5703L70.6457 56.9473C70.5757 56.7886 70.4753 56.6603 70.3447 56.5623C70.2187 56.4643 70.06 56.4153 69.8687 56.4153ZM74.1592 57.4373C74.1592 57.1526 74.2269 56.8936 74.3622 56.6603C74.5022 56.4223 74.6936 56.2356 74.9362 56.1003C75.1836 55.965 75.4612 55.8973 75.7692 55.8973C76.0772 55.8973 76.3502 55.965 76.5882 56.1003C76.8309 56.2356 77.0176 56.42 77.1482 56.6533C77.2836 56.8866 77.3512 57.148 77.3512 57.4373C77.3512 57.7266 77.2836 57.9903 77.1482 58.2283C77.0176 58.4616 76.8309 58.646 76.5882 58.7813C76.3456 58.9166 76.0679 58.9843 75.7552 58.9843C75.4519 58.9843 75.1789 58.9213 74.9362 58.7953C74.6936 58.6646 74.5022 58.4826 74.3622 58.2493C74.2269 58.016 74.1592 57.7453 74.1592 57.4373ZM74.8172 57.4443C74.8172 57.6263 74.8569 57.7943 74.9362 57.9483C75.0202 58.1023 75.1322 58.2236 75.2722 58.3123C75.4169 58.401 75.5756 58.4453 75.7482 58.4453C76.0189 58.4453 76.2429 58.3496 76.4202 58.1583C76.5976 57.967 76.6862 57.729 76.6862 57.4443C76.6862 57.1596 76.5976 56.9216 76.4202 56.7303C76.2429 56.5343 76.0189 56.4363 75.7482 56.4363C75.5709 56.4363 75.4122 56.483 75.2722 56.5763C75.1322 56.665 75.0202 56.7863 74.9362 56.9403C74.8569 57.0943 74.8172 57.2623 74.8172 57.4443ZM78.4637 56.5973H77.9667V56.0093H78.4637V54.7913C78.4637 54.3713 78.5594 54.0493 78.7507 53.8253C78.942 53.6013 79.222 53.4893 79.5907 53.4893C79.6934 53.4893 79.803 53.5056 79.9197 53.5383C80.0364 53.5663 80.139 53.6083 80.2277 53.6643L79.9477 54.1403C79.8777 54.0656 79.7797 54.0283 79.6537 54.0283C79.4764 54.0283 79.341 54.089 79.2477 54.2103C79.159 54.3316 79.1147 54.5276 79.1147 54.7983V56.0093H80.0387V56.5973H79.1147V58.9143H78.4637V56.5973ZM85.8577 56.0163L83.9887 60.3073H83.3447L84.0097 58.8163L82.6657 56.0163H83.4007L84.3387 58.0813L85.2557 56.0163H85.8577ZM86.2178 57.4373C86.2178 57.1526 86.2855 56.8936 86.4208 56.6603C86.5608 56.4223 86.7522 56.2356 86.9948 56.1003C87.2422 55.965 87.5198 55.8973 87.8278 55.8973C88.1358 55.8973 88.4088 55.965 88.6468 56.1003C88.8895 56.2356 89.0762 56.42 89.2068 56.6533C89.3422 56.8866 89.4098 57.148 89.4098 57.4373C89.4098 57.7266 89.3422 57.9903 89.2068 58.2283C89.0762 58.4616 88.8895 58.646 88.6468 58.7813C88.4042 58.9166 88.1265 58.9843 87.8138 58.9843C87.5105 58.9843 87.2375 58.9213 86.9948 58.7953C86.7522 58.6646 86.5608 58.4826 86.4208 58.2493C86.2855 58.016 86.2178 57.7453 86.2178 57.4373ZM86.8758 57.4443C86.8758 57.6263 86.9155 57.7943 86.9948 57.9483C87.0788 58.1023 87.1908 58.2236 87.3308 58.3123C87.4755 58.401 87.6342 58.4453 87.8068 58.4453C88.0775 58.4453 88.3015 58.3496 88.4788 58.1583C88.6562 57.967 88.7448 57.729 88.7448 57.4443C88.7448 57.1596 88.6562 56.9216 88.4788 56.7303C88.3015 56.5343 88.0775 56.4363 87.8068 56.4363C87.6295 56.4363 87.4708 56.483 87.3308 56.5763C87.1908 56.665 87.0788 56.7863 86.9948 56.9403C86.9155 57.0943 86.8758 57.2623 86.8758 57.4443ZM92.9793 56.0163V58.9143H92.3913L92.3493 58.3613C92.2513 58.5573 92.0996 58.7183 91.8943 58.8443C91.689 58.9656 91.4603 59.0263 91.2083 59.0263C90.9423 59.0263 90.723 58.947 90.5503 58.7883C90.3823 58.625 90.2936 58.415 90.2843 58.1583V56.0163H90.9353V57.9273C90.9446 58.0906 90.9913 58.2213 91.0753 58.3193C91.164 58.4126 91.2946 58.4616 91.4673 58.4663C91.626 58.4663 91.7706 58.4196 91.9013 58.3263C92.032 58.2283 92.1346 58.0953 92.2093 57.9273C92.2886 57.7593 92.3283 57.5726 92.3283 57.3673V56.0163H92.9793ZM94.7424 56.7023C94.8171 56.5436 94.9221 56.4036 95.0574 56.2823C95.1974 56.161 95.3444 56.0676 95.4984 56.0023C95.6524 55.937 95.7877 55.902 95.9044 55.8973L95.8764 56.5483C95.6664 56.539 95.4751 56.581 95.3024 56.6743C95.1344 56.7676 95.0014 56.8983 94.9034 57.0663C94.8101 57.2296 94.7634 57.4046 94.7634 57.5913V58.9143H94.1124V56.0163H94.6934L94.7424 56.7023ZM97.5632 58.9773C97.3486 58.9773 97.1432 58.94 96.9472 58.8653C96.7559 58.7906 96.5996 58.681 96.4782 58.5363L96.7582 58.1583C96.8749 58.2703 96.9962 58.3566 97.1222 58.4173C97.2529 58.478 97.3812 58.5083 97.5072 58.5083C97.6612 58.5083 97.7872 58.478 97.8852 58.4173C97.9832 58.3566 98.0322 58.2633 98.0322 58.1373C98.0322 58.0393 98.0019 57.96 97.9412 57.8993C97.8806 57.8386 97.8106 57.7943 97.7312 57.7663C97.6566 57.7383 97.5282 57.6963 97.3462 57.6403C96.8516 57.4816 96.6042 57.1993 96.6042 56.7933C96.6042 56.5506 96.6929 56.343 96.8702 56.1703C97.0522 55.9976 97.3042 55.9113 97.6262 55.9113C97.8316 55.9113 98.0136 55.937 98.1722 55.9883C98.3309 56.0396 98.4779 56.1213 98.6132 56.2333L98.3542 56.6323C98.2796 56.553 98.1839 56.49 98.0672 56.4433C97.9552 56.3966 97.8479 56.371 97.7452 56.3663C97.6146 56.3663 97.5026 56.399 97.4092 56.4643C97.3159 56.525 97.2692 56.609 97.2692 56.7163C97.2692 56.805 97.2996 56.8796 97.3602 56.9403C97.4209 56.9963 97.4839 57.0383 97.5492 57.0663C97.6146 57.0896 97.7429 57.1316 97.9342 57.1923C98.1722 57.2716 98.3566 57.3743 98.4872 57.5003C98.6226 57.6263 98.6902 57.7966 98.6902 58.0113C98.6902 58.2913 98.5922 58.5223 98.3962 58.7043C98.2002 58.8863 97.9226 58.9773 97.5632 58.9773ZM100.96 58.4243C101.202 58.4243 101.438 58.3403 101.667 58.1723L101.968 58.6553C101.814 58.758 101.646 58.8396 101.464 58.9003C101.286 58.9563 101.114 58.9843 100.946 58.9843C100.624 58.9843 100.341 58.919 100.099 58.7883C99.8607 58.653 99.6763 58.4686 99.5457 58.2353C99.415 58.002 99.3497 57.7383 99.3497 57.4443C99.3497 57.1596 99.4197 56.9006 99.5597 56.6673C99.7043 56.4293 99.9003 56.2426 100.148 56.1073C100.395 55.9673 100.666 55.8973 100.96 55.8973C101.338 55.8973 101.653 56.0093 101.905 56.2333C102.161 56.4526 102.336 56.7606 102.43 57.1573L100.134 57.9623C100.218 58.107 100.33 58.2213 100.47 58.3053C100.614 58.3846 100.778 58.4243 100.96 58.4243ZM100.911 56.4153C100.645 56.4153 100.425 56.5086 100.253 56.6953C100.08 56.882 99.9937 57.12 99.9937 57.4093C99.9937 57.4793 99.996 57.533 100.001 57.5703L101.688 56.9473C101.618 56.7886 101.517 56.6603 101.387 56.5623C101.261 56.4643 101.102 56.4153 100.911 56.4153ZM103.889 53.4893V58.9143H103.238V53.4893H103.889ZM105.261 56.5973H104.764V56.0093H105.261V54.7913C105.261 54.3713 105.356 54.0493 105.548 53.8253C105.739 53.6013 106.019 53.4893 106.388 53.4893C106.49 53.4893 106.6 53.5056 106.717 53.5383C106.833 53.5663 106.936 53.6083 107.025 53.6643L106.745 54.1403C106.675 54.0656 106.577 54.0283 106.451 54.0283C106.273 54.0283 106.138 54.089 106.045 54.2103C105.956 54.3316 105.912 54.5276 105.912 54.7983V56.0093H106.836V56.5973H105.912V58.9143H105.261V56.5973Z" fill="#BBBBBB"/>
</svg>
