<svg width="146" height="57" viewBox="0 0 146 57" fill="none" xmlns="http://www.w3.org/2000/svg">
<path d="M51.4615 42.5701C51.5455 42.572 51.6295 42.5637 51.7115 42.5452C51.768 42.5324 51.8217 42.5088 51.8695 42.4761C51.9062 42.4514 51.935 42.4169 51.9525 42.3762C51.9682 42.3337 51.9761 42.2886 51.9755 42.2432C51.975 42.1911 51.9613 42.1401 51.9355 42.0947C51.9098 42.0494 51.873 42.0113 51.8285 41.9842C51.6708 41.8876 51.501 41.8128 51.3235 41.7613C51.2195 41.7246 51.1155 41.6826 51.0115 41.6353C50.91 41.5895 50.8157 41.5292 50.7315 41.4563C50.6487 41.3826 50.5808 41.2935 50.5315 41.1941C50.4763 41.0774 50.4496 40.9492 50.4535 40.8201C50.451 40.6822 50.4794 40.5457 50.5365 40.4202C50.5908 40.3038 50.6708 40.2012 50.7705 40.1201C50.8794 40.0337 51.0041 39.9692 51.1375 39.9302C51.2956 39.8838 51.4597 39.8613 51.6245 39.8633C51.9517 39.8563 52.2753 39.9319 52.5655 40.0833L52.3585 40.6482C52.262 40.5994 52.1617 40.5585 52.0585 40.5261C51.9311 40.4883 51.7985 40.4704 51.6655 40.4732C51.5381 40.4636 51.4104 40.4881 51.2955 40.5442C51.2588 40.567 51.2289 40.5993 51.209 40.6377C51.1892 40.6761 51.18 40.7191 51.1825 40.7622C51.181 40.8144 51.1957 40.8657 51.2245 40.9092C51.2559 40.9527 51.2956 40.9893 51.3415 41.0171C51.3966 41.0515 51.4549 41.0808 51.5155 41.1043C51.5822 41.1303 51.6549 41.1571 51.7335 41.1851C51.8989 41.2464 52.0429 41.3069 52.1655 41.3662C52.2781 41.419 52.3814 41.4896 52.4715 41.5752C52.5518 41.654 52.6137 41.7497 52.6525 41.8552C52.6953 41.9807 52.7156 42.1126 52.7125 42.2451C52.7192 42.3768 52.6944 42.5083 52.6401 42.6284C52.5859 42.7486 52.5037 42.8542 52.4005 42.9363C52.1226 43.1198 51.7917 43.2058 51.4595 43.1812C51.3321 43.1823 51.2047 43.174 51.0785 43.1563C50.9773 43.1419 50.8771 43.1212 50.7785 43.0943C50.7018 43.0735 50.6266 43.0473 50.5535 43.0161C50.4996 42.9928 50.4468 42.9669 50.3955 42.9383L50.5955 42.3682C50.861 42.5086 51.1583 42.5775 51.4585 42.5681L51.4615 42.5701Z" fill="#B9B9B9"/>
<path d="M58.6975 42.5012V43.1162H56.5715V39.9343H57.2875V42.5012H58.6975Z" fill="#B9B9B9"/>
<path d="M65.4925 41.5233C65.4972 41.7685 65.4558 42.0124 65.3705 42.2423C65.2975 42.4369 65.184 42.6138 65.0375 42.7613C64.8959 42.9015 64.7252 43.009 64.5375 43.0763C64.3363 43.1476 64.1241 43.1831 63.9106 43.1812C63.701 43.1827 63.4928 43.1472 63.2956 43.0763C63.1068 43.0084 62.9346 42.9011 62.7906 42.7613C62.6415 42.6146 62.5255 42.4376 62.4505 42.2423C62.3638 42.0127 62.3218 41.7687 62.3266 41.5233C62.3215 41.2775 62.365 41.0332 62.4545 40.8043C62.533 40.6085 62.6512 40.4312 62.8016 40.2833C62.9442 40.1438 63.1145 40.0356 63.3016 39.9662C63.4937 39.8956 63.6969 39.8598 63.9016 39.8602C64.1112 39.859 64.3194 39.8948 64.5165 39.9662C64.7057 40.0343 64.8779 40.1426 65.0215 40.2833C65.1702 40.4312 65.286 40.6087 65.3615 40.8043C65.4506 41.0334 65.495 41.2775 65.4925 41.5233ZM63.0635 41.5233C63.0616 41.666 63.0808 41.8081 63.1205 41.9452C63.1544 42.0627 63.2105 42.1729 63.2856 42.2694C63.356 42.3587 63.4464 42.4303 63.5495 42.4784C63.6622 42.5271 63.7838 42.5521 63.9066 42.5521C64.0293 42.5521 64.1508 42.5271 64.2635 42.4784C64.3674 42.4307 64.4587 42.3591 64.5296 42.2694C64.6046 42.1728 64.6606 42.0626 64.6945 41.9452C64.7342 41.8081 64.7534 41.666 64.7515 41.5233C64.7533 41.3796 64.7341 41.2364 64.6945 41.0982C64.6607 40.9801 64.6048 40.8695 64.5296 40.7723C64.4586 40.6827 64.3673 40.6112 64.2635 40.5633C64.1516 40.5131 64.0301 40.4882 63.9075 40.4903C63.784 40.4881 63.6615 40.514 63.5495 40.5663C63.4467 40.6157 63.3565 40.6878 63.2856 40.7772C63.2103 40.8743 63.1542 40.9852 63.1205 41.1034C63.0824 41.24 63.0646 41.3814 63.0676 41.5233H63.0635Z" fill="#B9B9B9"/>
<path d="M70.9475 40.4852C70.8137 40.4728 70.6788 40.4914 70.5534 40.5396C70.428 40.5879 70.3155 40.6644 70.2245 40.7633C70.065 40.9835 69.9862 41.2519 70.0014 41.5233C69.9996 41.6668 70.0182 41.81 70.0565 41.9483C70.0892 42.0675 70.1454 42.1789 70.2215 42.2762C70.2951 42.3682 70.3892 42.4416 70.4964 42.4903C70.6182 42.5428 70.75 42.5683 70.8825 42.5653C70.9615 42.5653 71.0305 42.5653 71.0825 42.5653C71.1325 42.563 71.1824 42.5569 71.2315 42.5472V41.4322H71.9475V43.0072C71.8129 43.054 71.6748 43.0902 71.5345 43.1153C71.3036 43.157 71.0691 43.1759 70.8344 43.1722C70.6129 43.1752 70.3928 43.138 70.1845 43.0624C69.9962 42.9931 69.8255 42.8831 69.6845 42.7403C69.5422 42.5922 69.4333 42.4152 69.3654 42.2213C69.2871 41.9964 69.2489 41.7595 69.2525 41.5213C69.248 41.2799 69.29 41.0398 69.3764 40.8143C69.4526 40.619 69.5685 40.4417 69.7165 40.2933C69.8607 40.1506 70.0334 40.0402 70.2235 39.9693C70.4224 39.8952 70.6331 39.8578 70.8454 39.8592C71.0886 39.858 71.3308 39.8917 71.5644 39.9593C71.6384 39.9802 71.7107 40.0068 71.7805 40.0392C71.8365 40.0662 71.8805 40.0884 71.9015 40.1034L71.6944 40.6773C71.5867 40.6215 71.4739 40.5763 71.3575 40.5423C71.2243 40.5037 71.0862 40.4844 70.9475 40.4852Z" fill="#B9B9B9"/>
<path d="M78.0585 43.1172C78.0235 43.0062 77.9845 42.8921 77.9445 42.7761L77.8226 42.4282H76.5795L76.4585 42.7774C76.4185 42.894 76.3808 43.0072 76.3455 43.1172H75.6015C75.7208 42.7739 75.8346 42.4569 75.9426 42.1663C76.0506 41.8756 76.1558 41.6016 76.2585 41.3442C76.3611 41.0869 76.4612 40.8427 76.5585 40.6113C76.6559 40.38 76.7596 40.1543 76.8696 39.9343H77.5485C77.6532 40.155 77.7561 40.3807 77.8575 40.6113C77.9588 40.842 78.0611 41.0862 78.1645 41.3442C78.2678 41.6009 78.3732 41.8749 78.4805 42.1663C78.5879 42.4576 78.7019 42.7745 78.8226 43.1172H78.0585ZM77.1985 40.6563C77.1825 40.7029 77.1591 40.7656 77.1285 40.8442L77.0235 41.1201C76.9842 41.2248 76.9402 41.3395 76.8915 41.4641C76.8429 41.5888 76.7935 41.7205 76.7435 41.8591H77.6535C77.6048 41.7211 77.5575 41.5879 77.5115 41.4592C77.4655 41.3306 77.4222 41.2156 77.3815 41.1143L77.2735 40.8391C77.2415 40.7611 77.2175 40.7013 77.2005 40.6563H77.1985Z" fill="#B9B9B9"/>
<path d="M84.6706 43.1172C84.4659 42.7525 84.2439 42.393 84.0045 42.0383C83.7699 41.6891 83.5154 41.3534 83.2425 41.0332V43.1182H82.5355V39.9363H83.1186C83.2192 40.0376 83.3309 40.1617 83.4535 40.3084C83.5762 40.455 83.7009 40.612 83.8275 40.7793C83.9542 40.946 84.0806 41.119 84.2066 41.2983C84.3326 41.4777 84.4505 41.6499 84.5605 41.8152V39.9373H85.2725V43.1191L84.6706 43.1172Z" fill="#B9B9B9"/>
<path d="M91.9704 40.4852C91.8367 40.4728 91.7019 40.4914 91.5765 40.5396C91.4511 40.5879 91.3385 40.6644 91.2475 40.7633C91.0882 40.9835 91.0094 41.2519 91.0245 41.5233C91.0229 41.6668 91.0413 41.8099 91.0794 41.9483C91.1126 42.0676 91.169 42.1789 91.2455 42.2762C91.319 42.3682 91.4133 42.4416 91.5205 42.4903C91.6419 42.5427 91.7733 42.5682 91.9055 42.5653C91.9855 42.5653 92.0534 42.5653 92.1054 42.5653C92.1555 42.563 92.2053 42.5569 92.2545 42.5472V41.4322H92.9704V43.0072C92.8358 43.054 92.6978 43.0903 92.5575 43.1153C92.3265 43.1569 92.0921 43.1759 91.8575 43.1722C91.636 43.1752 91.4157 43.1381 91.2075 43.0624C91.0192 42.9931 90.8484 42.8832 90.7075 42.7403C90.5653 42.5921 90.4566 42.4151 90.3885 42.2213C90.3106 41.9963 90.2726 41.7594 90.2765 41.5213C90.2719 41.2799 90.314 41.0398 90.4005 40.8143C90.4767 40.6191 90.5924 40.4417 90.7405 40.2933C90.8846 40.1506 91.0575 40.0402 91.2475 39.9693C91.4465 39.8952 91.6572 39.8579 91.8695 39.8592C92.1127 39.8579 92.3548 39.8917 92.5885 39.9593C92.6625 39.9801 92.7347 40.0066 92.8044 40.0392C92.8614 40.0662 92.9045 40.0884 92.9265 40.1034L92.7195 40.6773C92.6114 40.6216 92.4982 40.5764 92.3814 40.5423C92.2479 40.5036 92.1095 40.4843 91.9704 40.4852Z" fill="#B9B9B9"/>
<path d="M99.9775 41.5233C99.9822 41.7685 99.9409 42.0124 99.8555 42.2423C99.7824 42.4368 99.6689 42.6138 99.5225 42.7613C99.3808 42.9015 99.2102 43.009 99.0225 43.0763C98.8213 43.1476 98.6091 43.1831 98.3956 43.1812C98.186 43.1827 97.9778 43.1471 97.7806 43.0763C97.5918 43.0083 97.4197 42.901 97.2756 42.7613C97.1265 42.6146 97.0105 42.4376 96.9355 42.2423C96.8488 42.0127 96.8068 41.7687 96.8116 41.5233C96.8065 41.2775 96.8499 41.0332 96.9395 40.8043C97.0181 40.6086 97.1363 40.4312 97.2866 40.2833C97.4307 40.1433 97.6028 40.0351 97.7916 39.9662C97.9837 39.8956 98.1869 39.8598 98.3916 39.8602C98.6012 39.859 98.8094 39.8948 99.0065 39.9662C99.1957 40.0343 99.3679 40.1426 99.5116 40.2833C99.6603 40.4311 99.7761 40.6086 99.8515 40.8043C99.939 41.0337 99.9817 41.2778 99.9775 41.5233ZM97.5485 41.5233C97.5466 41.666 97.5658 41.8081 97.6055 41.9452C97.6394 42.0627 97.6955 42.1729 97.7706 42.2694C97.8411 42.3587 97.9314 42.4303 98.0345 42.4784C98.1472 42.5271 98.2688 42.5521 98.3916 42.5521C98.5143 42.5521 98.6359 42.5271 98.7486 42.4784C98.8525 42.4306 98.9436 42.359 99.0146 42.2694C99.0897 42.1729 99.1457 42.0627 99.1795 41.9452C99.2193 41.8081 99.2385 41.666 99.2365 41.5233C99.2384 41.3796 99.2192 41.2363 99.1795 41.0982C99.1458 40.98 99.0899 40.8695 99.0146 40.7723C98.9435 40.6828 98.8524 40.6112 98.7486 40.5633C98.6368 40.5131 98.5151 40.4882 98.3925 40.4903C98.269 40.4881 98.1465 40.514 98.0345 40.5663C97.9316 40.6157 97.8415 40.6878 97.7706 40.7772C97.6953 40.8743 97.6392 40.9852 97.6055 41.1034C97.5661 41.2398 97.5469 41.3813 97.5485 41.5233Z" fill="#B9B9B9"/>
<path d="M103.88 43.1172V39.9353H106.03V40.5352H104.598V41.1602H105.87V41.7473H104.598V42.5142H106.135V43.1143L103.88 43.1172Z" fill="#B9B9B9"/>
<path d="M110.835 42.5701C110.92 42.572 111.003 42.5637 111.085 42.5452C111.142 42.5326 111.196 42.5091 111.245 42.4761C111.281 42.4514 111.309 42.4168 111.326 42.3762C111.342 42.3337 111.35 42.2886 111.35 42.2432C111.349 42.1911 111.335 42.1401 111.309 42.0948C111.284 42.0494 111.247 42.0113 111.203 41.9842C111.045 41.8877 110.875 41.8128 110.698 41.7613C110.594 41.7246 110.49 41.6826 110.386 41.6353C110.284 41.5895 110.19 41.5293 110.106 41.4563C110.023 41.3826 109.955 41.2935 109.906 41.1941C109.851 41.0773 109.824 40.9492 109.828 40.8201C109.825 40.6822 109.853 40.5456 109.911 40.4202C109.965 40.3038 110.045 40.2012 110.145 40.1201C110.254 40.0336 110.379 39.9691 110.512 39.9302C110.67 39.8838 110.834 39.8613 110.998 39.8633C111.326 39.8562 111.649 39.9319 111.939 40.0833L111.732 40.6482C111.636 40.5994 111.536 40.5585 111.433 40.5262C111.305 40.4882 111.172 40.4704 111.039 40.4732C110.912 40.4637 110.784 40.4883 110.669 40.5442C110.633 40.5672 110.603 40.5996 110.584 40.638C110.564 40.6763 110.555 40.7192 110.558 40.7622C110.556 40.8143 110.57 40.8656 110.599 40.9092C110.63 40.9527 110.67 40.9893 110.715 41.0171C110.771 41.0515 110.829 41.0808 110.89 41.1043C110.956 41.1303 111.029 41.1571 111.109 41.1851C111.274 41.2464 111.418 41.3069 111.541 41.3662C111.653 41.4191 111.756 41.4897 111.845 41.5752C111.926 41.654 111.988 41.7497 112.027 41.8553C112.069 41.9807 112.09 42.1126 112.086 42.2451C112.093 42.3768 112.068 42.5083 112.014 42.6284C111.96 42.7486 111.878 42.8542 111.774 42.9363C111.496 43.1197 111.166 43.2057 110.834 43.1812C110.706 43.1823 110.579 43.174 110.453 43.1563C110.351 43.1419 110.251 43.1212 110.153 43.0943C110.019 43.058 109.89 43.0057 109.77 42.9383L109.97 42.3682C110.081 42.4271 110.199 42.474 110.32 42.5081C110.488 42.5533 110.662 42.5742 110.835 42.5701Z" fill="#B9B9B9"/>
<path d="M118.966 39.9353H119.684V43.1172H118.966V41.7673H117.767V43.1172H117.051V39.9353H117.767V41.1524H118.966V39.9353Z" fill="#B9B9B9"/>
<path d="M123.72 43.1172V39.9353H125.868V40.5352H124.435V41.1602H125.707V41.7473H124.435V42.5142H125.975V43.1143L123.72 43.1172Z" fill="#B9B9B9"/>
<path d="M130.743 39.8981C131.126 39.8741 131.509 39.9628 131.842 40.1532C131.969 40.2406 132.071 40.3595 132.138 40.4984C132.205 40.6373 132.234 40.7914 132.223 40.9452C132.232 41.1384 132.178 41.3291 132.07 41.4892C131.955 41.6374 131.802 41.7511 131.627 41.8173C131.691 41.8973 131.758 41.9882 131.826 42.0902C131.895 42.1922 131.966 42.3003 132.035 42.4113C132.104 42.5223 132.172 42.6392 132.236 42.7602C132.3 42.8812 132.36 43.0001 132.415 43.1161H131.614L131.436 42.7992C131.376 42.6922 131.316 42.5882 131.253 42.4872C131.19 42.3862 131.128 42.2871 131.066 42.2001C131.004 42.1131 130.943 42.0282 130.881 41.9542H130.527V43.1161H129.811V39.9801C129.97 39.9492 130.132 39.9279 130.295 39.9162C130.463 39.9042 130.612 39.8981 130.743 39.8981ZM130.785 40.5092C130.733 40.5092 130.684 40.5092 130.644 40.5092L130.528 40.5182V41.3812H130.728C130.925 41.3954 131.124 41.361 131.306 41.2811C131.364 41.2459 131.411 41.195 131.442 41.1342C131.473 41.0734 131.486 41.0051 131.481 40.9372C131.486 40.8705 131.472 40.8038 131.441 40.7448C131.409 40.6858 131.362 40.637 131.304 40.6041C131.141 40.5302 130.963 40.4983 130.785 40.5092Z" fill="#B9B9B9"/>
<path d="M136.18 43.1172V39.9353H138.328V40.5352H136.896V41.1602H138.168V41.7473H136.896V42.5142H138.433V43.1143L136.18 43.1172Z" fill="#B9B9B9"/>
<path d="M43.6606 34.2432V24.3512H50.2856V26.2212H45.8856V28.2912H49.7976V30.1613H45.8856V34.2442L43.6606 34.2432Z" fill="#B9B9B9"/>
<path d="M54.7546 24.2353C55.9448 24.1618 57.1305 24.4371 58.1667 25.0272C58.5615 25.2991 58.8784 25.6694 59.0862 26.1013C59.2941 26.5333 59.3856 27.0121 59.3517 27.4903C59.3792 28.0911 59.2115 28.6847 58.8736 29.1823C58.5176 29.6435 58.0406 29.9969 57.4956 30.2033C57.6956 30.4506 57.905 30.7336 58.1236 31.0523C58.3423 31.3709 58.559 31.7043 58.7737 32.0523C58.9877 32.3996 59.1946 32.7612 59.3946 33.1372C59.5946 33.5132 59.7803 33.8823 59.9516 34.2443H57.4616L56.9096 33.2593C56.723 32.926 56.532 32.6022 56.3366 32.2882C56.1413 31.9742 55.948 31.6769 55.7566 31.3963C55.5653 31.1156 55.3743 30.8609 55.1836 30.6322H54.0837V34.2443H51.8567V24.4922C52.3542 24.3955 52.8571 24.3287 53.3626 24.2923C53.8813 24.2543 54.3453 24.2353 54.7546 24.2353ZM54.8827 26.1353C54.7207 26.1353 54.5753 26.1399 54.4466 26.1492L54.0826 26.1782V28.8603H54.7106C55.3272 28.9035 55.9451 28.7958 56.5107 28.5463C56.692 28.4362 56.8389 28.2774 56.9347 28.0882C57.0305 27.8989 57.0713 27.6866 57.0526 27.4752C57.0691 27.2683 57.026 27.0609 56.9286 26.8776C56.8311 26.6942 56.6834 26.5424 56.5027 26.4402C55.9959 26.2068 55.4396 26.1028 54.8827 26.1353Z" fill="#B9B9B9"/>
<path d="M61.3796 34.2432V24.3512H68.0616V26.2212H63.6066V28.1632H67.5616V29.9912H63.6066V32.3753H68.3896V34.2462L61.3796 34.2432Z" fill="#B9B9B9"/>
<path d="M70.0316 34.2432V24.3512H76.7136V26.2212H72.2587V28.1632H76.2136V29.9912H72.2587V32.3753H77.0416V34.2462L70.0316 34.2432Z" fill="#B9B9B9"/>
<path d="M87.3506 29.2892C87.367 30.0557 87.231 30.8178 86.9506 31.5313C86.7035 32.1422 86.3144 32.6855 85.8156 33.1162C85.2914 33.5532 84.6807 33.8742 84.0236 34.0583C83.2529 34.2767 82.4546 34.3824 81.6536 34.3722C81.2536 34.3722 80.7869 34.3556 80.2536 34.3223C79.7257 34.2898 79.2009 34.2206 78.6827 34.1153V24.4783C79.2135 24.3811 79.7498 24.3166 80.2886 24.2853C80.8453 24.252 81.3237 24.2353 81.7237 24.2353C82.5017 24.2266 83.2772 24.3228 84.0296 24.5213C84.6795 24.6914 85.2858 24.9982 85.8077 25.4213C86.3116 25.8432 86.7038 26.3827 86.9496 26.9922C87.2333 27.724 87.3696 28.5046 87.3506 29.2892ZM80.9117 32.4302C81.0163 32.4395 81.1377 32.4465 81.2757 32.4512C81.4137 32.4562 81.5756 32.4583 81.7686 32.4583C82.2171 32.4952 82.6685 32.4394 83.0946 32.2946C83.5207 32.1497 83.9125 31.9188 84.2456 31.6162C84.8117 30.9778 85.1019 30.1411 85.0527 29.2892C85.1155 28.8552 85.0753 28.4125 84.9352 27.997C84.7951 27.5814 84.5591 27.2047 84.2463 26.8974C83.9335 26.59 83.5528 26.3607 83.1348 26.2279C82.7169 26.0952 82.2734 26.0627 81.8406 26.1332C81.688 26.1332 81.531 26.1356 81.3697 26.1403C81.2168 26.1443 81.0642 26.1563 80.9126 26.1763L80.9117 32.4302Z" fill="#B9B9B9"/>
<path d="M98.6295 29.2882C98.6445 30.0503 98.5163 30.8084 98.2516 31.5232C98.0237 32.1276 97.671 32.6772 97.2166 33.1362C96.7735 33.5728 96.2399 33.9067 95.6536 34.1142C95.0281 34.3367 94.3684 34.4477 93.7046 34.4422C93.0526 34.4465 92.405 34.3354 91.7916 34.1142C91.2049 33.9032 90.6697 33.5698 90.2216 33.1362C89.7586 32.6798 89.3982 32.1299 89.1646 31.5232C88.8952 30.8095 88.7645 30.0509 88.7796 29.2882C88.7645 28.5245 88.9004 27.7652 89.1796 27.0542C89.4234 26.4457 89.7905 25.8941 90.2576 25.4342C90.7057 24.9989 91.2407 24.6633 91.8275 24.4492C92.4291 24.2294 93.0651 24.1183 93.7056 24.1212C94.3576 24.1171 95.0051 24.2282 95.6185 24.4492C96.2065 24.6611 96.742 24.997 97.1886 25.4342C97.6507 25.8941 98.0108 26.446 98.2456 27.0542C98.5147 27.7676 98.6449 28.5259 98.6295 29.2882ZM91.0765 29.2882C91.0707 29.7326 91.1306 30.1754 91.2545 30.6022C91.3604 30.9674 91.5348 31.3093 91.7686 31.6092C91.9879 31.8868 92.2691 32.1093 92.5896 32.2591C92.9403 32.4099 93.3179 32.4877 93.6996 32.4877C94.0813 32.4877 94.4589 32.4099 94.8096 32.2591C95.1329 32.1106 95.4166 31.888 95.6376 31.6092C95.8712 31.3092 96.0457 30.9674 96.1516 30.6022C96.2759 30.1754 96.3361 29.7326 96.3306 29.2882C96.3358 28.8415 96.2755 28.3964 96.1516 27.9671C96.0465 27.5995 95.872 27.2554 95.6376 26.9532C95.4165 26.6745 95.1328 26.4518 94.8096 26.3032C94.4618 26.1466 94.0839 26.0684 93.7025 26.0742C93.3181 26.067 92.9371 26.1477 92.5886 26.3102C92.2688 26.4643 91.988 26.6889 91.7676 26.9671C91.533 27.2692 91.3585 27.6134 91.2536 27.9812C91.1309 28.4058 91.0713 28.8462 91.0765 29.2882Z" fill="#B9B9B9"/>
<path d="M103.112 24.3512C103.284 24.6652 103.482 25.0532 103.706 25.5152C103.93 25.9772 104.163 26.4772 104.406 27.0152C104.649 27.5532 104.89 28.1029 105.129 28.6642L105.802 30.2492L106.475 28.6642C106.713 28.1029 106.954 27.5532 107.198 27.0152C107.441 26.4772 107.674 25.9772 107.898 25.5152C108.122 25.0532 108.32 24.6652 108.492 24.3512H110.52C110.614 25.0079 110.702 25.7433 110.784 26.5573C110.865 27.3713 110.936 28.2182 110.998 29.0982C111.06 29.9788 111.117 30.8616 111.169 31.7462C111.221 32.6309 111.266 33.4642 111.304 34.2462H109.134C109.105 33.2849 109.067 32.2379 109.02 31.1052C108.972 29.9726 108.901 28.8302 108.806 27.6782C108.634 28.0782 108.443 28.5209 108.233 29.0062C108.023 29.4916 107.815 29.9768 107.61 30.4622C107.404 30.9475 107.206 31.4116 107.016 31.8543C106.825 32.2969 106.663 32.6752 106.529 32.9892H104.973C104.839 32.6752 104.677 32.2969 104.486 31.8543C104.294 31.4116 104.096 30.9475 103.892 30.4622C103.686 29.9768 103.479 29.4916 103.269 29.0062C103.059 28.5209 102.868 28.0782 102.696 27.6782C102.6 28.8296 102.529 29.9719 102.482 31.1052C102.434 32.2386 102.396 33.2856 102.368 34.2462H100.198C100.236 33.4656 100.281 32.6322 100.334 31.7462C100.386 30.8602 100.443 29.9775 100.505 29.0982C100.567 28.2182 100.638 27.3713 100.719 26.5573C100.799 25.7433 100.887 25.0079 100.983 24.3512H103.112Z" fill="#B9B9B9"/>
<path d="M116.591 34.3721C116.048 34.3721 115.508 34.3555 114.97 34.3222C114.406 34.2852 113.845 34.2067 113.293 34.0872V24.4921C113.789 24.4013 114.29 24.3369 114.793 24.2991C115.335 24.2565 115.84 24.2352 116.306 24.2352C116.887 24.2315 117.467 24.277 118.041 24.3712C118.519 24.4444 118.98 24.6015 119.404 24.8351C119.771 25.0411 120.078 25.3389 120.296 25.6992C120.521 26.1019 120.632 26.5588 120.617 27.0202C120.617 27.4068 120.51 27.786 120.309 28.1159C120.107 28.4459 119.819 28.7138 119.475 28.8902C120.004 29.0515 120.46 29.3956 120.76 29.8611C120.992 30.2853 121.11 30.7626 121.103 31.2462C121.13 31.7011 121.04 32.1554 120.841 32.5655C120.642 32.9756 120.342 33.3277 119.968 33.5882C118.945 34.1789 117.769 34.4518 116.591 34.3721ZM115.463 28.2332H116.548C117.052 28.2697 117.557 28.1789 118.018 27.9692C118.163 27.8823 118.281 27.7569 118.359 27.6069C118.438 27.4568 118.473 27.288 118.461 27.1192C118.475 26.9496 118.439 26.7794 118.358 26.6298C118.277 26.4802 118.154 26.3577 118.004 26.2772C117.582 26.0921 117.122 26.0088 116.662 26.0341C116.471 26.0341 116.266 26.0365 116.048 26.0412C115.829 26.0459 115.634 26.0579 115.463 26.0772V28.2332ZM115.463 29.9332V32.4892C115.625 32.5085 115.801 32.5228 115.991 32.5322C116.181 32.5415 116.39 32.5462 116.619 32.5462C117.171 32.5677 117.721 32.4705 118.232 32.2612C118.431 32.1701 118.597 32.0196 118.707 31.8303C118.817 31.641 118.865 31.4222 118.846 31.2042C118.861 31.0092 118.821 30.8139 118.73 30.6408C118.639 30.4677 118.501 30.324 118.332 30.2261C117.874 30.006 117.368 29.9052 116.861 29.9332H115.463Z" fill="#B9B9B9"/>
<path d="M122.887 24.3512H125.114V34.2462H122.887V24.3512Z" fill="#B9B9B9"/>
<path d="M130.297 24.2352C131.487 24.1616 132.673 24.4368 133.71 25.0272C134.104 25.299 134.422 25.6693 134.629 26.1013C134.837 26.5333 134.929 27.012 134.895 27.4902C134.922 28.091 134.755 28.6847 134.417 29.1822C134.061 29.6434 133.583 29.9968 133.039 30.2032C133.239 30.4505 133.448 30.7335 133.667 31.0522C133.885 31.3709 134.102 31.7042 134.317 32.0522C134.531 32.3995 134.738 32.7611 134.938 33.1371C135.138 33.5131 135.323 33.8822 135.495 34.2442H133.005L132.453 33.2592C132.267 32.9259 132.076 32.6021 131.88 32.2881C131.684 31.9741 131.49 31.6768 131.299 31.3962C131.108 31.1155 130.917 30.8608 130.726 30.6321H129.626V34.2442H127.398V24.4921C127.895 24.3954 128.399 24.3286 128.905 24.2922C129.423 24.2542 129.887 24.2352 130.297 24.2352ZM130.426 26.1352C130.264 26.1352 130.119 26.1398 129.99 26.1491L129.626 26.1782V28.8602H130.254C130.87 28.9037 131.488 28.796 132.054 28.5462C132.235 28.4362 132.382 28.2776 132.478 28.0883C132.574 27.899 132.615 27.6866 132.597 27.4752C132.613 27.2682 132.57 27.0609 132.473 26.8775C132.375 26.6941 132.227 26.5423 132.047 26.4401C131.54 26.2066 130.983 26.1026 130.426 26.1352Z" fill="#B9B9B9"/>
<path d="M145.589 29.2892C145.605 30.0557 145.469 30.8178 145.189 31.5313C144.942 32.1422 144.553 32.6855 144.054 33.1162C143.53 33.5533 142.919 33.8743 142.262 34.0583C141.491 34.2767 140.693 34.3825 139.892 34.3722C139.492 34.3722 139.025 34.3556 138.492 34.3223C137.964 34.2897 137.44 34.2205 136.922 34.1153V24.4783C137.453 24.3811 137.989 24.3166 138.528 24.2853C139.084 24.252 139.563 24.2353 139.963 24.2353C140.741 24.2266 141.516 24.3228 142.269 24.5213C142.919 24.6914 143.525 24.9982 144.047 25.4213C144.551 25.8432 144.943 26.3827 145.189 26.9922C145.472 27.724 145.608 28.5047 145.589 29.2892ZM139.15 32.4302C139.254 32.4395 139.375 32.4465 139.514 32.4512C139.651 32.4562 139.814 32.4583 140.006 32.4583C140.454 32.4952 140.905 32.4394 141.332 32.2946C141.758 32.1497 142.15 31.9188 142.483 31.6162C143.049 30.9779 143.339 30.1411 143.29 29.2892C143.352 28.8552 143.312 28.4125 143.172 27.997C143.032 27.5814 142.796 27.2047 142.483 26.8974C142.17 26.59 141.79 26.3607 141.372 26.2279C140.954 26.0952 140.51 26.0627 140.078 26.1332C139.925 26.1332 139.768 26.1356 139.607 26.1403C139.454 26.1442 139.301 26.1562 139.15 26.1763V32.4302Z" fill="#B9B9B9"/>
<path d="M46.0966 18.842L41.7767 16.266C41.1202 14.7558 40.1906 13.3797 39.0346 12.207L38.9267 12.086C36.6527 9.544 34.1267 8.35295 31.4167 8.54095C27.9967 8.77995 24.5677 11.241 21.4697 15.67C20.8177 15.404 20.1627 15.148 19.5097 14.896C14.2807 12.865 9.3416 10.947 6.4936 3.17999L5.32771 0L4.9206 3.36298C4.53665 6.2989 4.43961 9.26522 4.63069 12.22C3.49147 10.8716 2.56726 9.35539 1.8907 7.72498L0.697704 4.94098L0.334667 7.948C-1.78033 25.441 6.53468 29.214 13.8707 32.543L13.8836 32.549C13.142 35.9351 12.6341 39.3682 12.3636 42.824C12.1786 44.59 11.9637 46.591 11.7037 48.446C11.3507 48.503 11.0037 48.555 10.6667 48.608C7.7767 49.051 5.68968 49.37 5.09968 50.777C4.61268 51.937 5.50663 53.177 5.79963 53.582C6.70863 54.843 8.04363 56.433 9.52363 56.433C9.7026 56.433 9.88082 56.4094 10.0537 56.363C11.6937 55.926 12.5236 53.642 13.1376 49.857C14.4904 49.6291 15.8267 49.312 17.1376 48.908C28.7876 45.208 31.0117 37.05 32.9747 29.85C34.3507 24.803 35.5586 20.376 39.8426 18.301C41.0746 17.831 46.0966 18.842 46.0966 18.842ZM9.63765 54.79C9.25365 54.89 8.38565 54.381 7.12165 52.629C6.49965 51.767 6.57961 51.458 6.60261 51.405C6.83961 50.84 9.10262 50.4939 10.9146 50.2159L11.4387 50.1349C11.0027 52.6369 10.4316 54.578 9.63765 54.79ZM1.6977 10.929C2.56675 12.3959 3.66104 13.7171 4.94062 14.844C6.35462 23.552 11.2096 27.306 15.6336 30.719C16.5936 31.46 17.5247 32.179 18.3907 32.925C17.1547 32.244 15.8446 31.649 14.5456 31.059C7.8126 28.005 0.863704 24.853 1.6977 10.929ZM16.6446 47.358C15.5765 47.6891 14.4895 47.9562 13.3896 48.158C13.5956 46.624 13.7837 44.898 13.9837 42.995C14.2458 39.7172 14.7133 36.4592 15.3836 33.24C19.9446 35.37 23.6147 37.653 23.5327 43.879C21.4602 45.4364 19.1281 46.6143 16.6446 47.358ZM25.1367 42.4789C24.7487 35.7009 20.7967 32.6489 16.6267 29.4319C11.0707 25.1459 5.33763 20.723 6.24763 6.651C9.45463 12.738 14.2577 14.603 18.9217 16.415C24.1297 18.438 29.0507 20.35 31.7597 28.124C31.6404 28.5546 31.5216 28.9879 31.4036 29.424C30.1396 34.0579 28.8476 38.788 25.1376 42.477L25.1367 42.4789ZM32.5097 25.607C30.683 21.3834 27.2654 18.0499 22.9976 16.329C25.7186 12.543 28.7257 10.364 31.5307 10.167C33.7107 10.011 35.7917 11.025 37.7137 13.174L37.8227 13.295C38.7293 14.2184 39.49 15.2745 40.0787 16.4269C35.6927 18.0879 33.8257 21.569 32.5097 25.605V25.607Z" fill="#B9B9B9"/>
</svg>
