<svg width="113" height="47" viewBox="0 0 113 47" fill="none" xmlns="http://www.w3.org/2000/svg">
<path d="M30.6806 11.403C30.0771 10.3865 29.3488 9.44955 28.5126 8.61395C27.2094 7.30353 25.6593 6.26465 23.9519 5.55744C22.2444 4.85024 20.4137 4.48877 18.5656 4.49395C16.7174 4.48874 14.8865 4.8502 13.1789 5.55741C11.4713 6.26461 9.92095 7.3035 8.61761 8.61395C7.30741 9.91728 6.26867 11.4675 5.56148 13.1749C4.8543 14.8822 4.4927 16.7129 4.49761 18.5609C4.49254 20.409 4.85404 22.2397 5.56124 23.9471C6.26844 25.6545 7.30728 27.2047 8.61761 28.5079C9.45335 29.3444 10.3907 30.0727 11.4076 30.6759C10.9427 28.0423 11.12 25.3354 11.9247 22.785C12.7293 20.2346 14.1375 17.9159 16.0296 16.026C17.9198 14.1338 20.2386 12.7255 22.7891 11.9207C25.3397 11.1159 28.0467 10.9383 30.6806 11.403Z" fill="#E7E7E7"/>
<path d="M39.5705 39.571C41.7231 37.4186 43.4306 34.8632 44.5955 32.0508C45.7605 29.2384 46.36 26.2241 46.36 23.18C46.36 20.1359 45.7605 17.1216 44.5955 14.3093C43.4306 11.4969 41.7231 8.9415 39.5705 6.78903C35.2235 2.44208 29.3276 0 23.18 0C17.0324 0 11.1366 2.44208 6.78952 6.78903C9.9118 3.66681 14.1465 1.91277 18.562 1.91277C22.9776 1.91277 27.2122 3.66681 30.3345 6.78903C33.4568 9.91131 35.2108 14.146 35.2108 18.5615C35.2108 22.9771 33.4568 27.2117 30.3345 30.334C27.2122 33.4562 22.9776 35.2103 18.562 35.2103C14.1465 35.2103 9.9118 33.4562 6.78952 30.334C3.6673 27.2117 1.91327 22.9771 1.91327 18.5615C1.91327 14.146 3.6673 9.91131 6.78952 6.78903C4.63698 8.9415 2.92951 11.4969 1.76456 14.3093C0.599606 17.1216 0 20.1359 0 23.18C0 26.2241 0.599606 29.2384 1.76456 32.0508C2.92951 34.8632 4.63698 37.4186 6.78952 39.571C11.1366 43.918 17.0324 46.3601 23.18 46.3601C29.3276 46.3601 35.2235 43.918 39.5705 39.571Z" fill="#B9B9B9"/>
<path d="M62.4175 16.7131C63.8935 16.7131 65.1295 17.0791 66.1255 17.8111C67.1335 18.5431 67.8115 19.5391 68.1595 20.7991H66.4315C66.1315 20.0311 65.6275 19.4131 64.9195 18.9451C64.2235 18.4771 63.3955 18.2431 62.4355 18.2431C61.5715 18.2431 60.7975 18.4471 60.1135 18.8551C59.4295 19.2511 58.8895 19.8211 58.4935 20.5651C58.1095 21.3091 57.9175 22.1851 57.9175 23.1931C57.9175 24.2251 58.1155 25.1191 58.5115 25.8751C58.9075 26.6191 59.4535 27.1951 60.1495 27.6031C60.8575 27.9991 61.6675 28.1971 62.5795 28.1971C63.3595 28.1971 64.0735 28.0291 64.7215 27.6931C65.3695 27.3571 65.8975 26.8711 66.3055 26.2351C66.7255 25.5871 66.9775 24.8311 67.0615 23.9671H62.0755V22.7431H68.4475V24.2551C68.3395 25.2631 68.0275 26.1751 67.5115 26.9911C66.9955 27.8071 66.2995 28.4551 65.4235 28.9351C64.5475 29.4151 63.5515 29.6551 62.4355 29.6551C61.2115 29.6551 60.1315 29.3851 59.1955 28.8451C58.2595 28.2931 57.5275 27.5311 56.9995 26.5591C56.4835 25.5751 56.2255 24.4531 56.2255 23.1931C56.2255 21.9331 56.4835 20.8171 56.9995 19.8451C57.5275 18.8611 58.2595 18.0931 59.1955 17.5411C60.1315 16.9891 61.2055 16.7131 62.4175 16.7131ZM72.3053 28.2511H76.8053V29.5291H70.6673V16.8391H72.3053V28.2511ZM84.286 16.6771C85.462 16.6771 86.518 16.9531 87.454 17.5051C88.402 18.0571 89.146 18.8311 89.686 19.8271C90.226 20.8111 90.496 21.9271 90.496 23.1751C90.496 24.4231 90.226 25.5451 89.686 26.5411C89.146 27.5251 88.402 28.2931 87.454 28.8451C86.518 29.3971 85.462 29.6731 84.286 29.6731C83.11 29.6731 82.042 29.3971 81.082 28.8451C80.134 28.2931 79.39 27.5251 78.85 26.5411C78.31 25.5451 78.04 24.4231 78.04 23.1751C78.04 21.9271 78.31 20.8111 78.85 19.8271C79.39 18.8311 80.134 18.0571 81.082 17.5051C82.042 16.9531 83.11 16.6771 84.286 16.6771ZM84.286 18.2071C83.41 18.2071 82.624 18.4111 81.928 18.8191C81.244 19.2151 80.704 19.7911 80.308 20.5471C79.924 21.2911 79.732 22.1671 79.732 23.1751C79.732 24.1711 79.924 25.0471 80.308 25.8031C80.704 26.5591 81.244 27.1411 81.928 27.5491C82.624 27.9451 83.41 28.1431 84.286 28.1431C85.15 28.1431 85.924 27.9391 86.608 27.5311C87.304 27.1231 87.844 26.5471 88.228 25.8031C88.624 25.0471 88.822 24.1711 88.822 23.1751C88.822 22.1671 88.624 21.2911 88.228 20.5471C87.844 19.7911 87.304 19.2151 86.608 18.8191C85.924 18.4111 85.15 18.2071 84.286 18.2071ZM98.9022 22.9591C99.6822 23.1271 100.312 23.4991 100.792 24.0751C101.284 24.6511 101.53 25.3291 101.53 26.1091C101.53 27.1411 101.176 27.9691 100.468 28.5931C99.7722 29.2171 98.7582 29.5291 97.4262 29.5291H92.7102V16.8391H97.3542C98.6262 16.8391 99.5922 17.1211 100.252 17.6851C100.912 18.2491 101.242 19.0231 101.242 20.0071C101.242 20.8231 101.02 21.4831 100.576 21.9871C100.144 22.4911 99.5862 22.8151 98.9022 22.9591ZM94.3482 22.4011H97.0842C97.8882 22.4011 98.5002 22.2151 98.9202 21.8431C99.3522 21.4711 99.5682 20.9491 99.5682 20.2771C99.5682 19.6291 99.3582 19.1191 98.9382 18.7471C98.5182 18.3751 97.8762 18.1891 97.0122 18.1891H94.3482V22.4011ZM97.1202 28.1611C97.9842 28.1611 98.6502 27.9631 99.1182 27.5671C99.5982 27.1711 99.8382 26.6131 99.8382 25.8931C99.8382 25.1851 99.5922 24.6331 99.1002 24.2371C98.6202 23.8291 97.9482 23.6251 97.0842 23.6251H94.3482V28.1611H97.1202ZM105.212 18.1711V22.5091H110.036V23.7691H105.212V28.1971H110.576V29.5291H103.574V16.8391H110.576V18.1711H105.212Z" fill="#B9B9B9"/>
<path d="M68.5415 38.335C68.5415 38.543 68.4915 38.737 68.3915 38.917C68.2915 39.093 68.1395 39.235 67.9355 39.343C67.7315 39.451 67.4815 39.505 67.1855 39.505C66.8975 39.505 66.6395 39.455 66.4115 39.355C66.1835 39.251 66.0015 39.107 65.8655 38.923C65.7295 38.739 65.6515 38.527 65.6315 38.287H66.3635C66.3835 38.471 66.4615 38.629 66.5975 38.761C66.7375 38.893 66.9235 38.959 67.1555 38.959C67.3635 38.959 67.5235 38.903 67.6355 38.791C67.7515 38.679 67.8095 38.535 67.8095 38.359C67.8095 38.207 67.7675 38.083 67.6835 37.987C67.5995 37.887 67.4955 37.809 67.3715 37.753C67.2475 37.697 67.0775 37.633 66.8615 37.561C66.5975 37.477 66.3815 37.393 66.2135 37.309C66.0495 37.225 65.9095 37.103 65.7935 36.943C65.6775 36.783 65.6195 36.573 65.6195 36.313C65.6195 36.085 65.6755 35.885 65.7875 35.713C65.8995 35.541 66.0595 35.409 66.2675 35.317C66.4755 35.221 66.7155 35.173 66.9875 35.173C67.4195 35.173 67.7615 35.277 68.0135 35.485C68.2695 35.693 68.4155 35.965 68.4515 36.301H67.7135C67.6855 36.141 67.6095 36.005 67.4855 35.893C67.3655 35.777 67.1995 35.719 66.9875 35.719C66.7955 35.719 66.6415 35.769 66.5255 35.869C66.4095 35.965 66.3515 36.105 66.3515 36.289C66.3515 36.433 66.3915 36.553 66.4715 36.649C66.5515 36.741 66.6515 36.815 66.7715 36.871C66.8955 36.923 67.0635 36.985 67.2755 37.057C67.5435 37.141 67.7615 37.227 67.9295 37.315C68.1015 37.399 68.2455 37.523 68.3615 37.687C68.4815 37.851 68.5415 38.067 68.5415 38.335ZM69.9103 38.929H71.3743V39.463H69.2263V35.227H69.9103V38.929ZM73.8718 35.173C74.2638 35.173 74.6178 35.265 74.9338 35.449C75.2538 35.633 75.5038 35.891 75.6838 36.223C75.8678 36.551 75.9598 36.923 75.9598 37.339C75.9598 37.755 75.8678 38.129 75.6838 38.461C75.5038 38.789 75.2538 39.047 74.9338 39.235C74.6178 39.419 74.2638 39.511 73.8718 39.511C73.4758 39.511 73.1178 39.419 72.7978 39.235C72.4818 39.047 72.2318 38.789 72.0478 38.461C71.8638 38.129 71.7718 37.755 71.7718 37.339C71.7718 36.923 71.8638 36.551 72.0478 36.223C72.2318 35.891 72.4818 35.633 72.7978 35.449C73.1178 35.265 73.4758 35.173 73.8718 35.173ZM73.8718 35.809C73.5998 35.809 73.3578 35.871 73.1458 35.995C72.9338 36.119 72.7678 36.297 72.6478 36.529C72.5318 36.761 72.4738 37.031 72.4738 37.339C72.4738 37.647 72.5318 37.917 72.6478 38.149C72.7678 38.381 72.9338 38.559 73.1458 38.683C73.3578 38.807 73.5998 38.869 73.8718 38.869C74.1398 38.869 74.3778 38.807 74.5858 38.683C74.7978 38.559 74.9618 38.381 75.0778 38.149C75.1978 37.917 75.2578 37.647 75.2578 37.339C75.2578 37.031 75.1978 36.761 75.0778 36.529C74.9618 36.297 74.7978 36.119 74.5858 35.995C74.3778 35.871 74.1398 35.809 73.8718 35.809ZM78.5881 35.191C79.0921 35.191 79.5121 35.315 79.8481 35.563C80.1841 35.811 80.4061 36.149 80.5141 36.577H79.7941C79.7021 36.349 79.5501 36.167 79.3381 36.031C79.1301 35.895 78.8821 35.827 78.5941 35.827C78.3301 35.827 78.0921 35.889 77.8801 36.013C77.6721 36.137 77.5081 36.313 77.3881 36.541C77.2721 36.769 77.2141 37.037 77.2141 37.345C77.2141 37.669 77.2741 37.947 77.3941 38.179C77.5141 38.411 77.6821 38.589 77.8981 38.713C78.1181 38.833 78.3721 38.893 78.6601 38.893C79.0121 38.893 79.3141 38.785 79.5661 38.569C79.8181 38.349 79.9701 38.049 80.0221 37.669H78.4681V37.165H80.5981V37.819C80.5501 38.131 80.4381 38.415 80.2621 38.671C80.0901 38.923 79.8601 39.125 79.5721 39.277C79.2881 39.429 78.9621 39.505 78.5941 39.505C78.1821 39.505 77.8181 39.413 77.5021 39.229C77.1861 39.045 76.9421 38.791 76.7701 38.467C76.5981 38.139 76.5121 37.765 76.5121 37.345C76.5121 36.925 76.5981 36.553 76.7701 36.229C76.9421 35.901 77.1841 35.647 77.4961 35.467C77.8121 35.283 78.1761 35.191 78.5881 35.191ZM83.8167 38.545H82.0287L81.7047 39.463H80.9727L82.5327 35.293H83.3187L84.8727 39.463H84.1407L83.8167 38.545ZM83.6247 38.017L82.9227 36.037L82.2207 38.017H83.6247ZM88.8066 39.463H88.1226L86.0646 36.337V39.463H85.3806V35.233H86.0646L88.1226 38.371V35.233H88.8066V39.463ZM94.4067 35.227V39.463H93.7167V37.561H91.7247V39.463H91.0407V35.227H91.7247V37.003H93.7167V35.227H94.4067ZM95.92 35.779V37.063H97.48V37.591H95.92V38.905H97.66V39.463H95.236V35.227H97.66V35.779H95.92ZM100.55 39.463L99.4939 37.771H99.0079V39.463H98.3239V35.227H99.8179C100.302 35.227 100.668 35.345 100.916 35.581C101.168 35.817 101.294 36.129 101.294 36.517C101.294 36.849 101.2 37.121 101.012 37.333C100.828 37.545 100.56 37.681 100.208 37.741L101.318 39.463H100.55ZM99.0079 37.285H99.7639C100.316 37.285 100.592 37.041 100.592 36.553C100.592 36.321 100.524 36.141 100.388 36.013C100.256 35.881 100.048 35.815 99.7639 35.815H99.0079V37.285ZM102.594 35.779V37.063H104.154V37.591H102.594V38.905H104.334V39.463H101.91V35.227H104.334V35.779H102.594Z" fill="#B9B9B9"/>
</svg>
