<svg width="113" height="48" viewBox="0 0 113 48" fill="none" xmlns="http://www.w3.org/2000/svg">
<path d="M13.8698 12.677H14.8498C15.6269 12.677 16.3721 12.9857 16.9216 13.5352C17.4711 14.0847 17.7798 14.8299 17.7798 15.607C17.7798 21.307 17.7608 27.017 17.7798 32.722C17.7798 32.791 17.7798 32.86 17.7798 32.93C17.7798 33.317 17.8378 33.7 17.8528 34.086C17.8128 33.003 17.8878 34.164 17.9698 34.498C18.0586 34.8604 18.1664 35.2179 18.2928 35.569C18.3108 35.62 18.3448 35.691 18.3758 35.764L18.4438 35.911C18.6149 36.254 18.8038 36.5878 19.0098 36.911C19.0938 37.043 19.1808 37.173 19.2708 37.301L19.2798 37.312L20.7338 38.766C20.8678 38.858 21.0008 38.951 21.1338 39.038C21.4433 39.2356 21.7627 39.4171 22.0908 39.582C22.2028 39.639 22.3628 39.687 22.4788 39.756C22.8294 39.8818 23.1862 39.9896 23.5478 40.079C23.8818 40.161 25.0428 40.236 23.9588 40.196C24.3808 40.212 24.7988 40.266 25.2218 40.27C25.5038 40.27 25.7858 40.259 26.0678 40.237C26.1358 40.231 26.2488 40.209 26.3498 40.198H26.3658C26.6771 40.1373 26.9851 40.0633 27.2898 39.976C27.4798 39.921 27.6898 39.826 27.8898 39.746C27.8508 39.784 27.9298 39.795 28.0818 39.717L28.2548 39.631C28.2848 39.625 28.3148 39.618 28.3448 39.614L28.2648 39.626C28.3838 39.568 28.5018 39.509 28.6188 39.446C28.8855 39.304 29.1431 39.151 29.3918 38.987C29.4718 38.935 29.5498 38.881 29.6268 38.827L29.5878 38.879C29.6018 38.86 29.6188 38.841 29.6348 38.822L29.8038 38.705C29.9598 38.605 29.9748 38.526 29.9038 38.562C30.1038 38.397 30.3218 38.24 30.4808 38.081C30.6728 37.888 30.8578 37.689 31.0348 37.481C31.0928 37.397 31.1758 37.304 31.2158 37.246C31.4058 36.9713 31.5824 36.689 31.7458 36.399C31.8673 36.1084 32.0059 35.8252 32.1608 35.551C32.2038 35.43 32.2458 35.309 32.2848 35.187C32.3848 34.862 32.4758 34.532 32.5478 34.2C32.5728 34.084 32.5938 33.968 32.6158 33.851C32.6418 33.509 32.6658 33.169 32.6688 32.826C32.6818 31.197 32.6688 29.567 32.6688 27.937V15.607C32.6688 14.8299 32.9775 14.0847 33.527 13.5352C34.0765 12.9857 34.8217 12.677 35.5988 12.677H36.5788C37.3559 12.677 38.1011 12.9857 38.6506 13.5352C39.2001 14.0847 39.5088 14.8299 39.5088 15.607V16.366C39.5088 21.851 39.5558 27.338 39.5088 32.823C39.4611 36.597 37.9413 40.2032 35.2732 42.8728C32.6051 45.5424 28.9998 47.0643 25.2258 47.114C25.1638 47.114 25.1018 47.114 25.0408 47.108C18.4188 46.955 12.2728 42.077 11.1908 35.408C10.9266 33.1801 10.8423 30.9345 10.9388 28.693V15.607C10.9388 15.2222 11.0146 14.8411 11.1619 14.4855C11.3092 14.13 11.5251 13.8069 11.7973 13.5348C12.0695 13.2627 12.3926 13.0469 12.7482 12.8997C13.1038 12.7526 13.4849 12.6769 13.8698 12.677Z" fill="#B9B9B9"/>
<path d="M25.6619 34.433H24.6819C23.9048 34.433 23.1595 34.1243 22.6101 33.5748C22.0606 33.0253 21.7519 32.2801 21.7519 31.503C21.7519 25.798 21.7699 20.092 21.7519 14.388C21.7519 14.318 21.7519 14.249 21.7519 14.18C21.7519 13.792 21.6939 13.409 21.6789 13.023C21.7189 14.107 21.6439 12.946 21.5619 12.612C21.4728 12.2493 21.365 11.8915 21.2389 11.54C21.2209 11.49 21.1859 11.418 21.1559 11.345L21.0879 11.199C20.9172 10.8558 20.7282 10.522 20.5219 10.199C20.4379 10.067 20.3509 9.93701 20.2609 9.80901L20.2519 9.798L18.7979 8.34401C18.6639 8.25301 18.5319 8.15901 18.3979 8.07201C18.0883 7.87462 17.7689 7.69305 17.4409 7.528C17.3279 7.471 17.1689 7.428 17.0529 7.354C16.7019 7.22864 16.3447 7.12117 15.9829 7.032C15.6499 6.95 14.4889 6.87501 15.5719 6.91501C15.1499 6.89901 14.7319 6.84501 14.3099 6.84201C14.0279 6.84201 13.7449 6.853 13.4639 6.875C13.3959 6.875 13.2829 6.90301 13.1819 6.91301H13.1649C12.8535 6.97368 12.5456 7.048 12.2409 7.136C12.0509 7.19 11.8409 7.28501 11.6409 7.36601C11.6799 7.32801 11.6009 7.317 11.4489 7.395C11.3909 7.425 11.3339 7.45301 11.2759 7.48201C11.2459 7.48801 11.2159 7.495 11.1859 7.498L11.2659 7.48601C11.1469 7.54501 11.0289 7.603 10.9119 7.666C10.6479 7.808 10.3899 7.96601 10.1389 8.12601C10.0589 8.17801 9.98088 8.231 9.90388 8.285L9.94386 8.23401C9.92986 8.25301 9.91289 8.272 9.89589 8.291C9.83989 8.33 9.78388 8.369 9.72688 8.407C9.57088 8.507 9.55588 8.587 9.62688 8.55C9.42688 8.716 9.20888 8.87201 9.04988 9.03101C8.85721 9.22301 8.67222 9.42301 8.49489 9.63101C8.43689 9.71601 8.35389 9.80801 8.31389 9.86601C8.12456 10.1393 7.94789 10.4217 7.78389 10.713C7.66254 11.0037 7.52395 11.2868 7.36888 11.561C7.32555 11.6817 7.28422 11.8033 7.24489 11.926C7.14489 12.25 7.05486 12.58 6.98286 12.913C6.95686 13.029 6.93686 13.146 6.91386 13.262C6.88886 13.604 6.86489 13.944 6.86189 14.288C6.84789 15.917 6.86189 17.547 6.86189 19.177V31.505C6.86163 32.2822 6.55271 33.0274 6.00307 33.5769C5.45343 34.1263 4.70807 34.435 3.93089 34.435H2.95189C2.17471 34.435 1.42935 34.1263 0.879715 33.5769C0.330074 33.0274 0.021154 32.2822 0.0208889 31.505V30.745C0.0208889 25.261 -0.0261111 19.773 0.0208889 14.289C0.0693029 10.5156 1.58932 6.91023 4.25709 4.24115C6.92487 1.57207 10.5295 0.0502631 14.3029 0C14.3639 0 14.4259 1.19628e-05 14.4869 0.00601196C21.1089 0.159012 27.2549 5.03701 28.3369 11.706C28.6011 13.9336 28.6854 16.1789 28.5889 18.42V31.506C28.5878 32.282 28.2791 33.0258 27.7304 33.5745C27.1817 34.1232 26.4378 34.4319 25.6619 34.433Z" fill="#E3E3E3"/>
<path d="M50.25 18.999V30.279H48.794V18.999H50.25ZM62.0949 24.631C62.0949 25.7723 61.8655 26.7697 61.4069 27.623C60.9482 28.4657 60.2709 29.1217 59.3749 29.591C58.4895 30.0497 57.4229 30.279 56.1749 30.279H52.5909V18.999H56.1749C57.4229 18.999 58.4895 19.2283 59.3749 19.687C60.2709 20.135 60.9482 20.7857 61.4069 21.639C61.8655 22.4817 62.0949 23.479 62.0949 24.631ZM56.0629 28.967C57.5349 28.967 58.6602 28.5883 59.4389 27.831C60.2175 27.0737 60.6069 26.007 60.6069 24.631C60.6069 23.255 60.2175 22.1883 59.4389 21.431C58.6709 20.663 57.5455 20.279 56.0629 20.279H54.0469V28.967H56.0629ZM65.5156 20.183V24.039H69.8036V25.159H65.5156V29.095H70.2836V30.279H64.0596V18.999H70.2836V20.183H65.5156ZM80.9214 30.279H79.4654L73.6094 21.367V30.279H72.1534V18.999H73.6094L79.4654 27.927V18.999H80.9214V30.279ZM90.1747 18.999V20.183H86.9907V30.279H85.5347V20.183H82.3507V18.999H90.1747ZM93.0781 18.999V30.279H91.6221V18.999H93.0781ZM102.331 18.999V20.183H99.147V30.279H97.691V20.183H94.507V18.999H102.331ZM111.794 18.999L108.098 26.007V30.279H106.626V26.007L102.914 18.999H104.61L107.378 24.455L110.13 18.999H111.794Z" fill="#B9B9B9"/>
<path d="M68.357 38.271C68.357 38.5137 68.2986 38.74 68.182 38.95C68.0653 39.1554 67.888 39.321 67.65 39.447C67.412 39.573 67.1203 39.636 66.775 39.636C66.439 39.636 66.138 39.5777 65.872 39.461C65.606 39.3397 65.3936 39.1717 65.235 38.957C65.0763 38.7424 64.9853 38.495 64.962 38.215H65.816C65.8393 38.4297 65.9303 38.614 66.089 38.768C66.2523 38.922 66.4693 38.999 66.74 38.999C66.9826 38.999 67.1693 38.9337 67.3 38.803C67.4353 38.6724 67.503 38.5044 67.503 38.299C67.503 38.1217 67.454 37.977 67.356 37.865C67.258 37.7484 67.1366 37.6574 66.992 37.592C66.8473 37.5267 66.649 37.452 66.397 37.368C66.089 37.27 65.837 37.172 65.641 37.074C65.4496 36.976 65.2863 36.8337 65.151 36.647C65.0156 36.4604 64.948 36.2154 64.948 35.912C64.948 35.646 65.0133 35.4127 65.144 35.212C65.2746 35.0114 65.4613 34.8574 65.704 34.75C65.9466 34.638 66.2266 34.582 66.544 34.582C67.048 34.582 67.447 34.7034 67.741 34.946C68.0396 35.1887 68.21 35.506 68.252 35.898H67.391C67.3583 35.7114 67.2696 35.5527 67.125 35.422C66.985 35.2867 66.7913 35.219 66.544 35.219C66.32 35.219 66.1403 35.2774 66.005 35.394C65.8696 35.506 65.802 35.6694 65.802 35.884C65.802 36.052 65.8486 36.192 65.942 36.304C66.0353 36.4114 66.152 36.4977 66.292 36.563C66.4366 36.6237 66.6326 36.696 66.88 36.78C67.1926 36.878 67.447 36.9784 67.643 37.081C67.8436 37.179 68.0116 37.3237 68.147 37.515C68.287 37.7064 68.357 37.9584 68.357 38.271ZM69.9539 38.964H71.6619V39.587H69.1559V34.645H69.9539V38.964ZM74.5757 34.582C75.033 34.582 75.446 34.6894 75.8147 34.904C76.188 35.1187 76.4797 35.4197 76.6897 35.807C76.9044 36.1897 77.0117 36.6237 77.0117 37.109C77.0117 37.5944 76.9044 38.0307 76.6897 38.418C76.4797 38.8007 76.188 39.1017 75.8147 39.321C75.446 39.5357 75.033 39.643 74.5757 39.643C74.1137 39.643 73.696 39.5357 73.3227 39.321C72.954 39.1017 72.6624 38.8007 72.4477 38.418C72.233 38.0307 72.1257 37.5944 72.1257 37.109C72.1257 36.6237 72.233 36.1897 72.4477 35.807C72.6624 35.4197 72.954 35.1187 73.3227 34.904C73.696 34.6894 74.1137 34.582 74.5757 34.582ZM74.5757 35.324C74.2584 35.324 73.976 35.3964 73.7287 35.541C73.4814 35.6857 73.2877 35.8934 73.1477 36.164C73.0124 36.4347 72.9447 36.7497 72.9447 37.109C72.9447 37.4684 73.0124 37.7834 73.1477 38.054C73.2877 38.3247 73.4814 38.5324 73.7287 38.677C73.976 38.8217 74.2584 38.894 74.5757 38.894C74.8884 38.894 75.166 38.8217 75.4087 38.677C75.656 38.5324 75.8474 38.3247 75.9827 38.054C76.1227 37.7834 76.1927 37.4684 76.1927 37.109C76.1927 36.7497 76.1227 36.4347 75.9827 36.164C75.8474 35.8934 75.656 35.6857 75.4087 35.541C75.166 35.3964 74.8884 35.324 74.5757 35.324ZM80.078 34.603C80.666 34.603 81.156 34.7477 81.548 35.037C81.94 35.3264 82.199 35.7207 82.325 36.22H81.485C81.3777 35.954 81.2003 35.7417 80.953 35.583C80.7103 35.4244 80.421 35.345 80.085 35.345C79.777 35.345 79.4993 35.4174 79.252 35.562C79.0093 35.7067 78.818 35.912 78.678 36.178C78.5427 36.444 78.475 36.7567 78.475 37.116C78.475 37.494 78.545 37.8184 78.685 38.089C78.825 38.3597 79.021 38.5674 79.273 38.712C79.5297 38.852 79.826 38.922 80.162 38.922C80.5727 38.922 80.925 38.796 81.219 38.544C81.513 38.2874 81.6903 37.9374 81.751 37.494H79.938V36.906H82.423V37.669C82.367 38.033 82.2363 38.3644 82.031 38.663C81.8303 38.957 81.562 39.1927 81.226 39.37C80.8947 39.5474 80.5143 39.636 80.085 39.636C79.6043 39.636 79.1797 39.5287 78.811 39.314C78.4423 39.0994 78.1577 38.803 77.957 38.425C77.7563 38.0424 77.656 37.606 77.656 37.116C77.656 36.626 77.7563 36.192 77.957 35.814C78.1577 35.4314 78.44 35.135 78.804 34.925C79.1727 34.7104 79.5973 34.603 80.078 34.603ZM86.178 38.516H84.092L83.714 39.587H82.86L84.68 34.722H85.597L87.41 39.587H86.556L86.178 38.516ZM85.954 37.9L85.135 35.59L84.316 37.9H85.954ZM91.9995 39.587H91.2015L88.8005 35.94V39.587H88.0025V34.652H88.8005L91.2015 38.313V34.652H91.9995V39.587ZM98.533 34.645V39.587H97.728V37.368H95.404V39.587H94.606V34.645H95.404V36.717H97.728V34.645H98.533ZM100.299 35.289V36.787H102.119V37.403H100.299V38.936H102.329V39.587H99.5006V34.645H102.329V35.289H100.299ZM105.7 39.587L104.468 37.613H103.901V39.587H103.103V34.645H104.846C105.411 34.645 105.838 34.7827 106.127 35.058C106.421 35.3334 106.568 35.6974 106.568 36.15C106.568 36.5374 106.458 36.8547 106.239 37.102C106.024 37.3494 105.712 37.508 105.301 37.578L106.596 39.587H105.7ZM103.901 37.046H104.783C105.427 37.046 105.749 36.7614 105.749 36.192C105.749 35.9214 105.67 35.7114 105.511 35.562C105.357 35.408 105.114 35.331 104.783 35.331H103.901V37.046ZM108.085 35.289V36.787H109.905V37.403H108.085V38.936H110.115V39.587H107.287V34.645H110.115V35.289H108.085Z" fill="#B9B9B9"/>
</svg>
