<svg width="147" height="113" viewBox="0 0 147 113" fill="none" xmlns="http://www.w3.org/2000/svg">
<path opacity="0.1" d="M140.068 0.599094L10.2945 38.7759C2.67349 41.0179 -1.67938 48.9327 0.610614 56.407L28.3077 146.807C30.5899 154.256 38.652 158.546 46.3006 156.296L176.074 118.119C183.676 115.883 188.054 107.983 185.758 100.488L158.061 10.0881C155.779 2.63916 147.717 -1.65099 140.068 0.599094ZM140.927 10.2013L97.0629 90.0631L15.0197 47.2407L140.927 10.2013ZM36.9598 142.221L10.3965 55.5218L68.0511 85.6144L36.9598 142.221ZM45.4416 146.694L76.5525 90.0516L96.7672 100.602C99.1073 101.824 102.016 100.962 103.272 98.6737L113.901 79.3215L171.394 109.642L45.4416 146.694ZM175.959 101.33L118.466 71.0102L149.409 14.674L175.959 101.33Z" fill="#F2EDDC"/>
</svg>
