<svg width="128" height="59" viewBox="0 0 128 59" fill="none" xmlns="http://www.w3.org/2000/svg">
<path d="M8.74322 37.4692C8.45612 37.2266 8.08444 37.1081 7.70993 37.1396C7.33541 37.1711 6.98878 37.3501 6.74624 37.6372C6.5037 37.9243 6.38511 38.296 6.41662 38.6705C6.44813 39.045 6.62714 39.3916 6.91424 39.6342L18.7592 49.6432V55.4932C16.4994 55.3753 14.285 54.8126 12.2429 53.8374C10.2009 52.8622 8.37139 51.4937 6.85922 49.8102C0.00521708 41.8252 3.18824 30.3512 7.06524 22.1322C9.41589 17.5486 12.236 13.2214 15.4802 9.22017C15.7124 8.92458 15.8177 8.54886 15.7729 8.17566C15.7281 7.80247 15.5368 7.46236 15.2412 7.23016C14.9457 6.99796 14.5699 6.8927 14.1967 6.93752C13.8235 6.98234 13.4834 7.17357 13.2512 7.46916C9.87505 11.6374 6.94286 16.1465 4.50222 20.9232C-1.57078 33.7972 -1.49778 44.4232 4.70822 51.6562C6.63362 53.801 8.99417 55.5108 11.6324 56.6715C14.2707 57.8321 17.1261 58.417 20.0082 58.3872H20.0222C20.4265 58.3738 20.811 58.2095 21.1001 57.9267C21.3892 57.6438 21.5619 57.263 21.5842 56.8592V48.9902C21.5844 48.7843 21.5398 48.5809 21.4534 48.3941C21.3671 48.2072 21.2411 48.0414 21.0842 47.9082L8.74322 37.4692Z" fill="#B9B9B9"/>
<path d="M30.3962 28.5542L20.1962 36.8012L9.90821 28.3262C9.76555 28.2007 9.59911 28.1052 9.4188 28.0454C9.23849 27.9855 9.04799 27.9625 8.85862 27.9778C8.66925 27.9931 8.48491 28.0462 8.3165 28.1342C8.1481 28.2221 7.99909 28.3431 7.87836 28.4897C7.75763 28.6364 7.66763 28.8059 7.61372 28.9881C7.5598 29.1702 7.54305 29.3614 7.56449 29.5502C7.58593 29.7389 7.64513 29.9215 7.73853 30.0869C7.83194 30.2523 7.95766 30.3973 8.10822 30.5132C8.26622 30.6432 19.2082 39.6652 19.3752 39.7822C19.626 39.9618 19.9288 40.0543 20.2372 40.0452C20.5455 40.0362 20.8424 39.9262 21.0822 39.7322L32.1822 30.7572C32.3362 30.6435 32.4655 30.4997 32.5624 30.3346C32.6593 30.1696 32.7218 29.9866 32.746 29.7967C32.7702 29.6068 32.7558 29.414 32.7034 29.2299C32.6511 29.0458 32.562 28.8742 32.4415 28.7254C32.321 28.5767 32.1717 28.4539 32.0024 28.3645C31.8332 28.275 31.6476 28.2208 31.4568 28.2051C31.2661 28.1894 31.0741 28.2125 30.8925 28.273C30.7109 28.3335 30.5434 28.4301 30.4002 28.5572L30.3962 28.5542Z" fill="#B9B9B9"/>
<path d="M12.8512 20.6352C12.5675 20.3888 12.1974 20.2652 11.8225 20.2917C11.4476 20.3181 11.0986 20.4924 10.8523 20.7762C10.6059 21.0599 10.4823 21.43 10.5087 21.8049C10.5352 22.1798 10.7095 22.5288 10.9932 22.7752L14.3783 25.7142C14.662 25.9606 15.0321 26.0841 15.4069 26.0577C15.7818 26.0312 16.1309 25.8569 16.3772 25.5732C16.6236 25.2894 16.7472 24.9193 16.7208 24.5445C16.6943 24.1696 16.52 23.8206 16.2363 23.5742L12.8512 20.6352Z" fill="#B9B9B9"/>
<path d="M24.1192 46.1522C24.237 46.2962 24.382 46.4157 24.546 46.5037C24.7099 46.5917 24.8896 46.6466 25.0748 46.6652C25.26 46.6837 25.447 46.6656 25.6252 46.6119C25.8033 46.5582 25.9692 46.47 26.1132 46.3521L34.2312 39.7271C34.3757 39.6095 34.4956 39.4645 34.584 39.3005C34.6724 39.1366 34.7277 38.9567 34.7466 38.7714C34.7656 38.5861 34.7478 38.3988 34.6944 38.2203C34.641 38.0418 34.5529 37.8756 34.4352 37.7312C34.3176 37.5867 34.1726 37.4668 34.0086 37.3784C33.8446 37.29 33.6648 37.2347 33.4795 37.2158C33.2941 37.1968 33.1069 37.2146 32.9284 37.268C32.7499 37.3214 32.5837 37.4095 32.4392 37.5272L24.3212 44.1522C24.1761 44.2699 24.0558 44.4151 23.967 44.5795C23.8783 44.7439 23.823 44.9242 23.8042 45.1101C23.7854 45.296 23.8036 45.4838 23.8577 45.6626C23.9117 45.8414 24.0006 46.0078 24.1192 46.1522Z" fill="#B9B9B9"/>
<path d="M35.8712 20.9192C32.0352 12.7882 23.2443 2.90316 21.2863 0.511162C21.0925 0.278096 20.8291 0.113294 20.5348 0.040955C20.2405 -0.0313842 19.9307 -0.00745159 19.651 0.109246C19.3713 0.225943 19.1364 0.429251 18.9807 0.689316C18.8251 0.949382 18.7569 1.2525 18.7863 1.55416C18.7493 1.77316 18.7622 0.200163 18.7622 28.4112C18.7733 28.6858 18.86 28.9521 19.0128 29.1806C19.1655 29.4091 19.3785 29.591 19.6281 29.7061C19.8778 29.8213 20.1543 29.8652 20.4273 29.8331C20.7003 29.801 20.9591 29.6941 21.1752 29.5242L29.5753 22.8962C29.7213 22.7809 29.8433 22.6379 29.9341 22.4755C30.025 22.313 30.083 22.1343 30.1047 21.9495C30.1265 21.7646 30.1117 21.5773 30.0611 21.3982C30.0104 21.2191 29.925 21.0518 29.8097 20.9057C29.6945 20.7596 29.5515 20.6376 29.3891 20.5468C29.2266 20.4559 29.0479 20.3979 28.8631 20.3762C28.6782 20.3544 28.4909 20.3692 28.3118 20.4198C28.1327 20.4705 27.9653 20.5559 27.8192 20.6712L21.6002 25.5802V5.28016C24.9852 9.33316 30.5583 16.2802 33.3162 22.1262C37.1932 30.3452 40.3772 41.8192 33.5222 49.8042C31.5007 52.3714 28.684 54.1947 25.5142 54.9882C25.3317 55.031 25.1594 55.1096 25.0075 55.2195C24.8555 55.3293 24.7269 55.4683 24.629 55.6282C24.5312 55.7882 24.466 55.966 24.4374 56.1513C24.4087 56.3366 24.4172 56.5257 24.4622 56.7078C24.5072 56.8898 24.5878 57.0611 24.6995 57.2117C24.8112 57.3623 24.9516 57.4893 25.1128 57.5852C25.2739 57.6812 25.4524 57.7442 25.6381 57.7706C25.8237 57.797 26.0128 57.7863 26.1942 57.7392C29.9363 56.805 33.267 54.6653 35.6722 51.6502C41.8772 44.4192 41.9452 33.7922 35.8712 20.9192Z" fill="#B9B9B9"/>
<path d="M52.5842 25.6342C52.588 25.4376 52.5427 25.2433 52.4524 25.0687C52.3621 24.8941 52.2297 24.7447 52.0672 24.6342C51.6626 24.3653 51.1824 24.2332 50.6972 24.2572C50.2508 24.2331 49.8062 24.3309 49.4112 24.5402C49.2694 24.6168 49.1513 24.7309 49.0698 24.8701C48.9884 25.0092 48.9466 25.168 48.9492 25.3292C48.9492 25.5672 49.1245 25.7722 49.4752 25.9442C50.0677 26.1861 50.6827 26.369 51.3112 26.4902C52.5503 26.6841 53.7393 27.119 54.8112 27.7702C55.1203 28.0386 55.3617 28.3762 55.5156 28.7556C55.6696 29.1349 55.7318 29.5452 55.6972 29.9532C55.7085 30.4517 55.5972 30.9454 55.3732 31.3909C55.1491 31.8364 54.8192 32.22 54.4122 32.5082C53.419 33.1941 52.2278 33.5342 51.0222 33.4762C49.6761 33.5593 48.3369 33.2266 47.1862 32.5232C46.7429 32.2079 46.3814 31.7911 46.132 31.3077C45.8825 30.8243 45.7523 30.2882 45.7522 29.7442H48.6522C48.656 29.9782 48.7183 30.2076 48.8336 30.4113C48.9489 30.615 49.1135 30.7865 49.3122 30.9102C49.8287 31.2167 50.4244 31.3635 51.0242 31.3322C51.4875 31.3568 51.9488 31.2555 52.3592 31.0392C52.507 30.9601 52.6303 30.8419 52.7153 30.6974C52.8003 30.5529 52.8439 30.3878 52.8412 30.2202C52.8295 30.0829 52.7796 29.9517 52.6973 29.8412C52.615 29.7308 52.5034 29.6456 52.3752 29.5952C51.8514 29.3614 51.3015 29.1916 50.7372 29.0892C49.4479 28.8812 48.2071 28.4407 47.0752 27.7892C46.7609 27.5431 46.5122 27.2232 46.3513 26.8579C46.1905 26.4926 46.1224 26.0932 46.1532 25.6952C46.1383 25.1992 46.239 24.7066 46.4473 24.2562C46.6555 23.8058 46.9657 23.4101 47.3532 23.1002C48.253 22.4082 49.3694 22.0584 50.5032 22.1132C51.7595 22.053 53.0027 22.3914 54.0552 23.0802C54.4771 23.358 54.8221 23.7378 55.0581 24.1844C55.2941 24.6311 55.4135 25.1301 55.4052 25.6352L52.5842 25.6342Z" fill="#B9B9B9"/>
<path d="M57.8552 18.4982H60.7552V21.1382H57.8552V18.4982ZM57.8852 22.3982H60.7332V33.1982H57.8852V22.3982Z" fill="#B9B9B9"/>
<path d="M63.4022 22.3992H66.1112V24.1362C66.3659 23.5044 66.813 22.9689 67.3892 22.6056C67.9654 22.2423 68.6414 22.0697 69.3212 22.1122C69.7569 22.098 70.1906 22.1765 70.5936 22.3425C70.9967 22.5085 71.3599 22.7582 71.6592 23.0752C71.8922 23.3126 72.0832 23.5878 72.2242 23.8892L72.5722 23.3232C72.8668 22.9234 73.2565 22.6033 73.7059 22.3918C74.1553 22.1804 74.6503 22.0843 75.1462 22.1122C75.6524 22.0835 76.1591 22.1615 76.6333 22.341C77.1075 22.5205 77.5388 22.7975 77.8992 23.1542C78.5982 23.9482 78.9555 24.9861 78.8932 26.0422V33.1972H76.0452V26.8562C76.0892 26.2329 75.9502 25.6104 75.6452 25.0652C75.5066 24.8706 75.3203 24.7149 75.1042 24.6132C74.8881 24.5114 74.6495 24.467 74.4112 24.4842C74.1564 24.4674 73.9011 24.5082 73.6643 24.6036C73.4275 24.699 73.2152 24.8465 73.0432 25.0352C72.7003 25.4888 72.5323 26.0508 72.5702 26.6182V33.1972H69.7222V26.3882C69.7637 25.8738 69.6158 25.362 69.3062 24.9492C68.9418 24.6334 68.4717 24.4667 67.9898 24.4823C67.5078 24.4979 67.0495 24.6946 66.7062 25.0332C66.3715 25.4903 66.2086 26.0508 66.2462 26.6162V33.1952H63.4022V22.3992Z" fill="#B9B9B9"/>
<path d="M81.4332 22.3992H84.1422V23.9992L84.3312 23.7312C84.6595 23.2269 85.1103 22.8142 85.6414 22.5314C86.1725 22.2486 86.7666 22.1051 87.3682 22.1142C87.9984 22.0932 88.6248 22.2195 89.1977 22.483C89.7705 22.7465 90.274 23.14 90.6682 23.6322C91.5418 24.777 91.9828 26.1937 91.9132 27.6322C91.9866 29.1443 91.5479 30.6371 90.6682 31.8692C90.2882 32.3831 89.7898 32.7976 89.2153 33.0776C88.6407 33.3576 88.0071 33.4946 87.3682 33.4772C86.7791 33.4906 86.1956 33.3603 85.6682 33.0976C85.1408 32.8348 84.6853 32.4475 84.3412 31.9692L84.2812 31.8902V37.4271H81.4332V22.3992ZM86.5542 31.1322C86.8996 31.1465 87.2431 31.0757 87.5547 30.9261C87.8663 30.7765 88.1364 30.5526 88.3412 30.2742C88.8094 29.5695 89.0358 28.7317 88.9862 27.8872C89.0359 27.0279 88.8119 26.175 88.3462 25.4512C88.1368 25.1761 87.8663 24.9535 87.556 24.801C87.2457 24.6486 86.9041 24.5705 86.5584 24.573C86.2127 24.5754 85.8723 24.6583 85.5642 24.815C85.2561 24.9718 84.9887 25.1981 84.7832 25.4762C84.3157 26.227 84.0921 27.1041 84.1432 27.9871C84.0951 28.8074 84.3201 29.6204 84.7832 30.2992C84.9891 30.5708 85.2578 30.7884 85.5662 30.9335C85.8747 31.0786 86.2137 31.1468 86.5542 31.1322Z" fill="#B9B9B9"/>
<path d="M93.9872 18.6082H96.8352V33.1952H93.9872V18.6082Z" fill="#B9B9B9"/>
<path d="M103.831 33.4741C103.125 33.5177 102.418 33.4042 101.761 33.1417C101.104 32.8793 100.513 32.4744 100.031 31.9562C99.0695 30.7269 98.5942 29.1866 98.6962 27.6292C98.6088 26.1531 99.0958 24.7004 100.055 23.5752C100.543 23.0764 101.132 22.6877 101.782 22.4352C102.433 22.1827 103.13 22.0722 103.826 22.1112C104.531 22.0671 105.237 22.1779 105.895 22.4359C106.552 22.6938 107.145 23.0926 107.632 23.6041C108.591 24.8057 109.067 26.322 108.967 27.8562C108.98 28.0724 108.964 28.2894 108.918 28.5011H101.568C101.579 29.179 101.775 29.8411 102.134 30.4162C102.377 30.6979 102.684 30.917 103.03 31.0552C103.375 31.1934 103.749 31.2465 104.119 31.2102C104.547 31.2122 104.966 31.0842 105.319 30.8432C105.482 30.7473 105.625 30.6198 105.738 30.4682C105.852 30.3166 105.933 30.1439 105.979 29.9602H108.879C108.668 31.0078 108.059 31.9327 107.179 32.5402C106.188 33.193 105.017 33.5196 103.831 33.4741ZM106.004 26.6861C105.975 26.1424 105.796 25.6172 105.488 25.1681C105.285 24.9188 105.024 24.7226 104.727 24.5965C104.431 24.4704 104.109 24.4181 103.788 24.4441C103.46 24.4274 103.132 24.4964 102.838 24.6441C102.544 24.7919 102.294 25.0135 102.111 25.2872C101.847 25.7143 101.671 26.1905 101.595 26.6872L106.004 26.6861Z" fill="#B9B9B9"/>
<path d="M113.447 33.4741C112.562 33.5154 111.696 33.2073 111.036 32.6162C110.732 32.3263 110.494 31.975 110.336 31.5856C110.179 31.1962 110.106 30.7778 110.123 30.3581C110.08 29.4921 110.376 28.6434 110.947 27.9912C111.594 27.3521 112.442 26.9576 113.347 26.8751L115.223 26.6171C115.646 26.5699 116.058 26.4558 116.444 26.2792C116.592 26.2037 116.707 26.0767 116.767 25.9222C116.842 25.7575 116.871 25.5759 116.851 25.3962C116.834 25.2491 116.782 25.108 116.701 24.984C116.62 24.86 116.512 24.7563 116.384 24.6811C115.955 24.4508 115.47 24.3442 114.984 24.3732C114.526 24.3463 114.074 24.4887 113.714 24.7732C113.559 24.9152 113.435 25.0885 113.351 25.2817C113.267 25.4749 113.226 25.6836 113.228 25.8942H110.499C110.489 25.3549 110.6 24.8201 110.823 24.3291C111.046 23.838 111.376 23.4031 111.789 23.0561C112.826 22.3588 114.066 22.027 115.312 22.1132C116.436 22.0513 117.55 22.3486 118.493 22.9621C118.866 23.2207 119.167 23.5684 119.371 23.9734C119.575 24.3785 119.674 24.828 119.659 25.2811V31.3202C119.64 31.6638 119.68 32.0082 119.778 32.3382C119.871 32.5477 120.042 32.7133 120.254 32.8002V33.2002H117.178V33.1901C117.056 32.7721 116.973 32.3436 116.93 31.9101L116.92 31.8902C116.501 32.4019 115.97 32.8107 115.368 33.0853C114.766 33.3599 114.109 33.4929 113.447 33.4741ZM116.871 27.9661C116.459 28.1798 116.018 28.3305 115.561 28.4132L114.509 28.6131C114.09 28.6697 113.697 28.8473 113.378 29.1242C113.252 29.2446 113.152 29.3904 113.085 29.552C113.018 29.7136 112.986 29.8874 112.991 30.0622C112.97 30.4319 113.094 30.7953 113.338 31.0741C113.465 31.2003 113.618 31.2981 113.786 31.3614C113.953 31.4246 114.132 31.4518 114.311 31.4412C114.724 31.4576 115.136 31.3794 115.514 31.2125C115.893 31.0456 116.228 30.7944 116.494 30.4782C116.62 30.3126 116.711 30.1235 116.762 29.9222C116.833 29.6907 116.87 29.4502 116.871 29.2082V27.9661Z" fill="#B9B9B9"/>
<path d="M125.464 24.3932V33.1932H122.616V24.3932H121.038V22.3982H122.616V21.4982C122.583 21.0745 122.639 20.6486 122.782 20.2483C122.925 19.8481 123.151 19.4827 123.445 19.1762C124.158 18.6134 125.056 18.3405 125.961 18.4122C126.409 18.4024 126.857 18.4255 127.301 18.4812V20.7542H126.401C126.267 20.7361 126.131 20.7471 126.002 20.7865C125.873 20.8258 125.753 20.8926 125.652 20.9822C125.498 21.2676 125.434 21.5927 125.468 21.9152V22.4012H127.304V24.3962L125.464 24.3932Z" fill="#B9B9B9"/>
<path d="M57.7971 41.9451H58.5411V48.0231H57.7971V41.9451Z" fill="#B9B9B9"/>
<path d="M60.9491 41.9451H61.7101V42.7891H60.9491V41.9451ZM60.9571 43.5991H61.7011V48.0231H60.9571V43.5991Z" fill="#B9B9B9"/>
<path d="M64.0841 43.5991H64.7911V44.2521L64.9561 44.0331C65.1419 43.7592 65.413 43.5543 65.7273 43.4505C66.0416 43.3467 66.3814 43.3498 66.6937 43.4592C67.0061 43.5687 67.2735 43.7784 67.4543 44.0556C67.635 44.3329 67.719 44.6622 67.6931 44.9921V48.0232H66.9491V45.2441C66.9756 44.9457 66.8959 44.6476 66.7241 44.4021C66.6284 44.3088 66.5135 44.2374 66.3875 44.1929C66.2615 44.1483 66.1272 44.1317 65.9941 44.1441C65.8298 44.1383 65.6665 44.1723 65.5182 44.2431C65.3699 44.314 65.2408 44.4197 65.1421 44.5511C64.9179 44.8726 64.8074 45.2597 64.8281 45.6511V48.0201H64.0841V43.5991Z" fill="#B9B9B9"/>
<path d="M71.8661 48.1431C71.5913 48.1568 71.3167 48.1101 71.0617 48.0065C70.8068 47.9028 70.5775 47.7447 70.3901 47.5431C70.0096 47.082 69.8177 46.4939 69.8531 45.8971C69.8188 45.2556 70.0209 44.6237 70.4211 44.1211C70.6097 43.9032 70.8451 43.7307 71.1097 43.6164C71.3742 43.5022 71.6612 43.4491 71.9491 43.4611C72.2164 43.4532 72.482 43.5073 72.7249 43.6192C72.9678 43.7311 73.1815 43.8978 73.3491 44.1061C73.7234 44.5913 73.9124 45.1941 73.8821 45.8061L73.8731 46.0711H70.6411C70.6447 46.4289 70.7486 46.7785 70.9411 47.0801C71.0597 47.2258 71.212 47.3404 71.3849 47.414C71.5577 47.4875 71.7459 47.5178 71.9331 47.5021C72.201 47.5074 72.4629 47.4229 72.6771 47.2621C72.8809 47.116 73.0203 46.8967 73.0661 46.6501H73.8021C73.7212 47.0871 73.4868 47.4808 73.1411 47.7601C72.7712 48.0273 72.3221 48.1622 71.8661 48.1431ZM73.1081 45.4721C73.1082 45.1284 73.0013 44.7932 72.8021 44.5131C72.695 44.3844 72.5591 44.2828 72.4053 44.2166C72.2515 44.1504 72.0842 44.1214 71.9171 44.1321C71.7372 44.1259 71.5583 44.1624 71.3951 44.2385C71.2319 44.3146 71.089 44.4283 70.9781 44.5701C70.781 44.831 70.6645 45.1439 70.6431 45.4701L73.1081 45.4721Z" fill="#B9B9B9"/>
<path d="M77.2091 48.1431C76.8344 48.1632 76.4662 48.039 76.1801 47.7961C76.0526 47.6765 75.9526 47.5305 75.8869 47.3684C75.8213 47.2063 75.7917 47.0318 75.8001 46.8571C75.7914 46.6832 75.8186 46.5094 75.8801 46.3465C75.9415 46.1836 76.0358 46.035 76.1571 45.9101C76.4474 45.6532 76.8144 45.4992 77.2011 45.4721L78.2141 45.3441C78.2937 45.3365 78.3726 45.3228 78.4501 45.3031C78.5401 45.2823 78.6194 45.2293 78.6731 45.1541C78.7278 45.0709 78.7551 44.9726 78.7511 44.8731V44.8331C78.7554 44.7255 78.7331 44.6185 78.6861 44.5215C78.6392 44.4245 78.5692 44.3406 78.4821 44.2771C78.2605 44.1316 77.9978 44.0614 77.7331 44.0771C77.4762 44.062 77.2222 44.1374 77.0151 44.2901C76.8322 44.453 76.7202 44.6808 76.7031 44.9251H76.0171C76.0197 44.7167 76.0668 44.5113 76.1553 44.3226C76.2438 44.134 76.3716 43.9664 76.5301 43.8311C76.9144 43.5638 77.378 43.4348 77.8451 43.4651C78.2826 43.435 78.7169 43.5584 79.0731 43.8141C79.217 43.9404 79.3299 44.0981 79.403 44.2749C79.4762 44.4518 79.5077 44.6431 79.4951 44.8341V47.2651C79.4936 47.2982 79.4989 47.3312 79.5105 47.3621C79.5222 47.3931 79.5401 47.4214 79.5631 47.4451C79.5876 47.4684 79.6165 47.4864 79.6481 47.4981C79.6798 47.5098 79.7134 47.5149 79.7471 47.5131C79.7806 47.5124 79.814 47.5098 79.8471 47.5051C79.8901 47.4991 79.9361 47.4911 79.9861 47.4801V48.0171C79.9124 48.0454 79.8365 48.0675 79.7591 48.0831C79.6934 48.0981 79.6265 48.1064 79.5591 48.1081C79.4463 48.1186 79.3325 48.1032 79.2265 48.0632C79.1205 48.0232 79.0249 47.9595 78.9471 47.8771C78.8533 47.7491 78.7922 47.6001 78.7691 47.4431C78.7117 47.5151 78.6481 47.5821 78.5791 47.6431C78.2031 47.9788 77.7129 48.1577 77.2091 48.1431ZM78.7511 45.7901C78.6059 45.8588 78.4512 45.905 78.2921 45.9271L77.6101 46.0271C77.3325 46.0495 77.0636 46.135 76.8241 46.2771C76.7458 46.3291 76.6819 46.4002 76.6385 46.4836C76.5951 46.567 76.5737 46.6601 76.5761 46.7541C76.569 46.8582 76.583 46.9627 76.6174 47.0611C76.6517 47.1596 76.7057 47.2501 76.7761 47.3271C76.8537 47.3972 76.9446 47.451 77.0434 47.4854C77.1421 47.5198 77.2468 47.5339 77.3511 47.5271C77.7085 47.5382 78.0588 47.4259 78.3431 47.2091C78.5123 47.0822 78.6402 46.9083 78.7111 46.7091C78.7252 46.6535 78.7336 46.5965 78.7361 46.5391C78.7457 46.4501 78.7507 46.3607 78.7511 46.2711V45.7901Z" fill="#B9B9B9"/>
<path d="M82.1261 43.5991H82.8331V44.3551C82.8918 44.243 82.9587 44.1354 83.0331 44.0331C83.1464 43.8608 83.3003 43.7191 83.4814 43.6204C83.6624 43.5217 83.865 43.469 84.0711 43.4672C84.1431 43.4676 84.2144 43.4801 84.2821 43.5041V44.2651H84.1291C83.9569 44.2549 83.7845 44.282 83.6236 44.3444C83.4628 44.4069 83.3173 44.5033 83.1971 44.6271C82.9612 44.9169 82.8437 45.2853 82.8681 45.6581V48.0271H82.1241L82.1261 43.5991Z" fill="#B9B9B9"/>
<path d="M87.7381 48.0191C87.555 48.0509 87.3699 48.0703 87.1841 48.0772C87.0607 48.09 86.936 48.0775 86.8175 48.0405C86.6991 48.0036 86.5894 47.9429 86.4951 47.8621C86.3402 47.6482 86.2691 47.385 86.2951 47.1221V44.2071H85.6831V43.5991H86.2951V42.3581H87.0391V43.5991H87.7391V44.2071H87.0391V47.1221C87.0376 47.1682 87.0476 47.2139 87.0682 47.2551C87.0888 47.2963 87.1194 47.3317 87.1571 47.3581C87.2504 47.4202 87.3612 47.4507 87.4731 47.4451H87.7381V48.0191Z" fill="#B9B9B9"/>
<path d="M95.8951 44.8811C95.8896 44.7699 95.8599 44.6612 95.8081 44.5626C95.7563 44.464 95.6836 44.3778 95.5951 44.3101C95.3844 44.1662 95.132 44.0959 94.8771 44.1101C94.6315 44.0946 94.3867 44.1505 94.1721 44.2711C94.0941 44.3216 94.0307 44.3917 93.9882 44.4743C93.9458 44.557 93.9257 44.6493 93.9301 44.7421C93.9261 44.8109 93.9396 44.8795 93.9694 44.9415C93.9991 45.0036 94.0441 45.0571 94.1001 45.0971C94.31 45.2138 94.5378 45.2949 94.7741 45.3371L95.5431 45.5191C95.8834 45.5797 96.2016 45.7295 96.4651 45.9531C96.5602 46.0555 96.6335 46.176 96.6806 46.3075C96.7277 46.439 96.7476 46.5787 96.7391 46.7181C96.747 46.9168 96.7083 47.1145 96.626 47.2954C96.5437 47.4764 96.4201 47.6356 96.2651 47.7601C95.8962 48.0332 95.4435 48.169 94.9851 48.1441C94.4921 48.1813 94.0009 48.0509 93.5911 47.7741C93.4283 47.6275 93.2987 47.4478 93.2109 47.2471C93.1231 47.0464 93.0792 46.8292 93.0821 46.6101H93.7981C93.8033 46.7407 93.8355 46.8688 93.8928 46.9862C93.9501 47.1036 94.0313 47.2078 94.1311 47.2921C94.3861 47.4514 94.6853 47.5253 94.9851 47.5031C95.2518 47.5211 95.5174 47.4546 95.7441 47.3131C95.8297 47.2494 95.8982 47.1654 95.9434 47.0687C95.9885 46.972 96.0091 46.8657 96.0031 46.7591C96.0072 46.6911 95.9938 46.6231 95.9643 46.5617C95.9347 46.5002 95.8899 46.4474 95.8341 46.4081C95.6215 46.2912 95.3911 46.2101 95.1521 46.1681L94.3831 45.9861C94.0544 45.9298 93.7472 45.7854 93.4941 45.5681C93.4018 45.4686 93.3306 45.3513 93.2851 45.2234C93.2395 45.0955 93.2205 44.9596 93.2291 44.8241C93.2214 44.6359 93.2574 44.4483 93.3345 44.2763C93.4115 44.1044 93.5275 43.9527 93.6731 43.8331C94.0193 43.5733 94.4459 43.4437 94.8781 43.4671C95.3196 43.4435 95.7553 43.5767 96.1081 43.8431C96.2602 43.97 96.3825 44.1288 96.4665 44.3081C96.5505 44.4875 96.594 44.6831 96.5941 44.8811H95.8951Z" fill="#B9B9B9"/>
<path d="M100.487 48.0191C100.304 48.0509 100.119 48.0703 99.9331 48.0772C99.8097 48.09 99.685 48.0776 99.5665 48.0406C99.448 48.0037 99.3383 47.9429 99.2441 47.8621C99.0892 47.6482 99.0181 47.385 99.0441 47.1221V44.2071H98.4321V43.5991H99.0441V42.3581H99.7871V43.5991H100.487V44.2071H99.7871V47.1221C99.7856 47.1682 99.7956 47.2139 99.8162 47.2551C99.8368 47.2963 99.8674 47.3317 99.9051 47.3581C99.9984 47.4203 100.109 47.4508 100.221 47.4451H100.486L100.487 48.0191Z" fill="#B9B9B9"/>
<path d="M104.393 48.1681C104.242 48.6503 104.008 49.1024 103.701 49.5041C103.579 49.616 103.435 49.7016 103.278 49.7556C103.121 49.8096 102.955 49.8309 102.789 49.8181C102.667 49.8225 102.546 49.8073 102.429 49.7731V49.0831C102.567 49.1283 102.71 49.1506 102.855 49.1491C102.937 49.1499 103.017 49.1315 103.091 49.0956C103.164 49.0597 103.228 49.0071 103.277 48.9421C103.442 48.7042 103.571 48.4439 103.661 48.1691L103.673 48.0991L102.031 43.5991H102.88L104.061 47.2581L105.261 43.5991H106.076L104.393 48.1681Z" fill="#B9B9B9"/>
<path d="M108.007 41.9451H108.751V48.0231H108.007V41.9451Z" fill="#B9B9B9"/>
<path d="M112.945 48.1431C112.67 48.1567 112.396 48.11 112.141 48.0064C111.886 47.9027 111.657 47.7446 111.469 47.5431C111.089 47.082 110.897 46.4939 110.932 45.8971C110.898 45.2556 111.1 44.6238 111.5 44.1211C111.689 43.9032 111.924 43.7307 112.189 43.6164C112.453 43.5022 112.74 43.4491 113.028 43.4611C113.295 43.4531 113.561 43.5072 113.804 43.6191C114.047 43.731 114.261 43.8977 114.428 44.1061C114.803 44.5913 114.991 45.1941 114.961 45.8061L114.952 46.0711H111.72C111.724 46.4289 111.828 46.7785 112.02 47.0801C112.139 47.2258 112.291 47.3404 112.464 47.414C112.637 47.4875 112.825 47.5178 113.012 47.5021C113.28 47.5074 113.542 47.4229 113.756 47.2621C113.96 47.1158 114.099 46.8965 114.144 46.6501H114.88C114.799 47.0872 114.564 47.4809 114.218 47.7601C113.849 48.0269 113.4 48.1618 112.945 48.1431ZM114.187 45.4721C114.187 45.1284 114.08 44.7932 113.881 44.5131C113.774 44.3844 113.638 44.2828 113.484 44.2166C113.33 44.1504 113.163 44.1214 112.996 44.1321C112.816 44.1259 112.637 44.1624 112.474 44.2385C112.311 44.3146 112.168 44.4283 112.057 44.5701C111.86 44.8311 111.744 45.1439 111.722 45.4701L114.187 45.4721Z" fill="#B9B9B9"/>
</svg>
