<svg width="602" height="635" viewBox="0 0 602 635" fill="none" xmlns="http://www.w3.org/2000/svg">
<path d="M350.41 339C351.241 339 351.914 338.328 351.914 337.5C351.914 336.672 351.241 336 350.41 336C349.58 336 348.906 336.672 348.906 337.5C348.906 338.328 349.58 339 350.41 339Z" fill="#999999"/>
<path d="M374.473 339C375.303 339 375.977 338.328 375.977 337.5C375.977 336.672 375.303 336 374.473 336C373.642 336 372.969 336.672 372.969 337.5C372.969 338.328 373.642 339 374.473 339Z" fill="#999999"/>
<path d="M398.535 339C399.366 339 400.039 338.328 400.039 337.5C400.039 336.672 399.366 336 398.535 336C397.705 336 397.031 336.672 397.031 337.5C397.031 338.328 397.705 339 398.535 339Z" fill="#999999"/>
<path d="M422.598 339C423.428 339 424.102 338.328 424.102 337.5C424.102 336.672 423.428 336 422.598 336C421.767 336 421.094 336.672 421.094 337.5C421.094 338.328 421.767 339 422.598 339Z" fill="#999999"/>
<path d="M446.66 339C447.491 339 448.164 338.328 448.164 337.5C448.164 336.672 447.491 336 446.66 336C445.83 336 445.156 336.672 445.156 337.5C445.156 338.328 445.83 339 446.66 339Z" fill="#999999"/>
<path d="M470.723 339C471.553 339 472.227 338.328 472.227 337.5C472.227 336.672 471.553 336 470.723 336C469.892 336 469.219 336.672 469.219 337.5C469.219 338.328 469.892 339 470.723 339Z" fill="#999999"/>
<path d="M494.785 339C495.616 339 496.289 338.328 496.289 337.5C496.289 336.672 495.616 336 494.785 336C493.955 336 493.281 336.672 493.281 337.5C493.281 338.328 493.955 339 494.785 339Z" fill="#999999"/>
<path d="M518.848 339C519.678 339 520.352 338.328 520.352 337.5C520.352 336.672 519.678 336 518.848 336C518.017 336 517.344 336.672 517.344 337.5C517.344 338.328 518.017 339 518.848 339Z" fill="#999999"/>
<path d="M542.91 339C543.741 339 544.414 338.328 544.414 337.5C544.414 336.672 543.741 336 542.91 336C542.08 336 541.406 336.672 541.406 337.5C541.406 338.328 542.08 339 542.91 339Z" fill="#999999"/>
<path d="M326.348 339C327.178 339 327.852 338.328 327.852 337.5C327.852 336.672 327.178 336 326.348 336C325.517 336 324.844 336.672 324.844 337.5C324.844 338.328 325.517 339 326.348 339Z" fill="#999999"/>
<path d="M350.41 363C351.241 363 351.914 362.328 351.914 361.5C351.914 360.672 351.241 360 350.41 360C349.58 360 348.906 360.672 348.906 361.5C348.906 362.328 349.58 363 350.41 363Z" fill="#999999"/>
<path d="M374.473 363C375.303 363 375.977 362.328 375.977 361.5C375.977 360.672 375.303 360 374.473 360C373.642 360 372.969 360.672 372.969 361.5C372.969 362.328 373.642 363 374.473 363Z" fill="#999999"/>
<path d="M398.535 363C399.366 363 400.039 362.328 400.039 361.5C400.039 360.672 399.366 360 398.535 360C397.705 360 397.031 360.672 397.031 361.5C397.031 362.328 397.705 363 398.535 363Z" fill="#999999"/>
<path d="M422.598 363C423.428 363 424.102 362.328 424.102 361.5C424.102 360.672 423.428 360 422.598 360C421.767 360 421.094 360.672 421.094 361.5C421.094 362.328 421.767 363 422.598 363Z" fill="#999999"/>
<path d="M446.66 363C447.491 363 448.164 362.328 448.164 361.5C448.164 360.672 447.491 360 446.66 360C445.83 360 445.156 360.672 445.156 361.5C445.156 362.328 445.83 363 446.66 363Z" fill="#999999"/>
<path d="M470.723 363C471.553 363 472.227 362.328 472.227 361.5C472.227 360.672 471.553 360 470.723 360C469.892 360 469.219 360.672 469.219 361.5C469.219 362.328 469.892 363 470.723 363Z" fill="#999999"/>
<path d="M494.785 363C495.616 363 496.289 362.328 496.289 361.5C496.289 360.672 495.616 360 494.785 360C493.955 360 493.281 360.672 493.281 361.5C493.281 362.328 493.955 363 494.785 363Z" fill="#999999"/>
<path d="M518.848 363C519.678 363 520.352 362.328 520.352 361.5C520.352 360.672 519.678 360 518.848 360C518.017 360 517.344 360.672 517.344 361.5C517.344 362.328 518.017 363 518.848 363Z" fill="#999999"/>
<path d="M542.91 363C543.741 363 544.414 362.328 544.414 361.5C544.414 360.672 543.741 360 542.91 360C542.08 360 541.406 360.672 541.406 361.5C541.406 362.328 542.08 363 542.91 363Z" fill="#999999"/>
<path d="M326.348 363C327.178 363 327.852 362.328 327.852 361.5C327.852 360.672 327.178 360 326.348 360C325.517 360 324.844 360.672 324.844 361.5C324.844 362.328 325.517 363 326.348 363Z" fill="#999999"/>
<path d="M350.41 387C351.241 387 351.914 386.328 351.914 385.5C351.914 384.672 351.241 384 350.41 384C349.58 384 348.906 384.672 348.906 385.5C348.906 386.328 349.58 387 350.41 387Z" fill="#999999"/>
<path d="M374.473 387C375.303 387 375.977 386.328 375.977 385.5C375.977 384.672 375.303 384 374.473 384C373.642 384 372.969 384.672 372.969 385.5C372.969 386.328 373.642 387 374.473 387Z" fill="#999999"/>
<path d="M398.535 387C399.366 387 400.039 386.328 400.039 385.5C400.039 384.672 399.366 384 398.535 384C397.705 384 397.031 384.672 397.031 385.5C397.031 386.328 397.705 387 398.535 387Z" fill="#999999"/>
<path d="M422.598 387C423.428 387 424.102 386.328 424.102 385.5C424.102 384.672 423.428 384 422.598 384C421.767 384 421.094 384.672 421.094 385.5C421.094 386.328 421.767 387 422.598 387Z" fill="#999999"/>
<path d="M446.66 387C447.491 387 448.164 386.328 448.164 385.5C448.164 384.672 447.491 384 446.66 384C445.83 384 445.156 384.672 445.156 385.5C445.156 386.328 445.83 387 446.66 387Z" fill="#999999"/>
<path d="M470.723 387C471.553 387 472.227 386.328 472.227 385.5C472.227 384.672 471.553 384 470.723 384C469.892 384 469.219 384.672 469.219 385.5C469.219 386.328 469.892 387 470.723 387Z" fill="#999999"/>
<path d="M494.785 387C495.616 387 496.289 386.328 496.289 385.5C496.289 384.672 495.616 384 494.785 384C493.955 384 493.281 384.672 493.281 385.5C493.281 386.328 493.955 387 494.785 387Z" fill="#999999"/>
<path d="M518.848 387C519.678 387 520.352 386.328 520.352 385.5C520.352 384.672 519.678 384 518.848 384C518.017 384 517.344 384.672 517.344 385.5C517.344 386.328 518.017 387 518.848 387Z" fill="#999999"/>
<path d="M542.91 387C543.741 387 544.414 386.328 544.414 385.5C544.414 384.672 543.741 384 542.91 384C542.08 384 541.406 384.672 541.406 385.5C541.406 386.328 542.08 387 542.91 387Z" fill="#999999"/>
<path d="M326.348 387C327.178 387 327.852 386.328 327.852 385.5C327.852 384.672 327.178 384 326.348 384C325.517 384 324.844 384.672 324.844 385.5C324.844 386.328 325.517 387 326.348 387Z" fill="#999999"/>
<path d="M350.41 411C351.241 411 351.914 410.328 351.914 409.5C351.914 408.672 351.241 408 350.41 408C349.58 408 348.906 408.672 348.906 409.5C348.906 410.328 349.58 411 350.41 411Z" fill="#999999"/>
<path d="M374.473 411C375.303 411 375.977 410.328 375.977 409.5C375.977 408.672 375.303 408 374.473 408C373.642 408 372.969 408.672 372.969 409.5C372.969 410.328 373.642 411 374.473 411Z" fill="#999999"/>
<path d="M398.535 411C399.366 411 400.039 410.328 400.039 409.5C400.039 408.672 399.366 408 398.535 408C397.705 408 397.031 408.672 397.031 409.5C397.031 410.328 397.705 411 398.535 411Z" fill="#999999"/>
<path d="M422.598 411C423.428 411 424.102 410.328 424.102 409.5C424.102 408.672 423.428 408 422.598 408C421.767 408 421.094 408.672 421.094 409.5C421.094 410.328 421.767 411 422.598 411Z" fill="#999999"/>
<path d="M446.66 411C447.491 411 448.164 410.328 448.164 409.5C448.164 408.672 447.491 408 446.66 408C445.83 408 445.156 408.672 445.156 409.5C445.156 410.328 445.83 411 446.66 411Z" fill="#999999"/>
<path d="M470.723 411C471.553 411 472.227 410.328 472.227 409.5C472.227 408.672 471.553 408 470.723 408C469.892 408 469.219 408.672 469.219 409.5C469.219 410.328 469.892 411 470.723 411Z" fill="#999999"/>
<path d="M494.785 411C495.616 411 496.289 410.328 496.289 409.5C496.289 408.672 495.616 408 494.785 408C493.955 408 493.281 408.672 493.281 409.5C493.281 410.328 493.955 411 494.785 411Z" fill="#999999"/>
<path d="M518.848 411C519.678 411 520.352 410.328 520.352 409.5C520.352 408.672 519.678 408 518.848 408C518.017 408 517.344 408.672 517.344 409.5C517.344 410.328 518.017 411 518.848 411Z" fill="#999999"/>
<path d="M542.91 411C543.741 411 544.414 410.328 544.414 409.5C544.414 408.672 543.741 408 542.91 408C542.08 408 541.406 408.672 541.406 409.5C541.406 410.328 542.08 411 542.91 411Z" fill="#999999"/>
<path d="M326.348 411C327.178 411 327.852 410.328 327.852 409.5C327.852 408.672 327.178 408 326.348 408C325.517 408 324.844 408.672 324.844 409.5C324.844 410.328 325.517 411 326.348 411Z" fill="#999999"/>
<path d="M350.41 435C351.241 435 351.914 434.328 351.914 433.5C351.914 432.672 351.241 432 350.41 432C349.58 432 348.906 432.672 348.906 433.5C348.906 434.328 349.58 435 350.41 435Z" fill="#999999"/>
<path d="M374.473 435C375.303 435 375.977 434.328 375.977 433.5C375.977 432.672 375.303 432 374.473 432C373.642 432 372.969 432.672 372.969 433.5C372.969 434.328 373.642 435 374.473 435Z" fill="#999999"/>
<path d="M398.535 435C399.366 435 400.039 434.328 400.039 433.5C400.039 432.672 399.366 432 398.535 432C397.705 432 397.031 432.672 397.031 433.5C397.031 434.328 397.705 435 398.535 435Z" fill="#999999"/>
<path d="M422.598 435C423.428 435 424.102 434.328 424.102 433.5C424.102 432.672 423.428 432 422.598 432C421.767 432 421.094 432.672 421.094 433.5C421.094 434.328 421.767 435 422.598 435Z" fill="#999999"/>
<path d="M446.66 435C447.491 435 448.164 434.328 448.164 433.5C448.164 432.672 447.491 432 446.66 432C445.83 432 445.156 432.672 445.156 433.5C445.156 434.328 445.83 435 446.66 435Z" fill="#999999"/>
<path d="M470.723 435C471.553 435 472.227 434.328 472.227 433.5C472.227 432.672 471.553 432 470.723 432C469.892 432 469.219 432.672 469.219 433.5C469.219 434.328 469.892 435 470.723 435Z" fill="#999999"/>
<path d="M494.785 435C495.616 435 496.289 434.328 496.289 433.5C496.289 432.672 495.616 432 494.785 432C493.955 432 493.281 432.672 493.281 433.5C493.281 434.328 493.955 435 494.785 435Z" fill="#999999"/>
<path d="M518.848 435C519.678 435 520.352 434.328 520.352 433.5C520.352 432.672 519.678 432 518.848 432C518.017 432 517.344 432.672 517.344 433.5C517.344 434.328 518.017 435 518.848 435Z" fill="#999999"/>
<path d="M542.91 435C543.741 435 544.414 434.328 544.414 433.5C544.414 432.672 543.741 432 542.91 432C542.08 432 541.406 432.672 541.406 433.5C541.406 434.328 542.08 435 542.91 435Z" fill="#999999"/>
<path d="M326.348 435C327.178 435 327.852 434.328 327.852 433.5C327.852 432.672 327.178 432 326.348 432C325.517 432 324.844 432.672 324.844 433.5C324.844 434.328 325.517 435 326.348 435Z" fill="#999999"/>
<path d="M350.41 459C351.241 459 351.914 458.328 351.914 457.5C351.914 456.672 351.241 456 350.41 456C349.58 456 348.906 456.672 348.906 457.5C348.906 458.328 349.58 459 350.41 459Z" fill="#999999"/>
<path d="M374.473 459C375.303 459 375.977 458.328 375.977 457.5C375.977 456.672 375.303 456 374.473 456C373.642 456 372.969 456.672 372.969 457.5C372.969 458.328 373.642 459 374.473 459Z" fill="#999999"/>
<path d="M398.535 459C399.366 459 400.039 458.328 400.039 457.5C400.039 456.672 399.366 456 398.535 456C397.705 456 397.031 456.672 397.031 457.5C397.031 458.328 397.705 459 398.535 459Z" fill="#999999"/>
<path d="M422.598 459C423.428 459 424.102 458.328 424.102 457.5C424.102 456.672 423.428 456 422.598 456C421.767 456 421.094 456.672 421.094 457.5C421.094 458.328 421.767 459 422.598 459Z" fill="#999999"/>
<path d="M446.66 459C447.491 459 448.164 458.328 448.164 457.5C448.164 456.672 447.491 456 446.66 456C445.83 456 445.156 456.672 445.156 457.5C445.156 458.328 445.83 459 446.66 459Z" fill="#999999"/>
<path d="M470.723 459C471.553 459 472.227 458.328 472.227 457.5C472.227 456.672 471.553 456 470.723 456C469.892 456 469.219 456.672 469.219 457.5C469.219 458.328 469.892 459 470.723 459Z" fill="#999999"/>
<path d="M494.785 459C495.616 459 496.289 458.328 496.289 457.5C496.289 456.672 495.616 456 494.785 456C493.955 456 493.281 456.672 493.281 457.5C493.281 458.328 493.955 459 494.785 459Z" fill="#999999"/>
<path d="M518.848 459C519.678 459 520.352 458.328 520.352 457.5C520.352 456.672 519.678 456 518.848 456C518.017 456 517.344 456.672 517.344 457.5C517.344 458.328 518.017 459 518.848 459Z" fill="#999999"/>
<path d="M542.91 459C543.741 459 544.414 458.328 544.414 457.5C544.414 456.672 543.741 456 542.91 456C542.08 456 541.406 456.672 541.406 457.5C541.406 458.328 542.08 459 542.91 459Z" fill="#999999"/>
<path d="M326.348 459C327.178 459 327.852 458.328 327.852 457.5C327.852 456.672 327.178 456 326.348 456C325.517 456 324.844 456.672 324.844 457.5C324.844 458.328 325.517 459 326.348 459Z" fill="#999999"/>
<path d="M350.41 483C351.241 483 351.914 482.328 351.914 481.5C351.914 480.672 351.241 480 350.41 480C349.58 480 348.906 480.672 348.906 481.5C348.906 482.328 349.58 483 350.41 483Z" fill="#999999"/>
<path d="M374.473 483C375.303 483 375.977 482.328 375.977 481.5C375.977 480.672 375.303 480 374.473 480C373.642 480 372.969 480.672 372.969 481.5C372.969 482.328 373.642 483 374.473 483Z" fill="#999999"/>
<path d="M398.535 483C399.366 483 400.039 482.328 400.039 481.5C400.039 480.672 399.366 480 398.535 480C397.705 480 397.031 480.672 397.031 481.5C397.031 482.328 397.705 483 398.535 483Z" fill="#999999"/>
<path d="M422.598 483C423.428 483 424.102 482.328 424.102 481.5C424.102 480.672 423.428 480 422.598 480C421.767 480 421.094 480.672 421.094 481.5C421.094 482.328 421.767 483 422.598 483Z" fill="#999999"/>
<path d="M446.66 483C447.491 483 448.164 482.328 448.164 481.5C448.164 480.672 447.491 480 446.66 480C445.83 480 445.156 480.672 445.156 481.5C445.156 482.328 445.83 483 446.66 483Z" fill="#999999"/>
<path d="M470.723 483C471.553 483 472.227 482.328 472.227 481.5C472.227 480.672 471.553 480 470.723 480C469.892 480 469.219 480.672 469.219 481.5C469.219 482.328 469.892 483 470.723 483Z" fill="#999999"/>
<path d="M494.785 483C495.616 483 496.289 482.328 496.289 481.5C496.289 480.672 495.616 480 494.785 480C493.955 480 493.281 480.672 493.281 481.5C493.281 482.328 493.955 483 494.785 483Z" fill="#999999"/>
<path d="M518.848 483C519.678 483 520.352 482.328 520.352 481.5C520.352 480.672 519.678 480 518.848 480C518.017 480 517.344 480.672 517.344 481.5C517.344 482.328 518.017 483 518.848 483Z" fill="#999999"/>
<path d="M542.91 483C543.741 483 544.414 482.328 544.414 481.5C544.414 480.672 543.741 480 542.91 480C542.08 480 541.406 480.672 541.406 481.5C541.406 482.328 542.08 483 542.91 483Z" fill="#999999"/>
<path d="M326.348 483C327.178 483 327.852 482.328 327.852 481.5C327.852 480.672 327.178 480 326.348 480C325.517 480 324.844 480.672 324.844 481.5C324.844 482.328 325.517 483 326.348 483Z" fill="#999999"/>
<path d="M350.41 507C351.241 507 351.914 506.328 351.914 505.5C351.914 504.672 351.241 504 350.41 504C349.58 504 348.906 504.672 348.906 505.5C348.906 506.328 349.58 507 350.41 507Z" fill="#999999"/>
<path d="M374.473 507C375.303 507 375.977 506.328 375.977 505.5C375.977 504.672 375.303 504 374.473 504C373.642 504 372.969 504.672 372.969 505.5C372.969 506.328 373.642 507 374.473 507Z" fill="#999999"/>
<path d="M398.535 507C399.366 507 400.039 506.328 400.039 505.5C400.039 504.672 399.366 504 398.535 504C397.705 504 397.031 504.672 397.031 505.5C397.031 506.328 397.705 507 398.535 507Z" fill="#999999"/>
<path d="M422.598 507C423.428 507 424.102 506.328 424.102 505.5C424.102 504.672 423.428 504 422.598 504C421.767 504 421.094 504.672 421.094 505.5C421.094 506.328 421.767 507 422.598 507Z" fill="#999999"/>
<path d="M446.66 507C447.491 507 448.164 506.328 448.164 505.5C448.164 504.672 447.491 504 446.66 504C445.83 504 445.156 504.672 445.156 505.5C445.156 506.328 445.83 507 446.66 507Z" fill="#999999"/>
<path d="M470.723 507C471.553 507 472.227 506.328 472.227 505.5C472.227 504.672 471.553 504 470.723 504C469.892 504 469.219 504.672 469.219 505.5C469.219 506.328 469.892 507 470.723 507Z" fill="#999999"/>
<path d="M494.785 507C495.616 507 496.289 506.328 496.289 505.5C496.289 504.672 495.616 504 494.785 504C493.955 504 493.281 504.672 493.281 505.5C493.281 506.328 493.955 507 494.785 507Z" fill="#999999"/>
<path d="M518.848 507C519.678 507 520.352 506.328 520.352 505.5C520.352 504.672 519.678 504 518.848 504C518.017 504 517.344 504.672 517.344 505.5C517.344 506.328 518.017 507 518.848 507Z" fill="#999999"/>
<path d="M542.91 507C543.741 507 544.414 506.328 544.414 505.5C544.414 504.672 543.741 504 542.91 504C542.08 504 541.406 504.672 541.406 505.5C541.406 506.328 542.08 507 542.91 507Z" fill="#999999"/>
<path d="M326.348 507C327.178 507 327.852 506.328 327.852 505.5C327.852 504.672 327.178 504 326.348 504C325.517 504 324.844 504.672 324.844 505.5C324.844 506.328 325.517 507 326.348 507Z" fill="#999999"/>
<path d="M350.41 531C351.241 531 351.914 530.328 351.914 529.5C351.914 528.672 351.241 528 350.41 528C349.58 528 348.906 528.672 348.906 529.5C348.906 530.328 349.58 531 350.41 531Z" fill="#999999"/>
<path d="M374.473 531C375.303 531 375.977 530.328 375.977 529.5C375.977 528.672 375.303 528 374.473 528C373.642 528 372.969 528.672 372.969 529.5C372.969 530.328 373.642 531 374.473 531Z" fill="#999999"/>
<path d="M398.535 531C399.366 531 400.039 530.328 400.039 529.5C400.039 528.672 399.366 528 398.535 528C397.705 528 397.031 528.672 397.031 529.5C397.031 530.328 397.705 531 398.535 531Z" fill="#999999"/>
<path d="M422.598 531C423.428 531 424.102 530.328 424.102 529.5C424.102 528.672 423.428 528 422.598 528C421.767 528 421.094 528.672 421.094 529.5C421.094 530.328 421.767 531 422.598 531Z" fill="#999999"/>
<path d="M446.66 531C447.491 531 448.164 530.328 448.164 529.5C448.164 528.672 447.491 528 446.66 528C445.83 528 445.156 528.672 445.156 529.5C445.156 530.328 445.83 531 446.66 531Z" fill="#999999"/>
<path d="M470.723 531C471.553 531 472.227 530.328 472.227 529.5C472.227 528.672 471.553 528 470.723 528C469.892 528 469.219 528.672 469.219 529.5C469.219 530.328 469.892 531 470.723 531Z" fill="#999999"/>
<path d="M494.785 531C495.616 531 496.289 530.328 496.289 529.5C496.289 528.672 495.616 528 494.785 528C493.955 528 493.281 528.672 493.281 529.5C493.281 530.328 493.955 531 494.785 531Z" fill="#999999"/>
<path d="M518.848 531C519.678 531 520.352 530.328 520.352 529.5C520.352 528.672 519.678 528 518.848 528C518.017 528 517.344 528.672 517.344 529.5C517.344 530.328 518.017 531 518.848 531Z" fill="#999999"/>
<path d="M542.91 531C543.741 531 544.414 530.328 544.414 529.5C544.414 528.672 543.741 528 542.91 528C542.08 528 541.406 528.672 541.406 529.5C541.406 530.328 542.08 531 542.91 531Z" fill="#999999"/>
<path d="M326.348 531C327.178 531 327.852 530.328 327.852 529.5C327.852 528.672 327.178 528 326.348 528C325.517 528 324.844 528.672 324.844 529.5C324.844 530.328 325.517 531 326.348 531Z" fill="#999999"/>
<path d="M350.41 555C351.241 555 351.914 554.328 351.914 553.5C351.914 552.672 351.241 552 350.41 552C349.58 552 348.906 552.672 348.906 553.5C348.906 554.328 349.58 555 350.41 555Z" fill="#999999"/>
<path d="M374.473 555C375.303 555 375.977 554.328 375.977 553.5C375.977 552.672 375.303 552 374.473 552C373.642 552 372.969 552.672 372.969 553.5C372.969 554.328 373.642 555 374.473 555Z" fill="#999999"/>
<path d="M398.535 555C399.366 555 400.039 554.328 400.039 553.5C400.039 552.672 399.366 552 398.535 552C397.705 552 397.031 552.672 397.031 553.5C397.031 554.328 397.705 555 398.535 555Z" fill="#999999"/>
<path d="M422.598 555C423.428 555 424.102 554.328 424.102 553.5C424.102 552.672 423.428 552 422.598 552C421.767 552 421.094 552.672 421.094 553.5C421.094 554.328 421.767 555 422.598 555Z" fill="#999999"/>
<path d="M446.66 555C447.491 555 448.164 554.328 448.164 553.5C448.164 552.672 447.491 552 446.66 552C445.83 552 445.156 552.672 445.156 553.5C445.156 554.328 445.83 555 446.66 555Z" fill="#999999"/>
<path d="M470.723 555C471.553 555 472.227 554.328 472.227 553.5C472.227 552.672 471.553 552 470.723 552C469.892 552 469.219 552.672 469.219 553.5C469.219 554.328 469.892 555 470.723 555Z" fill="#999999"/>
<path d="M494.785 555C495.616 555 496.289 554.328 496.289 553.5C496.289 552.672 495.616 552 494.785 552C493.955 552 493.281 552.672 493.281 553.5C493.281 554.328 493.955 555 494.785 555Z" fill="#999999"/>
<path d="M518.848 555C519.678 555 520.352 554.328 520.352 553.5C520.352 552.672 519.678 552 518.848 552C518.017 552 517.344 552.672 517.344 553.5C517.344 554.328 518.017 555 518.848 555Z" fill="#999999"/>
<path d="M542.91 555C543.741 555 544.414 554.328 544.414 553.5C544.414 552.672 543.741 552 542.91 552C542.08 552 541.406 552.672 541.406 553.5C541.406 554.328 542.08 555 542.91 555Z" fill="#999999"/>
<path d="M326.348 555C327.178 555 327.852 554.328 327.852 553.5C327.852 552.672 327.178 552 326.348 552C325.517 552 324.844 552.672 324.844 553.5C324.844 554.328 325.517 555 326.348 555Z" fill="#999999"/>
<path d="M350.41 579C351.241 579 351.914 578.328 351.914 577.5C351.914 576.672 351.241 576 350.41 576C349.58 576 348.906 576.672 348.906 577.5C348.906 578.328 349.58 579 350.41 579Z" fill="#999999"/>
<path d="M374.473 579C375.303 579 375.977 578.328 375.977 577.5C375.977 576.672 375.303 576 374.473 576C373.642 576 372.969 576.672 372.969 577.5C372.969 578.328 373.642 579 374.473 579Z" fill="#999999"/>
<path d="M398.535 579C399.366 579 400.039 578.328 400.039 577.5C400.039 576.672 399.366 576 398.535 576C397.705 576 397.031 576.672 397.031 577.5C397.031 578.328 397.705 579 398.535 579Z" fill="#999999"/>
<path d="M422.598 579C423.428 579 424.102 578.328 424.102 577.5C424.102 576.672 423.428 576 422.598 576C421.767 576 421.094 576.672 421.094 577.5C421.094 578.328 421.767 579 422.598 579Z" fill="#999999"/>
<path d="M446.66 579C447.491 579 448.164 578.328 448.164 577.5C448.164 576.672 447.491 576 446.66 576C445.83 576 445.156 576.672 445.156 577.5C445.156 578.328 445.83 579 446.66 579Z" fill="#999999"/>
<path d="M470.723 579C471.553 579 472.227 578.328 472.227 577.5C472.227 576.672 471.553 576 470.723 576C469.892 576 469.219 576.672 469.219 577.5C469.219 578.328 469.892 579 470.723 579Z" fill="#999999"/>
<path d="M494.785 579C495.616 579 496.289 578.328 496.289 577.5C496.289 576.672 495.616 576 494.785 576C493.955 576 493.281 576.672 493.281 577.5C493.281 578.328 493.955 579 494.785 579Z" fill="#999999"/>
<path d="M518.848 579C519.678 579 520.352 578.328 520.352 577.5C520.352 576.672 519.678 576 518.848 576C518.017 576 517.344 576.672 517.344 577.5C517.344 578.328 518.017 579 518.848 579Z" fill="#999999"/>
<path d="M542.91 579C543.741 579 544.414 578.328 544.414 577.5C544.414 576.672 543.741 576 542.91 576C542.08 576 541.406 576.672 541.406 577.5C541.406 578.328 542.08 579 542.91 579Z" fill="#999999"/>
<path d="M326.348 579C327.178 579 327.852 578.328 327.852 577.5C327.852 576.672 327.178 576 326.348 576C325.517 576 324.844 576.672 324.844 577.5C324.844 578.328 325.517 579 326.348 579Z" fill="#999999"/>
<path d="M350.41 603C351.241 603 351.914 602.328 351.914 601.5C351.914 600.672 351.241 600 350.41 600C349.58 600 348.906 600.672 348.906 601.5C348.906 602.328 349.58 603 350.41 603Z" fill="#999999"/>
<path d="M374.473 603C375.303 603 375.977 602.328 375.977 601.5C375.977 600.672 375.303 600 374.473 600C373.642 600 372.969 600.672 372.969 601.5C372.969 602.328 373.642 603 374.473 603Z" fill="#999999"/>
<path d="M398.535 603C399.366 603 400.039 602.328 400.039 601.5C400.039 600.672 399.366 600 398.535 600C397.705 600 397.031 600.672 397.031 601.5C397.031 602.328 397.705 603 398.535 603Z" fill="#999999"/>
<path d="M422.598 603C423.428 603 424.102 602.328 424.102 601.5C424.102 600.672 423.428 600 422.598 600C421.767 600 421.094 600.672 421.094 601.5C421.094 602.328 421.767 603 422.598 603Z" fill="#999999"/>
<path d="M446.66 603C447.491 603 448.164 602.328 448.164 601.5C448.164 600.672 447.491 600 446.66 600C445.83 600 445.156 600.672 445.156 601.5C445.156 602.328 445.83 603 446.66 603Z" fill="#999999"/>
<path d="M470.723 603C471.553 603 472.227 602.328 472.227 601.5C472.227 600.672 471.553 600 470.723 600C469.892 600 469.219 600.672 469.219 601.5C469.219 602.328 469.892 603 470.723 603Z" fill="#999999"/>
<path d="M494.785 603C495.616 603 496.289 602.328 496.289 601.5C496.289 600.672 495.616 600 494.785 600C493.955 600 493.281 600.672 493.281 601.5C493.281 602.328 493.955 603 494.785 603Z" fill="#999999"/>
<path d="M518.848 603C519.678 603 520.352 602.328 520.352 601.5C520.352 600.672 519.678 600 518.848 600C518.017 600 517.344 600.672 517.344 601.5C517.344 602.328 518.017 603 518.848 603Z" fill="#999999"/>
<path d="M542.91 603C543.741 603 544.414 602.328 544.414 601.5C544.414 600.672 543.741 600 542.91 600C542.08 600 541.406 600.672 541.406 601.5C541.406 602.328 542.08 603 542.91 603Z" fill="#999999"/>
<path d="M326.348 603C327.178 603 327.852 602.328 327.852 601.5C327.852 600.672 327.178 600 326.348 600C325.517 600 324.844 600.672 324.844 601.5C324.844 602.328 325.517 603 326.348 603Z" fill="#999999"/>
<path d="M350.41 627C351.241 627 351.914 626.328 351.914 625.5C351.914 624.672 351.241 624 350.41 624C349.58 624 348.906 624.672 348.906 625.5C348.906 626.328 349.58 627 350.41 627Z" fill="#999999"/>
<path d="M374.473 627C375.303 627 375.977 626.328 375.977 625.5C375.977 624.672 375.303 624 374.473 624C373.642 624 372.969 624.672 372.969 625.5C372.969 626.328 373.642 627 374.473 627Z" fill="#999999"/>
<path d="M398.535 627C399.366 627 400.039 626.328 400.039 625.5C400.039 624.672 399.366 624 398.535 624C397.705 624 397.031 624.672 397.031 625.5C397.031 626.328 397.705 627 398.535 627Z" fill="#999999"/>
<path d="M422.598 627C423.428 627 424.102 626.328 424.102 625.5C424.102 624.672 423.428 624 422.598 624C421.767 624 421.094 624.672 421.094 625.5C421.094 626.328 421.767 627 422.598 627Z" fill="#999999"/>
<path d="M446.66 627C447.491 627 448.164 626.328 448.164 625.5C448.164 624.672 447.491 624 446.66 624C445.83 624 445.156 624.672 445.156 625.5C445.156 626.328 445.83 627 446.66 627Z" fill="#999999"/>
<path d="M470.723 627C471.553 627 472.227 626.328 472.227 625.5C472.227 624.672 471.553 624 470.723 624C469.892 624 469.219 624.672 469.219 625.5C469.219 626.328 469.892 627 470.723 627Z" fill="#999999"/>
<path d="M494.785 627C495.616 627 496.289 626.328 496.289 625.5C496.289 624.672 495.616 624 494.785 624C493.955 624 493.281 624.672 493.281 625.5C493.281 626.328 493.955 627 494.785 627Z" fill="#999999"/>
<path d="M518.848 627C519.678 627 520.352 626.328 520.352 625.5C520.352 624.672 519.678 624 518.848 624C518.017 624 517.344 624.672 517.344 625.5C517.344 626.328 518.017 627 518.848 627Z" fill="#999999"/>
<path d="M542.91 627C543.741 627 544.414 626.328 544.414 625.5C544.414 624.672 543.741 624 542.91 624C542.08 624 541.406 624.672 541.406 625.5C541.406 626.328 542.08 627 542.91 627Z" fill="#999999"/>
<path d="M326.348 627C327.178 627 327.852 626.328 327.852 625.5C327.852 624.672 327.178 624 326.348 624C325.517 624 324.844 624.672 324.844 625.5C324.844 626.328 325.517 627 326.348 627Z" fill="#999999"/>
<path d="M350.41 27C351.241 27 351.914 26.3284 351.914 25.5C351.914 24.6716 351.241 24 350.41 24C349.58 24 348.906 24.6716 348.906 25.5C348.906 26.3284 349.58 27 350.41 27Z" fill="#999999"/>
<path d="M350.41 3C351.241 3 351.914 2.32843 351.914 1.5C351.914 0.671573 351.241 0 350.41 0C349.58 0 348.906 0.671573 348.906 1.5C348.906 2.32843 349.58 3 350.41 3Z" fill="#999999"/>
<path d="M374.473 27C375.303 27 375.977 26.3284 375.977 25.5C375.977 24.6716 375.303 24 374.473 24C373.642 24 372.969 24.6716 372.969 25.5C372.969 26.3284 373.642 27 374.473 27Z" fill="#999999"/>
<path d="M374.473 3C375.303 3 375.977 2.32843 375.977 1.5C375.977 0.671573 375.303 0 374.473 0C373.642 0 372.969 0.671573 372.969 1.5C372.969 2.32843 373.642 3 374.473 3Z" fill="#999999"/>
<path d="M398.535 27C399.366 27 400.039 26.3284 400.039 25.5C400.039 24.6716 399.366 24 398.535 24C397.705 24 397.031 24.6716 397.031 25.5C397.031 26.3284 397.705 27 398.535 27Z" fill="#999999"/>
<path d="M398.535 3C399.366 3 400.039 2.32843 400.039 1.5C400.039 0.671573 399.366 0 398.535 0C397.705 0 397.031 0.671573 397.031 1.5C397.031 2.32843 397.705 3 398.535 3Z" fill="#999999"/>
<path d="M422.598 27C423.428 27 424.102 26.3284 424.102 25.5C424.102 24.6716 423.428 24 422.598 24C421.767 24 421.094 24.6716 421.094 25.5C421.094 26.3284 421.767 27 422.598 27Z" fill="#999999"/>
<path d="M422.598 3C423.428 3 424.102 2.32843 424.102 1.5C424.102 0.671573 423.428 0 422.598 0C421.767 0 421.094 0.671573 421.094 1.5C421.094 2.32843 421.767 3 422.598 3Z" fill="#999999"/>
<path d="M446.66 27C447.491 27 448.164 26.3284 448.164 25.5C448.164 24.6716 447.491 24 446.66 24C445.83 24 445.156 24.6716 445.156 25.5C445.156 26.3284 445.83 27 446.66 27Z" fill="#999999"/>
<path d="M446.66 3C447.491 3 448.164 2.32843 448.164 1.5C448.164 0.671573 447.491 0 446.66 0C445.83 0 445.156 0.671573 445.156 1.5C445.156 2.32843 445.83 3 446.66 3Z" fill="#999999"/>
<path d="M470.723 27C471.553 27 472.227 26.3284 472.227 25.5C472.227 24.6716 471.553 24 470.723 24C469.892 24 469.219 24.6716 469.219 25.5C469.219 26.3284 469.892 27 470.723 27Z" fill="#999999"/>
<path d="M470.723 3C471.553 3 472.227 2.32843 472.227 1.5C472.227 0.671573 471.553 0 470.723 0C469.892 0 469.219 0.671573 469.219 1.5C469.219 2.32843 469.892 3 470.723 3Z" fill="#999999"/>
<path d="M494.785 27C495.616 27 496.289 26.3284 496.289 25.5C496.289 24.6716 495.616 24 494.785 24C493.955 24 493.281 24.6716 493.281 25.5C493.281 26.3284 493.955 27 494.785 27Z" fill="#999999"/>
<path d="M494.785 3C495.616 3 496.289 2.32843 496.289 1.5C496.289 0.671573 495.616 0 494.785 0C493.955 0 493.281 0.671573 493.281 1.5C493.281 2.32843 493.955 3 494.785 3Z" fill="#999999"/>
<path d="M518.848 27C519.678 27 520.352 26.3284 520.352 25.5C520.352 24.6716 519.678 24 518.848 24C518.017 24 517.344 24.6716 517.344 25.5C517.344 26.3284 518.017 27 518.848 27Z" fill="#999999"/>
<path d="M518.848 3C519.678 3 520.352 2.32843 520.352 1.5C520.352 0.671573 519.678 0 518.848 0C518.017 0 517.344 0.671573 517.344 1.5C517.344 2.32843 518.017 3 518.848 3Z" fill="#999999"/>
<path d="M542.91 27C543.741 27 544.414 26.3284 544.414 25.5C544.414 24.6716 543.741 24 542.91 24C542.08 24 541.406 24.6716 541.406 25.5C541.406 26.3284 542.08 27 542.91 27Z" fill="#999999"/>
<path d="M326.348 27C327.178 27 327.852 26.3284 327.852 25.5C327.852 24.6716 327.178 24 326.348 24C325.517 24 324.844 24.6716 324.844 25.5C324.844 26.3284 325.517 27 326.348 27Z" fill="#999999"/>
<path d="M542.91 3C543.741 3 544.414 2.32843 544.414 1.5C544.414 0.671573 543.741 0 542.91 0C542.08 0 541.406 0.671573 541.406 1.5C541.406 2.32843 542.08 3 542.91 3Z" fill="#999999"/>
<path d="M326.348 3C327.178 3 327.852 2.32843 327.852 1.5C327.852 0.671573 327.178 0 326.348 0C325.517 0 324.844 0.671573 324.844 1.5C324.844 2.32843 325.517 3 326.348 3Z" fill="#999999"/>
<path d="M350.41 51C351.241 51 351.914 50.3284 351.914 49.5C351.914 48.6716 351.241 48 350.41 48C349.58 48 348.906 48.6716 348.906 49.5C348.906 50.3284 349.58 51 350.41 51Z" fill="#999999"/>
<path d="M374.473 51C375.303 51 375.977 50.3284 375.977 49.5C375.977 48.6716 375.303 48 374.473 48C373.642 48 372.969 48.6716 372.969 49.5C372.969 50.3284 373.642 51 374.473 51Z" fill="#999999"/>
<path d="M398.535 51C399.366 51 400.039 50.3284 400.039 49.5C400.039 48.6716 399.366 48 398.535 48C397.705 48 397.031 48.6716 397.031 49.5C397.031 50.3284 397.705 51 398.535 51Z" fill="#999999"/>
<path d="M422.598 51C423.428 51 424.102 50.3284 424.102 49.5C424.102 48.6716 423.428 48 422.598 48C421.767 48 421.094 48.6716 421.094 49.5C421.094 50.3284 421.767 51 422.598 51Z" fill="#999999"/>
<path d="M446.66 51C447.491 51 448.164 50.3284 448.164 49.5C448.164 48.6716 447.491 48 446.66 48C445.83 48 445.156 48.6716 445.156 49.5C445.156 50.3284 445.83 51 446.66 51Z" fill="#999999"/>
<path d="M470.723 51C471.553 51 472.227 50.3284 472.227 49.5C472.227 48.6716 471.553 48 470.723 48C469.892 48 469.219 48.6716 469.219 49.5C469.219 50.3284 469.892 51 470.723 51Z" fill="#999999"/>
<path d="M494.785 51C495.616 51 496.289 50.3284 496.289 49.5C496.289 48.6716 495.616 48 494.785 48C493.955 48 493.281 48.6716 493.281 49.5C493.281 50.3284 493.955 51 494.785 51Z" fill="#999999"/>
<path d="M518.848 51C519.678 51 520.352 50.3284 520.352 49.5C520.352 48.6716 519.678 48 518.848 48C518.017 48 517.344 48.6716 517.344 49.5C517.344 50.3284 518.017 51 518.848 51Z" fill="#999999"/>
<path d="M542.91 51C543.741 51 544.414 50.3284 544.414 49.5C544.414 48.6716 543.741 48 542.91 48C542.08 48 541.406 48.6716 541.406 49.5C541.406 50.3284 542.08 51 542.91 51Z" fill="#999999"/>
<path d="M326.348 51C327.178 51 327.852 50.3284 327.852 49.5C327.852 48.6716 327.178 48 326.348 48C325.517 48 324.844 48.6716 324.844 49.5C324.844 50.3284 325.517 51 326.348 51Z" fill="#999999"/>
<path d="M350.41 75C351.241 75 351.914 74.3284 351.914 73.5C351.914 72.6716 351.241 72 350.41 72C349.58 72 348.906 72.6716 348.906 73.5C348.906 74.3284 349.58 75 350.41 75Z" fill="#999999"/>
<path d="M374.473 75C375.303 75 375.977 74.3284 375.977 73.5C375.977 72.6716 375.303 72 374.473 72C373.642 72 372.969 72.6716 372.969 73.5C372.969 74.3284 373.642 75 374.473 75Z" fill="#999999"/>
<path d="M398.535 75C399.366 75 400.039 74.3284 400.039 73.5C400.039 72.6716 399.366 72 398.535 72C397.705 72 397.031 72.6716 397.031 73.5C397.031 74.3284 397.705 75 398.535 75Z" fill="#999999"/>
<path d="M422.598 75C423.428 75 424.102 74.3284 424.102 73.5C424.102 72.6716 423.428 72 422.598 72C421.767 72 421.094 72.6716 421.094 73.5C421.094 74.3284 421.767 75 422.598 75Z" fill="#999999"/>
<path d="M446.66 75C447.491 75 448.164 74.3284 448.164 73.5C448.164 72.6716 447.491 72 446.66 72C445.83 72 445.156 72.6716 445.156 73.5C445.156 74.3284 445.83 75 446.66 75Z" fill="#999999"/>
<path d="M470.723 75C471.553 75 472.227 74.3284 472.227 73.5C472.227 72.6716 471.553 72 470.723 72C469.892 72 469.219 72.6716 469.219 73.5C469.219 74.3284 469.892 75 470.723 75Z" fill="#999999"/>
<path d="M494.785 75C495.616 75 496.289 74.3284 496.289 73.5C496.289 72.6716 495.616 72 494.785 72C493.955 72 493.281 72.6716 493.281 73.5C493.281 74.3284 493.955 75 494.785 75Z" fill="#999999"/>
<path d="M518.848 75C519.678 75 520.352 74.3284 520.352 73.5C520.352 72.6716 519.678 72 518.848 72C518.017 72 517.344 72.6716 517.344 73.5C517.344 74.3284 518.017 75 518.848 75Z" fill="#999999"/>
<path d="M542.91 75C543.741 75 544.414 74.3284 544.414 73.5C544.414 72.6716 543.741 72 542.91 72C542.08 72 541.406 72.6716 541.406 73.5C541.406 74.3284 542.08 75 542.91 75Z" fill="#999999"/>
<path d="M326.348 75C327.178 75 327.852 74.3284 327.852 73.5C327.852 72.6716 327.178 72 326.348 72C325.517 72 324.844 72.6716 324.844 73.5C324.844 74.3284 325.517 75 326.348 75Z" fill="#999999"/>
<path d="M350.41 99C351.241 99 351.914 98.3284 351.914 97.5C351.914 96.6716 351.241 96 350.41 96C349.58 96 348.906 96.6716 348.906 97.5C348.906 98.3284 349.58 99 350.41 99Z" fill="#999999"/>
<path d="M374.473 99C375.303 99 375.977 98.3284 375.977 97.5C375.977 96.6716 375.303 96 374.473 96C373.642 96 372.969 96.6716 372.969 97.5C372.969 98.3284 373.642 99 374.473 99Z" fill="#999999"/>
<path d="M398.535 99C399.366 99 400.039 98.3284 400.039 97.5C400.039 96.6716 399.366 96 398.535 96C397.705 96 397.031 96.6716 397.031 97.5C397.031 98.3284 397.705 99 398.535 99Z" fill="#999999"/>
<path d="M422.598 99C423.428 99 424.102 98.3284 424.102 97.5C424.102 96.6716 423.428 96 422.598 96C421.767 96 421.094 96.6716 421.094 97.5C421.094 98.3284 421.767 99 422.598 99Z" fill="#999999"/>
<path d="M446.66 99C447.491 99 448.164 98.3284 448.164 97.5C448.164 96.6716 447.491 96 446.66 96C445.83 96 445.156 96.6716 445.156 97.5C445.156 98.3284 445.83 99 446.66 99Z" fill="#999999"/>
<path d="M470.723 99C471.553 99 472.227 98.3284 472.227 97.5C472.227 96.6716 471.553 96 470.723 96C469.892 96 469.219 96.6716 469.219 97.5C469.219 98.3284 469.892 99 470.723 99Z" fill="#999999"/>
<path d="M494.785 99C495.616 99 496.289 98.3284 496.289 97.5C496.289 96.6716 495.616 96 494.785 96C493.955 96 493.281 96.6716 493.281 97.5C493.281 98.3284 493.955 99 494.785 99Z" fill="#999999"/>
<path d="M518.848 99C519.678 99 520.352 98.3284 520.352 97.5C520.352 96.6716 519.678 96 518.848 96C518.017 96 517.344 96.6716 517.344 97.5C517.344 98.3284 518.017 99 518.848 99Z" fill="#999999"/>
<path d="M542.91 99C543.741 99 544.414 98.3284 544.414 97.5C544.414 96.6716 543.741 96 542.91 96C542.08 96 541.406 96.6716 541.406 97.5C541.406 98.3284 542.08 99 542.91 99Z" fill="#999999"/>
<path d="M326.348 99C327.178 99 327.852 98.3284 327.852 97.5C327.852 96.6716 327.178 96 326.348 96C325.517 96 324.844 96.6716 324.844 97.5C324.844 98.3284 325.517 99 326.348 99Z" fill="#999999"/>
<path d="M350.41 123C351.241 123 351.914 122.328 351.914 121.5C351.914 120.672 351.241 120 350.41 120C349.58 120 348.906 120.672 348.906 121.5C348.906 122.328 349.58 123 350.41 123Z" fill="#999999"/>
<path d="M374.473 123C375.303 123 375.977 122.328 375.977 121.5C375.977 120.672 375.303 120 374.473 120C373.642 120 372.969 120.672 372.969 121.5C372.969 122.328 373.642 123 374.473 123Z" fill="#999999"/>
<path d="M398.535 123C399.366 123 400.039 122.328 400.039 121.5C400.039 120.672 399.366 120 398.535 120C397.705 120 397.031 120.672 397.031 121.5C397.031 122.328 397.705 123 398.535 123Z" fill="#999999"/>
<path d="M422.598 123C423.428 123 424.102 122.328 424.102 121.5C424.102 120.672 423.428 120 422.598 120C421.767 120 421.094 120.672 421.094 121.5C421.094 122.328 421.767 123 422.598 123Z" fill="#999999"/>
<path d="M446.66 123C447.491 123 448.164 122.328 448.164 121.5C448.164 120.672 447.491 120 446.66 120C445.83 120 445.156 120.672 445.156 121.5C445.156 122.328 445.83 123 446.66 123Z" fill="#999999"/>
<path d="M470.723 123C471.553 123 472.227 122.328 472.227 121.5C472.227 120.672 471.553 120 470.723 120C469.892 120 469.219 120.672 469.219 121.5C469.219 122.328 469.892 123 470.723 123Z" fill="#999999"/>
<path d="M494.785 123C495.616 123 496.289 122.328 496.289 121.5C496.289 120.672 495.616 120 494.785 120C493.955 120 493.281 120.672 493.281 121.5C493.281 122.328 493.955 123 494.785 123Z" fill="#999999"/>
<path d="M518.848 123C519.678 123 520.352 122.328 520.352 121.5C520.352 120.672 519.678 120 518.848 120C518.017 120 517.344 120.672 517.344 121.5C517.344 122.328 518.017 123 518.848 123Z" fill="#999999"/>
<path d="M542.91 123C543.741 123 544.414 122.328 544.414 121.5C544.414 120.672 543.741 120 542.91 120C542.08 120 541.406 120.672 541.406 121.5C541.406 122.328 542.08 123 542.91 123Z" fill="#999999"/>
<path d="M326.348 123C327.178 123 327.852 122.328 327.852 121.5C327.852 120.672 327.178 120 326.348 120C325.517 120 324.844 120.672 324.844 121.5C324.844 122.328 325.517 123 326.348 123Z" fill="#999999"/>
<path d="M350.41 147C351.241 147 351.914 146.328 351.914 145.5C351.914 144.672 351.241 144 350.41 144C349.58 144 348.906 144.672 348.906 145.5C348.906 146.328 349.58 147 350.41 147Z" fill="#999999"/>
<path d="M374.473 147C375.303 147 375.977 146.328 375.977 145.5C375.977 144.672 375.303 144 374.473 144C373.642 144 372.969 144.672 372.969 145.5C372.969 146.328 373.642 147 374.473 147Z" fill="#999999"/>
<path d="M398.535 147C399.366 147 400.039 146.328 400.039 145.5C400.039 144.672 399.366 144 398.535 144C397.705 144 397.031 144.672 397.031 145.5C397.031 146.328 397.705 147 398.535 147Z" fill="#999999"/>
<path d="M422.598 147C423.428 147 424.102 146.328 424.102 145.5C424.102 144.672 423.428 144 422.598 144C421.767 144 421.094 144.672 421.094 145.5C421.094 146.328 421.767 147 422.598 147Z" fill="#999999"/>
<path d="M446.66 147C447.491 147 448.164 146.328 448.164 145.5C448.164 144.672 447.491 144 446.66 144C445.83 144 445.156 144.672 445.156 145.5C445.156 146.328 445.83 147 446.66 147Z" fill="#999999"/>
<path d="M470.723 147C471.553 147 472.227 146.328 472.227 145.5C472.227 144.672 471.553 144 470.723 144C469.892 144 469.219 144.672 469.219 145.5C469.219 146.328 469.892 147 470.723 147Z" fill="#999999"/>
<path d="M494.785 147C495.616 147 496.289 146.328 496.289 145.5C496.289 144.672 495.616 144 494.785 144C493.955 144 493.281 144.672 493.281 145.5C493.281 146.328 493.955 147 494.785 147Z" fill="#999999"/>
<path d="M518.848 147C519.678 147 520.352 146.328 520.352 145.5C520.352 144.672 519.678 144 518.848 144C518.017 144 517.344 144.672 517.344 145.5C517.344 146.328 518.017 147 518.848 147Z" fill="#999999"/>
<path d="M542.91 147C543.741 147 544.414 146.328 544.414 145.5C544.414 144.672 543.741 144 542.91 144C542.08 144 541.406 144.672 541.406 145.5C541.406 146.328 542.08 147 542.91 147Z" fill="#999999"/>
<path d="M326.348 147C327.178 147 327.852 146.328 327.852 145.5C327.852 144.672 327.178 144 326.348 144C325.517 144 324.844 144.672 324.844 145.5C324.844 146.328 325.517 147 326.348 147Z" fill="#999999"/>
<path d="M350.41 171C351.241 171 351.914 170.328 351.914 169.5C351.914 168.672 351.241 168 350.41 168C349.58 168 348.906 168.672 348.906 169.5C348.906 170.328 349.58 171 350.41 171Z" fill="#999999"/>
<path d="M374.473 171C375.303 171 375.977 170.328 375.977 169.5C375.977 168.672 375.303 168 374.473 168C373.642 168 372.969 168.672 372.969 169.5C372.969 170.328 373.642 171 374.473 171Z" fill="#999999"/>
<path d="M398.535 171C399.366 171 400.039 170.328 400.039 169.5C400.039 168.672 399.366 168 398.535 168C397.705 168 397.031 168.672 397.031 169.5C397.031 170.328 397.705 171 398.535 171Z" fill="#999999"/>
<path d="M422.598 171C423.428 171 424.102 170.328 424.102 169.5C424.102 168.672 423.428 168 422.598 168C421.767 168 421.094 168.672 421.094 169.5C421.094 170.328 421.767 171 422.598 171Z" fill="#999999"/>
<path d="M446.66 171C447.491 171 448.164 170.328 448.164 169.5C448.164 168.672 447.491 168 446.66 168C445.83 168 445.156 168.672 445.156 169.5C445.156 170.328 445.83 171 446.66 171Z" fill="#999999"/>
<path d="M470.723 171C471.553 171 472.227 170.328 472.227 169.5C472.227 168.672 471.553 168 470.723 168C469.892 168 469.219 168.672 469.219 169.5C469.219 170.328 469.892 171 470.723 171Z" fill="#999999"/>
<path d="M494.785 171C495.616 171 496.289 170.328 496.289 169.5C496.289 168.672 495.616 168 494.785 168C493.955 168 493.281 168.672 493.281 169.5C493.281 170.328 493.955 171 494.785 171Z" fill="#999999"/>
<path d="M518.848 171C519.678 171 520.352 170.328 520.352 169.5C520.352 168.672 519.678 168 518.848 168C518.017 168 517.344 168.672 517.344 169.5C517.344 170.328 518.017 171 518.848 171Z" fill="#999999"/>
<path d="M542.91 171C543.741 171 544.414 170.328 544.414 169.5C544.414 168.672 543.741 168 542.91 168C542.08 168 541.406 168.672 541.406 169.5C541.406 170.328 542.08 171 542.91 171Z" fill="#999999"/>
<path d="M326.348 171C327.178 171 327.852 170.328 327.852 169.5C327.852 168.672 327.178 168 326.348 168C325.517 168 324.844 168.672 324.844 169.5C324.844 170.328 325.517 171 326.348 171Z" fill="#999999"/>
<path d="M350.41 195C351.241 195 351.914 194.328 351.914 193.5C351.914 192.672 351.241 192 350.41 192C349.58 192 348.906 192.672 348.906 193.5C348.906 194.328 349.58 195 350.41 195Z" fill="#999999"/>
<path d="M374.473 195C375.303 195 375.977 194.328 375.977 193.5C375.977 192.672 375.303 192 374.473 192C373.642 192 372.969 192.672 372.969 193.5C372.969 194.328 373.642 195 374.473 195Z" fill="#999999"/>
<path d="M398.535 195C399.366 195 400.039 194.328 400.039 193.5C400.039 192.672 399.366 192 398.535 192C397.705 192 397.031 192.672 397.031 193.5C397.031 194.328 397.705 195 398.535 195Z" fill="#999999"/>
<path d="M422.598 195C423.428 195 424.102 194.328 424.102 193.5C424.102 192.672 423.428 192 422.598 192C421.767 192 421.094 192.672 421.094 193.5C421.094 194.328 421.767 195 422.598 195Z" fill="#999999"/>
<path d="M446.66 195C447.491 195 448.164 194.328 448.164 193.5C448.164 192.672 447.491 192 446.66 192C445.83 192 445.156 192.672 445.156 193.5C445.156 194.328 445.83 195 446.66 195Z" fill="#999999"/>
<path d="M470.723 195C471.553 195 472.227 194.328 472.227 193.5C472.227 192.672 471.553 192 470.723 192C469.892 192 469.219 192.672 469.219 193.5C469.219 194.328 469.892 195 470.723 195Z" fill="#999999"/>
<path d="M494.785 195C495.616 195 496.289 194.328 496.289 193.5C496.289 192.672 495.616 192 494.785 192C493.955 192 493.281 192.672 493.281 193.5C493.281 194.328 493.955 195 494.785 195Z" fill="#999999"/>
<path d="M518.848 195C519.678 195 520.352 194.328 520.352 193.5C520.352 192.672 519.678 192 518.848 192C518.017 192 517.344 192.672 517.344 193.5C517.344 194.328 518.017 195 518.848 195Z" fill="#999999"/>
<path d="M542.91 195C543.741 195 544.414 194.328 544.414 193.5C544.414 192.672 543.741 192 542.91 192C542.08 192 541.406 192.672 541.406 193.5C541.406 194.328 542.08 195 542.91 195Z" fill="#999999"/>
<path d="M326.348 195C327.178 195 327.852 194.328 327.852 193.5C327.852 192.672 327.178 192 326.348 192C325.517 192 324.844 192.672 324.844 193.5C324.844 194.328 325.517 195 326.348 195Z" fill="#999999"/>
<path d="M350.41 219C351.241 219 351.914 218.328 351.914 217.5C351.914 216.672 351.241 216 350.41 216C349.58 216 348.906 216.672 348.906 217.5C348.906 218.328 349.58 219 350.41 219Z" fill="#999999"/>
<path d="M374.473 219C375.303 219 375.977 218.328 375.977 217.5C375.977 216.672 375.303 216 374.473 216C373.642 216 372.969 216.672 372.969 217.5C372.969 218.328 373.642 219 374.473 219Z" fill="#999999"/>
<path d="M398.535 219C399.366 219 400.039 218.328 400.039 217.5C400.039 216.672 399.366 216 398.535 216C397.705 216 397.031 216.672 397.031 217.5C397.031 218.328 397.705 219 398.535 219Z" fill="#999999"/>
<path d="M422.598 219C423.428 219 424.102 218.328 424.102 217.5C424.102 216.672 423.428 216 422.598 216C421.767 216 421.094 216.672 421.094 217.5C421.094 218.328 421.767 219 422.598 219Z" fill="#999999"/>
<path d="M446.66 219C447.491 219 448.164 218.328 448.164 217.5C448.164 216.672 447.491 216 446.66 216C445.83 216 445.156 216.672 445.156 217.5C445.156 218.328 445.83 219 446.66 219Z" fill="#999999"/>
<path d="M470.723 219C471.553 219 472.227 218.328 472.227 217.5C472.227 216.672 471.553 216 470.723 216C469.892 216 469.219 216.672 469.219 217.5C469.219 218.328 469.892 219 470.723 219Z" fill="#999999"/>
<path d="M494.785 219C495.616 219 496.289 218.328 496.289 217.5C496.289 216.672 495.616 216 494.785 216C493.955 216 493.281 216.672 493.281 217.5C493.281 218.328 493.955 219 494.785 219Z" fill="#999999"/>
<path d="M518.848 219C519.678 219 520.352 218.328 520.352 217.5C520.352 216.672 519.678 216 518.848 216C518.017 216 517.344 216.672 517.344 217.5C517.344 218.328 518.017 219 518.848 219Z" fill="#999999"/>
<path d="M542.91 219C543.741 219 544.414 218.328 544.414 217.5C544.414 216.672 543.741 216 542.91 216C542.08 216 541.406 216.672 541.406 217.5C541.406 218.328 542.08 219 542.91 219Z" fill="#999999"/>
<path d="M326.348 219C327.178 219 327.852 218.328 327.852 217.5C327.852 216.672 327.178 216 326.348 216C325.517 216 324.844 216.672 324.844 217.5C324.844 218.328 325.517 219 326.348 219Z" fill="#999999"/>
<path d="M350.41 243C351.241 243 351.914 242.328 351.914 241.5C351.914 240.672 351.241 240 350.41 240C349.58 240 348.906 240.672 348.906 241.5C348.906 242.328 349.58 243 350.41 243Z" fill="#999999"/>
<path d="M374.473 243C375.303 243 375.977 242.328 375.977 241.5C375.977 240.672 375.303 240 374.473 240C373.642 240 372.969 240.672 372.969 241.5C372.969 242.328 373.642 243 374.473 243Z" fill="#999999"/>
<path d="M398.535 243C399.366 243 400.039 242.328 400.039 241.5C400.039 240.672 399.366 240 398.535 240C397.705 240 397.031 240.672 397.031 241.5C397.031 242.328 397.705 243 398.535 243Z" fill="#999999"/>
<path d="M422.598 243C423.428 243 424.102 242.328 424.102 241.5C424.102 240.672 423.428 240 422.598 240C421.767 240 421.094 240.672 421.094 241.5C421.094 242.328 421.767 243 422.598 243Z" fill="#999999"/>
<path d="M446.66 243C447.491 243 448.164 242.328 448.164 241.5C448.164 240.672 447.491 240 446.66 240C445.83 240 445.156 240.672 445.156 241.5C445.156 242.328 445.83 243 446.66 243Z" fill="#999999"/>
<path d="M470.723 243C471.553 243 472.227 242.328 472.227 241.5C472.227 240.672 471.553 240 470.723 240C469.892 240 469.219 240.672 469.219 241.5C469.219 242.328 469.892 243 470.723 243Z" fill="#999999"/>
<path d="M494.785 243C495.616 243 496.289 242.328 496.289 241.5C496.289 240.672 495.616 240 494.785 240C493.955 240 493.281 240.672 493.281 241.5C493.281 242.328 493.955 243 494.785 243Z" fill="#999999"/>
<path d="M518.848 243C519.678 243 520.352 242.328 520.352 241.5C520.352 240.672 519.678 240 518.848 240C518.017 240 517.344 240.672 517.344 241.5C517.344 242.328 518.017 243 518.848 243Z" fill="#999999"/>
<path d="M542.91 243C543.741 243 544.414 242.328 544.414 241.5C544.414 240.672 543.741 240 542.91 240C542.08 240 541.406 240.672 541.406 241.5C541.406 242.328 542.08 243 542.91 243Z" fill="#999999"/>
<path d="M326.348 243C327.178 243 327.852 242.328 327.852 241.5C327.852 240.672 327.178 240 326.348 240C325.517 240 324.844 240.672 324.844 241.5C324.844 242.328 325.517 243 326.348 243Z" fill="#999999"/>
<path d="M350.41 267C351.241 267 351.914 266.328 351.914 265.5C351.914 264.672 351.241 264 350.41 264C349.58 264 348.906 264.672 348.906 265.5C348.906 266.328 349.58 267 350.41 267Z" fill="#999999"/>
<path d="M374.473 267C375.303 267 375.977 266.328 375.977 265.5C375.977 264.672 375.303 264 374.473 264C373.642 264 372.969 264.672 372.969 265.5C372.969 266.328 373.642 267 374.473 267Z" fill="#999999"/>
<path d="M398.535 267C399.366 267 400.039 266.328 400.039 265.5C400.039 264.672 399.366 264 398.535 264C397.705 264 397.031 264.672 397.031 265.5C397.031 266.328 397.705 267 398.535 267Z" fill="#999999"/>
<path d="M422.598 267C423.428 267 424.102 266.328 424.102 265.5C424.102 264.672 423.428 264 422.598 264C421.767 264 421.094 264.672 421.094 265.5C421.094 266.328 421.767 267 422.598 267Z" fill="#999999"/>
<path d="M446.66 267C447.491 267 448.164 266.328 448.164 265.5C448.164 264.672 447.491 264 446.66 264C445.83 264 445.156 264.672 445.156 265.5C445.156 266.328 445.83 267 446.66 267Z" fill="#999999"/>
<path d="M470.723 267C471.553 267 472.227 266.328 472.227 265.5C472.227 264.672 471.553 264 470.723 264C469.892 264 469.219 264.672 469.219 265.5C469.219 266.328 469.892 267 470.723 267Z" fill="#999999"/>
<path d="M494.785 267C495.616 267 496.289 266.328 496.289 265.5C496.289 264.672 495.616 264 494.785 264C493.955 264 493.281 264.672 493.281 265.5C493.281 266.328 493.955 267 494.785 267Z" fill="#999999"/>
<path d="M518.848 267C519.678 267 520.352 266.328 520.352 265.5C520.352 264.672 519.678 264 518.848 264C518.017 264 517.344 264.672 517.344 265.5C517.344 266.328 518.017 267 518.848 267Z" fill="#999999"/>
<path d="M542.91 267C543.741 267 544.414 266.328 544.414 265.5C544.414 264.672 543.741 264 542.91 264C542.08 264 541.406 264.672 541.406 265.5C541.406 266.328 542.08 267 542.91 267Z" fill="#999999"/>
<path d="M326.348 267C327.178 267 327.852 266.328 327.852 265.5C327.852 264.672 327.178 264 326.348 264C325.517 264 324.844 264.672 324.844 265.5C324.844 266.328 325.517 267 326.348 267Z" fill="#999999"/>
<path d="M350.41 291C351.241 291 351.914 290.328 351.914 289.5C351.914 288.672 351.241 288 350.41 288C349.58 288 348.906 288.672 348.906 289.5C348.906 290.328 349.58 291 350.41 291Z" fill="#999999"/>
<path d="M374.473 291C375.303 291 375.977 290.328 375.977 289.5C375.977 288.672 375.303 288 374.473 288C373.642 288 372.969 288.672 372.969 289.5C372.969 290.328 373.642 291 374.473 291Z" fill="#999999"/>
<path d="M398.535 291C399.366 291 400.039 290.328 400.039 289.5C400.039 288.672 399.366 288 398.535 288C397.705 288 397.031 288.672 397.031 289.5C397.031 290.328 397.705 291 398.535 291Z" fill="#999999"/>
<path d="M422.598 291C423.428 291 424.102 290.328 424.102 289.5C424.102 288.672 423.428 288 422.598 288C421.767 288 421.094 288.672 421.094 289.5C421.094 290.328 421.767 291 422.598 291Z" fill="#999999"/>
<path d="M446.66 291C447.491 291 448.164 290.328 448.164 289.5C448.164 288.672 447.491 288 446.66 288C445.83 288 445.156 288.672 445.156 289.5C445.156 290.328 445.83 291 446.66 291Z" fill="#999999"/>
<path d="M470.723 291C471.553 291 472.227 290.328 472.227 289.5C472.227 288.672 471.553 288 470.723 288C469.892 288 469.219 288.672 469.219 289.5C469.219 290.328 469.892 291 470.723 291Z" fill="#999999"/>
<path d="M494.785 291C495.616 291 496.289 290.328 496.289 289.5C496.289 288.672 495.616 288 494.785 288C493.955 288 493.281 288.672 493.281 289.5C493.281 290.328 493.955 291 494.785 291Z" fill="#999999"/>
<path d="M518.848 291C519.678 291 520.352 290.328 520.352 289.5C520.352 288.672 519.678 288 518.848 288C518.017 288 517.344 288.672 517.344 289.5C517.344 290.328 518.017 291 518.848 291Z" fill="#999999"/>
<path d="M542.91 291C543.741 291 544.414 290.328 544.414 289.5C544.414 288.672 543.741 288 542.91 288C542.08 288 541.406 288.672 541.406 289.5C541.406 290.328 542.08 291 542.91 291Z" fill="#999999"/>
<path d="M326.348 291C327.178 291 327.852 290.328 327.852 289.5C327.852 288.672 327.178 288 326.348 288C325.517 288 324.844 288.672 324.844 289.5C324.844 290.328 325.517 291 326.348 291Z" fill="#999999"/>
<path d="M350.41 315C351.241 315 351.914 314.328 351.914 313.5C351.914 312.672 351.241 312 350.41 312C349.58 312 348.906 312.672 348.906 313.5C348.906 314.328 349.58 315 350.41 315Z" fill="#999999"/>
<path d="M374.473 315C375.303 315 375.977 314.328 375.977 313.5C375.977 312.672 375.303 312 374.473 312C373.642 312 372.969 312.672 372.969 313.5C372.969 314.328 373.642 315 374.473 315Z" fill="#999999"/>
<path d="M398.535 315C399.366 315 400.039 314.328 400.039 313.5C400.039 312.672 399.366 312 398.535 312C397.705 312 397.031 312.672 397.031 313.5C397.031 314.328 397.705 315 398.535 315Z" fill="#999999"/>
<path d="M422.598 315C423.428 315 424.102 314.328 424.102 313.5C424.102 312.672 423.428 312 422.598 312C421.767 312 421.094 312.672 421.094 313.5C421.094 314.328 421.767 315 422.598 315Z" fill="#999999"/>
<path d="M446.66 315C447.491 315 448.164 314.328 448.164 313.5C448.164 312.672 447.491 312 446.66 312C445.83 312 445.156 312.672 445.156 313.5C445.156 314.328 445.83 315 446.66 315Z" fill="#999999"/>
<path d="M470.723 315C471.553 315 472.227 314.328 472.227 313.5C472.227 312.672 471.553 312 470.723 312C469.892 312 469.219 312.672 469.219 313.5C469.219 314.328 469.892 315 470.723 315Z" fill="#999999"/>
<path d="M494.785 315C495.616 315 496.289 314.328 496.289 313.5C496.289 312.672 495.616 312 494.785 312C493.955 312 493.281 312.672 493.281 313.5C493.281 314.328 493.955 315 494.785 315Z" fill="#999999"/>
<path d="M518.848 315C519.678 315 520.352 314.328 520.352 313.5C520.352 312.672 519.678 312 518.848 312C518.017 312 517.344 312.672 517.344 313.5C517.344 314.328 518.017 315 518.848 315Z" fill="#999999"/>
<path d="M542.91 315C543.741 315 544.414 314.328 544.414 313.5C544.414 312.672 543.741 312 542.91 312C542.08 312 541.406 312.672 541.406 313.5C541.406 314.328 542.08 315 542.91 315Z" fill="#999999"/>
<path d="M326.348 315C327.178 315 327.852 314.328 327.852 313.5C327.852 312.672 327.178 312 326.348 312C325.517 312 324.844 312.672 324.844 313.5C324.844 314.328 325.517 315 326.348 315Z" fill="#999999"/>
<path d="M0 230C0 225.582 3.58172 222 8 222H371.231C374.157 222 376.849 223.597 378.252 226.165L601.562 635H0V230Z" fill="#4F5955"/>
</svg>
