<svg width="162" height="36" viewBox="0 0 162 36" fill="none" xmlns="http://www.w3.org/2000/svg">
<path d="M8.955 35.852H7.791V22.352C7.791 13.044 12.92 7.917 22.234 7.917H35.982V18.517C35.982 28.564 28.682 35.856 18.631 35.856L8.955 35.852ZM18.048 31.794C19.8719 31.8046 21.6799 31.4533 23.3672 30.7605C25.0545 30.0677 26.5876 29.0472 27.8778 27.7579C29.168 26.4686 30.1897 24.9362 30.8837 23.2494C31.5777 21.5626 31.9303 19.755 31.921 17.931V12.631H22.821C16.221 12.631 12.853 15.674 12.538 21.931C14.861 19.886 18.038 18.851 22.019 18.851H27.032C27.1084 19.2977 27.1355 19.7514 27.113 20.204C27.1892 21.3878 26.8869 22.5652 26.25 23.566H22.6C16.8 23.566 13.682 26.26 13.092 31.796L18.048 31.794ZM2.9 35.843H0V17.921C0 17.881 0 17.84 0 17.8V17.339C0.00688377 12.7404 1.83752 8.33239 5.09032 5.08184C8.34312 1.83129 12.7524 0.0037023 17.351 0L35.867 0V4.059H17.934C14.2574 4.06164 10.7319 5.5226 8.13111 8.12134C5.53031 10.7201 4.06656 14.2444 4.061 17.921V35.843H2.9Z" fill="#B9B9B9"/>
<path d="M56.523 10.3821H48.223L48.491 10.6381V13.4381L48.223 13.7111L55.706 13.7281V16.3071H48.223L48.491 16.5801V21.6181H45.645V7.78613H56.523V10.3821Z" fill="#B9B9B9"/>
<path d="M63.309 21.7901C59.559 21.7901 57.701 19.3651 57.701 16.2391C57.701 13.1131 59.559 10.6891 63.292 10.6891C67.059 10.6891 68.917 13.0971 68.917 16.2391C68.9701 16.9866 68.8609 17.7368 68.597 18.4382C68.3332 19.1396 67.9208 19.7757 67.3882 20.3029C66.8556 20.8301 66.2153 21.2359 65.5113 21.4926C64.8072 21.7493 64.056 21.8508 63.309 21.7901ZM63.309 13.1481C61.334 13.1481 60.497 14.3771 60.497 16.2391C60.497 18.0841 61.367 19.3471 63.309 19.3471C65.268 19.3471 66.121 18.0831 66.121 16.2391C66.121 14.3951 65.264 13.1481 63.309 13.1481Z" fill="#B9B9B9"/>
<path d="M75.649 21.8061C73.7146 21.8089 71.85 21.0835 70.426 19.7741L72.217 17.9291C72.6512 18.3932 73.1742 18.7651 73.7551 19.0228C74.3359 19.2805 74.9627 19.4187 75.598 19.4291C77.205 19.4291 77.674 18.9161 77.674 18.5241C77.674 18.1831 77.523 17.9091 76.301 17.6021C76.067 17.5511 74.644 17.1581 74.41 17.1071C72.602 16.6451 70.744 15.8941 70.744 13.9301C70.744 12.0681 72.485 10.7021 75.481 10.7021C76.3511 10.663 77.2199 10.8018 78.0344 11.1101C78.8489 11.4184 79.592 11.8897 80.218 12.4951L78.477 14.2541C77.6804 13.476 76.6106 13.0409 75.497 13.0421C73.923 13.0421 73.555 13.5881 73.555 13.8951C73.555 14.3391 74.124 14.5101 75.413 14.8341C75.631 14.8861 76.869 15.2271 77.104 15.2951C79.33 15.8581 80.485 16.7811 80.485 18.4031C80.486 20.2351 78.913 21.8061 75.649 21.8061Z" fill="#B9B9B9"/>
<path d="M87.218 21.8061C85.2836 21.8089 83.419 21.0835 81.995 19.7741L83.786 17.9291C84.2201 18.3932 84.7432 18.7651 85.3241 19.0228C85.9049 19.2805 86.5317 19.4187 87.167 19.4291C88.774 19.4291 89.243 18.9161 89.243 18.5241C89.243 18.1831 89.092 17.9091 87.87 17.6021C87.636 17.5511 86.213 17.1581 85.978 17.1071C84.17 16.6451 82.312 15.8941 82.312 13.9301C82.312 12.0681 84.053 10.7021 87.049 10.7021C87.919 10.663 88.7879 10.8018 89.6024 11.1101C90.417 11.4184 91.16 11.8897 91.786 12.4951L90.045 14.2541C89.2487 13.4761 88.1793 13.041 87.066 13.0421C85.492 13.0421 85.124 13.5881 85.124 13.8951C85.124 14.3391 85.693 14.5101 86.982 14.8341C87.199 14.8861 88.438 15.2271 88.673 15.2951C90.899 15.8581 92.054 16.7811 92.054 18.4031C92.056 20.2351 90.482 21.8061 87.218 21.8061Z" fill="#B9B9B9"/>
<path d="M95.522 10.1421C95.2083 10.1555 94.8978 10.0747 94.6304 9.91007C94.363 9.74547 94.151 9.50462 94.0217 9.21851C93.8923 8.9324 93.8516 8.61413 93.9046 8.30466C93.9577 7.99519 94.1022 7.70866 94.3195 7.482C94.5368 7.25534 94.8169 7.09891 95.1239 7.03281C95.4308 6.96671 95.7505 6.99398 96.0418 7.11112C96.3332 7.22826 96.5828 7.4299 96.7585 7.6901C96.9343 7.95029 97.0281 8.25712 97.028 8.57111C97.04 8.77505 97.0098 8.97928 96.9392 9.171C96.8686 9.36271 96.7592 9.5378 96.6178 9.68528C96.4765 9.83275 96.3062 9.94944 96.1176 10.0281C95.929 10.1067 95.7263 10.1455 95.522 10.1421ZM96.912 21.6191H94.112V10.8601H96.912V21.6191Z" fill="#B9B9B9"/>
<path d="M102.302 21.6201H99.502V7.27413H102.302V21.6201Z" fill="#B9B9B9"/>
<path d="M117.234 21.6191H115.509V19.8431H115.475C114.966 20.4712 114.319 20.9737 113.585 21.3113C112.85 21.649 112.048 21.8128 111.24 21.7901C106.888 21.7901 104.427 19.0901 104.427 14.8391C104.427 10.4671 106.971 7.6151 111.341 7.6151C112.336 7.56761 113.331 7.73003 114.259 8.09182C115.188 8.45361 116.03 9.00668 116.731 9.71511L115.258 11.1841C114.782 10.6173 114.18 10.1705 113.499 9.87966C112.819 9.58885 112.079 9.46227 111.341 9.51012C108.041 9.51012 106.487 11.5261 106.487 14.8381C106.487 17.9981 107.993 19.8931 111.241 19.8931C111.784 19.9126 112.326 19.8214 112.832 19.6251C113.339 19.4288 113.801 19.1315 114.189 18.7513C114.577 18.3711 114.884 17.9159 115.091 17.4134C115.298 16.9109 115.401 16.3715 115.393 15.8281L115.593 15.6401H110.973V13.7401H117.234V21.6191Z" fill="#B9B9B9"/>
<path d="M125.769 12.7731H125.15C123.392 12.7561 122.036 13.7461 122.036 16.3091V21.6151H120.078V10.8611H122.036V12.5861H122.07C122.387 12.0076 122.859 11.5287 123.432 11.2031C124.006 10.8774 124.659 10.7178 125.318 10.7421H125.77L125.769 12.7731Z" fill="#B9B9B9"/>
<path d="M132.052 21.7901C128.57 21.7901 126.863 19.4161 126.863 16.2391C126.863 13.0621 128.588 10.6891 132.036 10.6891C135.518 10.6891 137.242 13.0291 137.242 16.2391C137.242 19.3991 135.484 21.7901 132.052 21.7901ZM132.052 12.4821C129.775 12.4821 128.821 14.0881 128.821 16.2391C128.821 18.3571 129.792 19.9961 132.052 19.9961C134.329 19.9961 135.283 18.3741 135.283 16.2391C135.283 14.1041 134.312 12.4821 132.052 12.4821Z" fill="#B9B9B9"/>
<path d="M148.961 21.6191H147.003V20.4581H146.969C146.565 20.8902 146.074 21.2321 145.529 21.4616C144.984 21.6911 144.396 21.8031 143.805 21.7901C140.725 21.7901 139.419 20.1331 139.419 17.5031V10.8601H141.378V17.4351C141.378 18.8861 141.796 19.9961 144.039 19.9961C144.423 20.0387 144.812 19.9973 145.179 19.875C145.545 19.7527 145.881 19.5523 146.163 19.2877C146.444 19.023 146.665 18.7003 146.81 18.342C146.955 17.9837 147.021 17.5982 147.002 17.2121V10.8591H148.96L148.961 21.6191Z" fill="#B9B9B9"/>
<path d="M156.982 21.7901C156.391 21.8201 155.8 21.7211 155.25 21.4999C154.701 21.2787 154.207 20.9406 153.801 20.5091H153.768V25.2091H151.809V10.8601H153.768V11.9701H153.801C154.209 11.5415 154.704 11.2053 155.252 10.9843C155.801 10.7633 156.391 10.6626 156.982 10.6891C160.33 10.6891 161.987 13.0461 161.987 16.2391C161.987 19.4501 160.363 21.7901 156.982 21.7901ZM156.832 12.4821C154.539 12.4821 153.632 14.1221 153.632 16.2731C153.632 18.4421 154.502 19.9961 156.832 19.9961C159.142 19.9961 160.032 18.4251 160.032 16.2731C160.032 14.1211 159.158 12.4821 156.831 12.4821H156.832Z" fill="#B9B9B9"/>
<path d="M49.159 25.0771L47.72 27.0901V28.5321H47.214V27.0901L45.771 25.0771H46.403L47.244 26.2881L47.462 26.6591H47.47L47.684 26.2841L48.533 25.0761L49.159 25.0771Z" fill="#B9B9B9"/>
<path d="M51.303 28.5751C51.0746 28.5884 50.8462 28.5513 50.6337 28.4666C50.4213 28.3818 50.2301 28.2513 50.0736 28.0845C49.9172 27.9176 49.7993 27.7184 49.7283 27.501C49.6574 27.2835 49.6351 27.0531 49.663 26.8261C49.6435 26.599 49.6715 26.3702 49.7451 26.1544C49.8187 25.9387 49.9363 25.7405 50.0905 25.5725C50.2447 25.4046 50.4321 25.2705 50.6408 25.1788C50.8495 25.087 51.075 25.0397 51.303 25.0397C51.531 25.0397 51.7565 25.087 51.9652 25.1788C52.1739 25.2705 52.3613 25.4046 52.5155 25.5725C52.6697 25.7405 52.7873 25.9387 52.8609 26.1544C52.9345 26.3702 52.9624 26.599 52.943 26.8261C52.9695 27.0529 52.9462 27.2827 52.8747 27.4995C52.8032 27.7163 52.6853 27.9149 52.5291 28.0815C52.373 28.248 52.1824 28.3784 51.9706 28.4637C51.7588 28.5489 51.531 28.587 51.303 28.5751ZM51.303 25.5081C50.503 25.5081 50.177 26.0881 50.177 26.8271C50.177 27.5481 50.503 28.1031 51.303 28.1031C52.103 28.1031 52.428 27.5491 52.428 26.8271C52.428 26.1051 52.11 25.5071 51.303 25.5071V25.5081Z" fill="#B9B9B9"/>
<path d="M56.798 26.9461C56.798 27.9961 56.325 28.5761 55.313 28.5761C54.301 28.5761 53.82 28.0041 53.82 26.9461V25.0771H54.32V26.9421C54.32 27.6711 54.58 28.1021 55.308 28.1021C56.036 28.1021 56.295 27.6711 56.295 26.9421V25.0771H56.795L56.798 26.9461Z" fill="#B9B9B9"/>
<path d="M60.858 28.5331H60.297L59.858 27.6201C59.7903 27.4647 59.6745 27.3351 59.5276 27.2504C59.3806 27.1658 59.2104 27.1306 59.042 27.1501H58.281L58.331 27.1981V28.5331H57.831V25.0771H59.366C59.5144 25.0582 59.6651 25.0709 59.8082 25.1144C59.9513 25.158 60.0836 25.2313 60.1963 25.3297C60.309 25.428 60.3996 25.5491 60.4621 25.685C60.5246 25.8209 60.5577 25.9685 60.559 26.1181C60.5557 26.311 60.4928 26.4982 60.379 26.6539C60.2651 26.8097 60.1058 26.9264 59.923 26.9881V26.9971C60.1002 27.0847 60.2415 27.231 60.323 27.4111L60.858 28.5331ZM59.364 25.5511H58.281L58.331 25.6031V26.6231L58.281 26.6791H59.323C59.791 26.6791 60.042 26.4401 60.042 26.1201C60.042 25.7091 59.766 25.5501 59.364 25.5501V25.5511Z" fill="#B9B9B9"/>
<path d="M64.78 28.5331H63.14V25.0771H64.747C64.8824 25.06 65.0199 25.0721 65.1502 25.1123C65.2806 25.1526 65.4008 25.2203 65.503 25.3108C65.6051 25.4013 65.6867 25.5125 65.7424 25.6371C65.7982 25.7616 65.8267 25.8966 65.826 26.0331C65.8341 26.1685 65.8052 26.3036 65.7425 26.4239C65.6798 26.5442 65.5856 26.6452 65.47 26.7161V26.7251C65.6278 26.7893 65.7613 26.9019 65.8511 27.0468C65.941 27.1916 65.9826 27.3612 65.97 27.5311C65.975 28.1491 65.55 28.5331 64.78 28.5331ZM64.705 25.5511H63.592L63.642 25.6031V26.4691L63.592 26.5211H64.705C65.161 26.5211 65.311 26.3031 65.311 26.0301C65.311 25.7131 65.119 25.5501 64.705 25.5501V25.5511ZM64.78 26.9931H63.592L63.642 27.0451V28.0091L63.592 28.0611H64.78C65.28 28.0611 65.458 27.8691 65.458 27.5321C65.458 27.1951 65.261 26.9921 64.78 26.9921V26.9931Z" fill="#B9B9B9"/>
<path d="M69.79 26.9461C69.79 27.9961 69.317 28.5761 68.305 28.5761C67.293 28.5761 66.812 28.0041 66.812 26.9461V25.0771H67.312V26.9421C67.312 27.6711 67.571 28.1021 68.299 28.1021C69.027 28.1021 69.286 27.6711 69.286 26.9421V25.0771H69.786L69.79 26.9461Z" fill="#B9B9B9"/>
<path d="M72.17 28.5751C71.8901 28.5851 71.6111 28.5381 71.3499 28.4368C71.0888 28.3356 70.851 28.1822 70.651 27.9861L71.023 27.6191C71.1692 27.7714 71.3446 27.8925 71.5388 27.9754C71.733 28.0582 71.9419 28.101 72.153 28.1011C72.776 28.1011 73.053 27.8661 73.053 27.6011C73.053 27.4091 72.89 27.2091 72.434 27.0891C72.363 27.0681 71.886 26.9441 71.81 26.9231C71.195 26.7521 70.743 26.5231 70.743 25.9971C70.743 25.4971 71.187 25.0371 72.124 25.0371C72.3761 25.0294 72.6269 25.0747 72.8603 25.1701C73.0938 25.2656 73.3046 25.409 73.479 25.5911L73.111 25.9621C72.9925 25.8157 72.8418 25.6987 72.6705 25.6203C72.4993 25.5418 72.3122 25.5041 72.124 25.5101C71.496 25.5101 71.258 25.7491 71.258 25.9791C71.258 26.1921 71.467 26.3161 72.041 26.4791C72.112 26.4961 72.509 26.6071 72.589 26.6281C73.271 26.8031 73.568 27.1571 73.568 27.5801C73.57 28.0761 73.176 28.5751 72.17 28.5751Z" fill="#B9B9B9"/>
<path d="M74.973 28.5331H74.473V25.0771H74.973V28.5331Z" fill="#B9B9B9"/>
<path d="M78.927 28.5331H78.483L76.783 26.2981L76.549 25.9051H76.54V28.5331H76.04V25.0771H76.484L78.191 27.3171L78.417 27.7051H78.426V25.0771H78.926L78.927 28.5331Z" fill="#B9B9B9"/>
<path d="M82.569 28.5331H79.975V25.0771H82.569V25.5501H80.428L80.478 25.6021V26.5151L80.428 26.5711H82.369V27.0411H80.428L80.478 27.0921V28.0091L80.428 28.0611H82.57L82.569 28.5331Z" fill="#B9B9B9"/>
<path d="M84.884 28.5751C84.6041 28.5851 84.3251 28.538 84.064 28.4367C83.8028 28.3355 83.565 28.1822 83.365 27.9861L83.738 27.6191C83.8842 27.7714 84.0596 27.8926 84.2538 27.9755C84.448 28.0583 84.6569 28.101 84.868 28.1011C85.491 28.1011 85.768 27.8661 85.768 27.6011C85.768 27.4091 85.605 27.2091 85.149 27.0891C85.078 27.0681 84.601 26.9441 84.526 26.9231C83.911 26.7521 83.459 26.5231 83.459 25.9971C83.459 25.4971 83.903 25.0371 84.839 25.0371C85.0911 25.0294 85.3419 25.0747 85.5754 25.1701C85.8088 25.2656 86.0195 25.409 86.194 25.5911L85.826 25.9621C85.7074 25.8156 85.5564 25.6986 85.385 25.6201C85.2136 25.5417 85.0264 25.5041 84.838 25.5101C84.211 25.5101 83.972 25.7491 83.972 25.9791C83.972 26.1921 84.181 26.3161 84.754 26.4791C84.825 26.4961 85.223 26.6071 85.302 26.6281C85.984 26.8031 86.281 27.1571 86.281 27.5801C86.285 28.0761 85.892 28.5751 84.884 28.5751Z" fill="#B9B9B9"/>
<path d="M88.517 28.5751C88.2371 28.5851 87.9581 28.5381 87.6969 28.4368C87.4358 28.3356 87.198 28.1822 86.998 27.9861L87.37 27.6191C87.5162 27.7714 87.6917 27.8925 87.8858 27.9754C88.08 28.0582 88.2889 28.101 88.5 28.1011C89.123 28.1011 89.4 27.8661 89.4 27.6011C89.4 27.4091 89.237 27.2091 88.781 27.0891C88.71 27.0681 88.233 26.9441 88.157 26.9231C87.542 26.7521 87.09 26.5231 87.09 25.9971C87.09 25.4971 87.534 25.0371 88.471 25.0371C88.7231 25.0294 88.9739 25.0747 89.2074 25.1701C89.4408 25.2656 89.6515 25.409 89.826 25.5911L89.458 25.9621C89.3395 25.8157 89.1888 25.6987 89.0175 25.6203C88.8463 25.5418 88.6592 25.5041 88.471 25.5101C87.843 25.5101 87.605 25.7491 87.605 25.9791C87.605 26.1921 87.814 26.3161 88.388 26.4791C88.459 26.4961 88.856 26.6071 88.936 26.6281C89.618 26.8031 89.915 27.1571 89.915 27.5801C89.918 28.0761 89.529 28.5751 88.517 28.5751Z" fill="#B9B9B9"/>
<path d="M94.983 25.5501H93.765L93.79 25.6021V28.5331H93.29V25.6021L93.319 25.5501H92.096V25.0771H94.983V25.5501Z" fill="#B9B9B9"/>
<path d="M98.607 28.5331H98.059L97.703 27.7331L97.728 27.6861H95.928L95.953 27.7331L95.597 28.5331H95.049L96.584 25.0771H97.073L98.607 28.5331ZM97.498 27.2101L97.448 27.1591L96.929 25.9861L96.829 25.6701H96.821L96.721 25.9811L96.198 27.1591L96.148 27.2101H97.498Z" fill="#B9B9B9"/>
<path d="M102.27 28.5321H101.839V28.0881H101.832C101.705 28.245 101.543 28.3704 101.36 28.4547C101.176 28.539 100.976 28.5798 100.774 28.5741C100.543 28.5927 100.311 28.5603 100.093 28.4792C99.8762 28.398 99.6795 28.2701 99.5173 28.1044C99.3551 27.9388 99.2313 27.7394 99.1547 27.5206C99.0781 27.3018 99.0505 27.0688 99.074 26.8381C99.05 26.6021 99.0775 26.3636 99.1547 26.1393C99.232 25.9149 99.3571 25.71 99.5214 25.5388C99.6856 25.3676 99.8851 25.2341 100.106 25.1477C100.327 25.0612 100.564 25.0239 100.801 25.0381C101.05 25.0263 101.298 25.0669 101.53 25.1574C101.762 25.2478 101.973 25.386 102.148 25.5631L101.78 25.9301C101.661 25.7884 101.511 25.6767 101.34 25.6041C101.17 25.5315 100.986 25.5 100.801 25.5121C99.977 25.5121 99.588 26.0121 99.588 26.8431C99.588 27.6321 99.964 28.1061 100.776 28.1061C100.912 28.1112 101.047 28.0885 101.174 28.0395C101.301 27.9905 101.416 27.9162 101.513 27.8211C101.61 27.726 101.687 27.6122 101.738 27.4865C101.79 27.3608 101.815 27.226 101.813 27.0901L101.863 27.0441H100.709V26.5701H102.273L102.27 28.5321Z" fill="#B9B9B9"/>
<path d="M105.715 28.5331H103.315V25.0771H103.815V28.0081L103.765 28.0601H105.71L105.715 28.5331Z" fill="#B9B9B9"/>
<path d="M106.972 28.5331H106.472V25.0771H106.972V28.5331Z" fill="#B9B9B9"/>
<path d="M110.926 28.5331H110.482L108.782 26.2981L108.548 25.9051H108.539V28.5331H108.039V25.0771H108.482L110.189 27.3171L110.414 27.7051H110.423V25.0771H110.923L110.926 28.5331Z" fill="#B9B9B9"/>
<path d="M114.567 28.5331H111.974V25.0771H114.567V25.5501H112.425L112.475 25.6021V26.5151L112.425 26.5711H114.366V27.0411H112.425L112.475 27.0921V28.0091L112.425 28.0611H114.567V28.5331Z" fill="#B9B9B9"/>
<path d="M120.175 28.5321H119.745V28.0881H119.737C119.61 28.245 119.448 28.3705 119.264 28.4548C119.081 28.5391 118.88 28.5799 118.678 28.5741C118.447 28.5926 118.215 28.56 117.998 28.4788C117.78 28.3976 117.584 28.2696 117.422 28.104C117.259 27.9384 117.136 27.7392 117.059 27.5204C116.982 27.3017 116.955 27.0687 116.978 26.8381C116.954 26.602 116.981 26.3634 117.059 26.139C117.136 25.9146 117.261 25.7097 117.426 25.5384C117.59 25.3672 117.79 25.2338 118.011 25.1474C118.232 25.061 118.469 25.0237 118.706 25.0381C118.955 25.0263 119.203 25.0669 119.435 25.1574C119.667 25.2478 119.878 25.386 120.053 25.5631L119.685 25.9301C119.566 25.7885 119.415 25.677 119.245 25.6043C119.075 25.5317 118.891 25.5001 118.706 25.5121C117.882 25.5121 117.493 26.0121 117.493 26.8431C117.493 27.6321 117.869 28.1061 118.681 28.1061C118.817 28.1112 118.952 28.0885 119.079 28.0395C119.206 27.9905 119.321 27.9162 119.418 27.8211C119.515 27.726 119.592 27.6122 119.643 27.4865C119.695 27.3608 119.72 27.226 119.718 27.0901L119.768 27.0441H118.614V26.5701H120.178L120.175 28.5321Z" fill="#B9B9B9"/>
<path d="M122.717 28.5751C122.489 28.5884 122.26 28.5513 122.048 28.4666C121.835 28.3818 121.644 28.2513 121.488 28.0845C121.331 27.9176 121.213 27.7184 121.142 27.501C121.071 27.2835 121.049 27.0531 121.077 26.8261C121.058 26.599 121.086 26.3702 121.159 26.1544C121.233 25.9387 121.35 25.7405 121.504 25.5725C121.659 25.4046 121.846 25.2705 122.055 25.1788C122.264 25.087 122.489 25.0397 122.717 25.0397C122.945 25.0397 123.17 25.087 123.379 25.1788C123.588 25.2705 123.775 25.4046 123.93 25.5725C124.084 25.7405 124.201 25.9387 124.275 26.1544C124.348 26.3702 124.376 26.599 124.357 26.8261C124.383 27.0529 124.36 27.2827 124.289 27.4995C124.217 27.7163 124.099 27.9149 123.943 28.0815C123.787 28.248 123.596 28.3784 123.385 28.4637C123.173 28.5489 122.945 28.587 122.717 28.5751ZM122.717 25.5081C121.917 25.5081 121.592 26.0881 121.592 26.8271C121.592 27.5481 121.918 28.1031 122.717 28.1031C123.516 28.1031 123.842 27.5491 123.842 26.8271C123.842 26.1051 123.524 25.5071 122.717 25.5071V25.5081Z" fill="#B9B9B9"/>
<path d="M127.852 28.5331H125.259V25.0771H127.852V25.5501H125.71L125.76 25.6021V26.5151L125.71 26.5711H127.651V27.0411H125.71L125.76 27.0921V28.0091L125.71 28.0611H127.852V28.5331Z" fill="#B9B9B9"/>
<path d="M130.167 28.5751C129.887 28.585 129.608 28.5379 129.347 28.4366C129.087 28.3354 128.849 28.1821 128.649 27.9861L129.021 27.6191C129.167 27.7713 129.342 27.8925 129.536 27.9753C129.73 28.0582 129.939 28.1009 130.15 28.1011C130.774 28.1011 131.05 27.8661 131.05 27.6011C131.05 27.4091 130.887 27.2091 130.431 27.0891C130.36 27.0681 129.883 26.9441 129.808 26.9231C129.193 26.7521 128.741 26.5231 128.741 25.9971C128.741 25.4971 129.184 25.0371 130.121 25.0371C130.373 25.0294 130.624 25.0747 130.857 25.1701C131.091 25.2656 131.302 25.409 131.476 25.5911L131.108 25.9621C130.989 25.8155 130.839 25.6985 130.667 25.62C130.496 25.5416 130.308 25.504 130.12 25.5101C129.493 25.5101 129.254 25.7491 129.254 25.9791C129.254 26.1921 129.463 26.3161 130.036 26.4791C130.107 26.4961 130.505 26.6071 130.584 26.6281C131.266 26.8031 131.563 27.1571 131.563 27.5801C131.569 28.0761 131.175 28.5751 130.167 28.5751Z" fill="#B9B9B9"/>
<path d="M136.927 28.5331H136.427V27.0951L136.477 27.0441H134.494L134.544 27.0951V28.5331H134.044V25.0771H134.544V26.5191L134.494 26.5701H136.475L136.425 26.5191V25.0771H136.925L136.927 28.5331Z" fill="#B9B9B9"/>
<path d="M140.568 28.5331H137.974V25.0771H140.568V25.5501H138.426L138.476 25.6021V26.5151L138.426 26.5711H140.367V27.0411H138.426L138.476 27.0921V28.0091L138.426 28.0611H140.568V28.5331Z" fill="#B9B9B9"/>
<path d="M144.561 28.5331H144L143.561 27.6201C143.493 27.4646 143.378 27.3349 143.231 27.2502C143.084 27.1656 142.913 27.1305 142.745 27.1501H141.984L142.034 27.1981V28.5331H141.534V25.0771H143.069C143.217 25.0582 143.368 25.0709 143.511 25.1144C143.654 25.158 143.786 25.2313 143.899 25.3297C144.012 25.4281 144.102 25.5492 144.165 25.6851C144.227 25.821 144.26 25.9686 144.261 26.1181C144.258 26.3111 144.195 26.4983 144.081 26.6541C143.967 26.8099 143.808 26.9266 143.625 26.9881V26.9971C143.802 27.0847 143.944 27.231 144.025 27.4111L144.561 28.5331ZM143.067 25.5511H141.983L142.033 25.6031V26.6231L141.983 26.6791H143.025C143.494 26.6791 143.744 26.4401 143.744 26.1201C143.745 25.7091 143.469 25.5501 143.067 25.5501V25.5511Z" fill="#B9B9B9"/>
<path d="M147.846 28.5331H145.253V25.0771H147.846V25.5501H145.704L145.754 25.6021V26.5151L145.704 26.5711H147.645V27.0411H145.704L145.754 27.0921V28.0091L145.704 28.0611H147.846V28.5331Z" fill="#B9B9B9"/>
</svg>
